<?xml version="1.0" encoding="utf-8"?>
<!-- Uploaded to: SVG Repo, www.svgrepo.com, Generator: SVG Repo Mixer Tools -->
<svg width="800px" height="800px" viewBox="0 -47.24 410.78 410.78" xmlns="http://www.w3.org/2000/svg"><defs><style>.a{fill:#ffffff;}.b{fill:#211715;}.c{fill:#a98a75;}.d{fill:#bdbdbd;}.e{fill:#a0a0a0;}.f{fill:#cfcfcf;}</style></defs><path class="a" d="M408.8,196.829c-62.12-35.87-130.86-75.54-203.42-117.41-72.54,41.87-141.29,81.55-203.4,117.41,63.48,36.65,142.4,82.22,203.41,117.46C266.4,279.043,345.382,233.449,408.8,196.829Z"/><path class="b" d="M206.4,316.016q18.774-10.845,37.549-21.688l40.161-23.192L325.382,247.3,366.269,223.7q19.414-11.208,38.827-22.418l4.713-2.722c2.229-1.287.217-4.745-2.019-3.454l-38.67,22.329-40.739,23.522L287.075,264.8,246.7,288.119q-18.888,10.909-37.777,21.819l-4.542,2.624c-2.228,1.287-.216,4.745,2.019,3.454Z"/><path class="b" d="M204.37,81.146q41.665,24.042,83.329,48.087,39.209,22.627,78.416,45.261l41.675,24.062c2.234,1.289,4.25-2.166,2.019-3.454q-37.931-21.9-75.866-43.8-40.262-23.239-80.527-46.475L206.389,77.692c-2.233-1.289-4.25,2.166-2.019,3.454Z"/><path class="b" d="M.97,198.556l38.776,22.387L80.375,244.4l41.18,23.779,40.439,23.353,37.837,21.853,4.549,2.628c2.234,1.29,4.25-2.166,2.019-3.454Q187.6,301.7,168.79,290.84l-40.032-23.118L87.614,243.963,46.645,220.307,7.717,197.832,2.989,195.1c-2.233-1.289-4.25,2.166-2.019,3.454Z"/><path class="b" d="M2.989,198.556q37.929-21.9,75.861-43.794l80.522-46.478,47.017-27.138c2.229-1.287.217-4.744-2.019-3.454l-83.315,48.089L42.641,171.044.97,195.1c-2.228,1.287-.216,4.745,2.019,3.454Z"/><path class="a" d="M26.223,191.34l-1.072-14.687c0-5.823,8.175-10.542,18.259-10.542s18.259,4.719,18.259,10.542L60.8,191.165c0,5.822-7.307,10.542-17.391,10.542S26.223,197.162,26.223,191.34Z"/><path class="b" d="M28.223,191.34c-.354-4.852-.935-9.739-1.065-14.6-.088-3.262,3.525-5.629,6.327-6.8A27.117,27.117,0,0,1,49.8,168.823c3.51.828,8.66,2.765,9.7,6.651.507,1.891-.034,4.549-.157,6.6-.173,2.889-.364,5.778-.518,8.669a6.21,6.21,0,0,1-.593,2.747,9.491,9.491,0,0,1-3.9,3.724c-5.009,2.831-11.653,3.127-17.155,1.809-3.845-.921-8.882-3.319-8.958-7.681-.045-2.571-4.045-2.579-4,0,.085,4.89,3.832,8.426,8.076,10.253a29.723,29.723,0,0,0,18.434,1.259c4.738-1.164,9.822-3.884,11.563-8.738.885-2.469.667-5.662.822-8.248.181-3.019.478-6.055.543-9.078.1-4.467-3.5-7.909-7.207-9.791a30.516,30.516,0,0,0-18.562-2.417c-5,.822-10.744,3.053-13.47,7.619-1.818,3.047-1.13,6.384-.886,9.719l.687,9.422C24.409,193.892,28.411,193.912,28.223,191.34Z"/><path class="b" d="M53.471,180.457a22.622,22.622,0,0,1-20.123,0c-2.272-1.209-4.295,2.243-2.019,3.454a26.79,26.79,0,0,0,24.16,0c2.274-1.209.256-4.663-2.018-3.454Z"/><path class="c" d="M37.87,175.384c-.7-10.5-2.313-16.046-8.591-25.812,1.569-3.083,9.194-3.111,11.614-2.139l2.618,1.052c3.071-4.966,8.6-5.819,14.3-4.913-6.167,9.084-8.667,18.889-9.083,31.812"/><path class="b" d="M39.87,175.384A56.5,56.5,0,0,0,37.6,161.671a57.759,57.759,0,0,0-6.59-13.108v2.019a2.191,2.191,0,0,1,1.3-1,10.005,10.005,0,0,1,2.9-.645,11.639,11.639,0,0,1,5.16.422,2.015,2.015,0,0,0,2.46-1.4,2.045,2.045,0,0,0-1.4-2.461,15.448,15.448,0,0,0-7.212-.451c-2.5.33-5.344,1.152-6.661,3.51a2.005,2.005,0,0,0,0,2.019,53.74,53.74,0,0,1,6.187,12.153,51.937,51.937,0,0,1,2.131,12.649c.174,2.555,4.175,2.574,4,0Z"/><path class="b" d="M43.449,154.385c.673-3.295,2.07-6.414,5.183-8.019,2.6-1.34,5.823-1.3,8.643-.865l-1.2-2.938c-6.6,9.794-8.958,21.169-9.356,32.821-.088,2.575,3.912,2.572,4,0,.375-10.986,2.593-21.573,8.809-30.8a2.01,2.01,0,0,0-1.2-2.938c-3.959-.609-8.081-.607-11.725,1.268-3.986,2.052-6.153,6.163-7.021,10.41-.514,2.513,3.341,3.588,3.857,1.063Z"/><path class="a" d="M244.575,99.226c0-12.32,0-47.546,0-47.546L205.179,29.2a2.232,2.232,0,0,0-2.221,0L100.746,88.22v50.851a1.108,1.108,0,0,0,.554.964l39.933,23.054a1.1,1.1,0,0,0,1.107,0l101.682-58.707a1.107,1.107,0,0,0,.553-.963Z"/><path class="d" d="M176.812,80.566,145.743,98.5a.483.483,0,0,1-.485,0l-21.183-12.23a.485.485,0,0,1,0-.841L155.144,67.5a.488.488,0,0,1,.485,0l21.183,12.23A.485.485,0,0,1,176.812,80.566Z"/><path class="e" d="M223.008,53.9,195.1,70.013a2.427,2.427,0,0,1-2.427,0L174.638,59.6a1.942,1.942,0,0,1,0-3.363l27.913-16.118a2.431,2.431,0,0,1,2.428,0l18.029,10.409A1.942,1.942,0,0,1,223.008,53.9Z"/><path class="b" d="M139.786,122.6v40.644c0,2.574,4,2.578,4,0V122.6c0-2.573-4-2.578-4,0Z"/><path class="b" d="M246.575,99.226q0-21.492,0-42.985,0-2.28,0-4.561a2.008,2.008,0,0,0-.991-1.727l-38.35-21.884c-1.742-.994-3.442-1.572-5.4-.524-.808.432-1.592.919-2.385,1.377l-12.656,7.307L143.821,61.04,102.578,84.853c-1.412.815-3.736,1.628-3.832,3.461-.048.928,0,1.873,0,2.8v33.393c0,4.8-.2,9.645,0,14.441.108,2.565,2.773,3.521,4.706,4.637l8.809,5.085L133.6,160.993c2.11,1.219,4.194,2.508,6.34,3.661s3.7-.008,5.5-1.045l29.609-17.095L216.6,122.528,244,106.707a7.863,7.863,0,0,0,1.67-1.088c1.464-1.464.907-4.562.907-6.393,0-2.574-4-2.578-4,0v3.2a5.9,5.9,0,0,0,0,.764c.049.362-.119.095-.048,0l.718-.717a24.344,24.344,0,0,1-2.7,1.605l-4.341,2.506-12.858,7.424-35.292,20.375L154.7,153.646,144.2,159.7l-1.573.908a4.957,4.957,0,0,0-1.134.655c-.31.348.716.175.613.018-.06-.09-.305-.176-.394-.227l-1.024-.591L137.8,158.8l-33.762-19.493a17.445,17.445,0,0,1-1.964-1.178l.718.718c.073.1-.1.355-.049-.025a6.328,6.328,0,0,0,0-.8V88.22l-.99,1.727L131.6,72.716l36.8-21.249,28.578-16.5,6.451-3.725c.361-.208.487-.344.873-.241a6.056,6.056,0,0,1,1.193.681l2.273,1.3,32.785,18.709,3.013,1.719-.99-1.727q-.024,18.3,0,36.608V99.226C242.575,101.8,246.575,101.8,246.575,99.226Z"/><path class="b" d="M233.721,57.232l-31.48,18.176L168.979,94.614l-23.4,13.513-3.01,1.738c-.721.416-.818.293-1.5-.1l-8.347-4.819c-6.478-3.74-12.91-7.575-19.44-11.224-.135-.076-.268-.155-.4-.232-2.234-1.29-4.25,2.166-2.019,3.454l17.352,10.019,9.766,5.639c.594.343,1.179.716,1.787,1.032,2.089,1.082,3.817.26,5.63-.787l21.144-12.208,32.824-18.952,32.917-19.006,3.458-2c2.229-1.287.217-4.745-2.019-3.454Z"/><path class="b" d="M222,52.169,201.464,64.026l-5.248,3.031L194.585,68c-.171.1-.519.4-.723.417.108-.008-.3-.2-.439-.275l-1.851-1.069-6.249-3.608-6.448-3.722a31.351,31.351,0,0,0-3.214-1.856c-.054-.023,0,.08-.013.083.049-.014.088-.062.136-.079a6.924,6.924,0,0,0,1.027-.593l4.507-2.6,13.273-7.664,5.742-3.316c1.052-.607,2.1-1.357,3.215-1.856.266-.12.174-.119.247-.109a4.774,4.774,0,0,1,1.207.7l5.511,3.182c3.72,2.148,7.421,4.336,11.164,6.445a3.162,3.162,0,0,0,.308.179c.07.029-.009-.068.014-.083-2.111,1.446-.112,4.914,2.019,3.454a4,4,0,0,0,1.215-5.69,5.168,5.168,0,0,0-1.75-1.436l-5.121-2.957c-4.075-2.352-8.12-4.768-12.229-7.06a4.578,4.578,0,0,0-4.818.047L197.3,40.843,183.354,48.9c-3.185,1.839-6.439,3.595-9.571,5.526a4,4,0,0,0-.1,6.937c1.285.816,2.649,1.529,3.967,2.29L190.8,71.243c1.659.958,3.234,1.592,5.142.593,1.055-.553,2.072-1.2,3.1-1.792l24.377-14.076.6-.345C226.246,54.336,224.234,50.878,222,52.169Z"/><path class="b" d="M175.8,78.839,148.581,94.556,145.8,96.162l-.788.455c-.218.125-.452.133-.042.023h1.063c.514.138-.118-.067-.343-.2l-1.5-.867-5.005-2.89-11.449-6.61-1.907-1.1a5.746,5.746,0,0,0-.537-.31c-.2-.088-.25-.26.018.011l.514.882-.06-.236v1.063l.06-.236-.514.882c-.268.271-.22.1-.009.006a6.614,6.614,0,0,0,.61-.353l2.244-1.3,7.374-4.257,16.781-9.689,2.781-1.605.788-.456c.218-.125.452-.133.042-.023h-1.063c-.514-.138.118.067.343.2l1.5.867,5.005,2.89,11.449,6.61,1.908,1.1a5.6,5.6,0,0,0,.536.31c.2.088.251.261-.018-.011l-.514-.882.06.236V79.614l-.06.237.514-.883-.182.184c-1.813,1.831,1.014,4.661,2.828,2.828a2.541,2.541,0,0,0-.586-4.086c-.511-.321-1.049-.606-1.572-.908l-6.69-3.862c-4.163-2.4-8.273-4.953-12.511-7.224-1.374-.736-2.441-.3-3.634.389l-4.786,2.763L133.3,77.8c-3.354,1.937-6.826,3.751-10.095,5.829a2.529,2.529,0,0,0-.728,3.879,5.338,5.338,0,0,0,1.328.925l5.734,3.31,13.737,7.932c1.239.715,2.342,1.169,3.752.4,1.281-.7,2.531-1.461,3.794-2.191L177.21,82.646l.612-.353C180.05,81.006,178.038,77.548,175.8,78.839Z"/><ellipse class="b" cx="155.898" cy="78.037" rx="6.311" ry="3.644"/><ellipse class="b" cx="142.618" cy="85.704" rx="6.311" ry="3.644"/><path class="e" d="M353.522,198.26l20.665-11.931a9.059,9.059,0,0,0,4.5-7.065c.769-8.8,2.472-28.109,3.8-42.519a9.119,9.119,0,0,0-4.526-8.739l-44.851-25.895S309.71,88.6,294.106,79.584a9.118,9.118,0,0,0-13.6,6.712c-.273,2.082-.551,4.215-.824,6.322l-1.5.905-41.87,24.167a9.161,9.161,0,0,0-4.576,7.932c0,6.885,0,13.125,0,17.161a8.166,8.166,0,0,0,4.091,7.068c33.037,19.068,63.07,36.4,96.22,55.546a9.1,9.1,0,0,0,9.1.009Z"/><path class="b" d="M277.188,122.664q30.159,17.418,60.321,34.834l16.883,9.744c2.233,1.289,4.25-2.166,2.019-3.454q-29.925-17.268-59.841-34.55L279.207,119.21c-2.234-1.29-4.25,2.165-2.019,3.454Z"/><path class="b" d="M267.424,122.247l-14.22,8.211c-1.96,1.131-3.964,2.209-5.888,3.4a4.6,4.6,0,0,0-2.255,5.056c.523,2.018,2.206,2.858,3.854,3.81L295.9,169.857q13.562,7.832,27.124,15.662c2.233,1.289,4.25-2.166,2.018-3.454q-24.549-14.172-49.094-28.349l-21.5-12.415-3.677-2.123c-.589-.34-2.449-.972-1.584-1.785a7.7,7.7,0,0,1,1.38-.8l3.3-1.907,15.567-8.988c2.228-1.287.217-4.745-2.019-3.454Z"/><path class="b" d="M277.172,91.8,255.266,104.44l-14.48,8.358c-2.659,1.535-6.11,3.007-8.175,5.349-3.738,4.24-2.877,9.957-2.877,15.2v7.246a14.765,14.765,0,0,0,1.045,6.661c1.133,2.38,3.111,3.8,5.328,5.074l7.9,4.56,15.744,9.086q31.142,17.975,62.278,35.954l8.143,4.7a12.164,12.164,0,0,0,7.713,1.9,16.558,16.558,0,0,0,6.319-2.579l5.6-3.234q12.284-7.094,24.569-14.185a12.42,12.42,0,0,0,4.931-4.637,14.539,14.539,0,0,0,1.509-6.064q.533-6.066,1.069-12.132.653-7.355,1.313-14.708.346-3.851.7-7.7c.219-2.406.609-4.861.638-7.276a11.3,11.3,0,0,0-5.6-9.764c-.789-.472-1.593-.92-2.389-1.38L364.3,117.806l-27.944-16.133Q324.446,94.8,312.536,87.918l-12.008-6.934c-3.621-2.092-7.31-4.936-11.713-4.6a11.237,11.237,0,0,0-9.55,6.889c-.962,2.341-1.024,5.028-1.347,7.515q-.529,4.077-1.047,8.158c-.5,3.976-1.019,7.954-1.438,11.941a2.013,2.013,0,0,0,2,2,2.045,2.045,0,0,0,2-2c.411-3.917.917-7.824,1.411-11.731q.515-4.073,1.045-8.143c.279-2.148.27-4.641,1.231-6.623a7.2,7.2,0,0,1,8.212-3.807c1.852.49,3.528,1.746,5.173,2.7l5.806,3.353,29.96,17.3,22.261,12.852c7.42,4.284,14.87,8.52,22.262,12.853a7.335,7.335,0,0,1,3.7,7.107c-.357,4.752-.869,9.5-1.3,14.245q-1.178,13.1-2.325,26.195a10.91,10.91,0,0,1-1.2,5c-1.107,1.816-2.966,2.69-4.743,3.716l-11.7,6.756-12.07,6.968-5.24,3.026c-1.9,1.095-3.653,2.133-5.937,1.948-2.628-.213-5.016-2.136-7.233-3.416l-7.672-4.431-15.1-8.719q-14.964-8.64-29.927-17.276l-30.234-17.451-7.688-4.437c-1.922-1.11-3.565-2.23-4.178-4.488-.5-1.85-.213-4.032-.213-5.933v-7.577c0-2.46-.4-5.269.406-7.633a7.225,7.225,0,0,1,3.194-3.828c.674-.4,1.361-.786,2.041-1.178l11.676-6.74,26.468-15.277,1.671-.965c2.229-1.287.217-4.744-2.018-3.454Z"/><path class="b" d="M365.519,146.322c-.328,3.4-.573,6.882-1.166,10.243a4.387,4.387,0,0,1-2.525,3.1l-8.9,5.141c-6.377,3.681-12.868,7.217-19.152,11.056a7.878,7.878,0,0,0-2.991,3.114c-1.054,2.089-.852,4.382-.852,6.652v9.216c0,2.574,4,2.578,4,0v-7.54c0-2.7-.809-6.353,1.885-8,2.291-1.4,4.661-2.691,6.988-4.035l21.118-12.191a8.35,8.35,0,0,0,4.144-4.836,36.947,36.947,0,0,0,.816-6.075c.227-1.948.451-3.9.639-5.848a2.014,2.014,0,0,0-2-2,2.045,2.045,0,0,0-2,2Z"/><path class="a" d="M236.829,223.324a1.563,1.563,0,0,0,1.582,0c5.8-3.351,40.418-23.359,49.923-28.851a1.573,1.573,0,0,0,.632-.688l.158.017v17.022l-1.123.649c-1.165.672-49.4,28.547-50.877,29.4l-73.511-42.45v-17.38Z"/><path class="b" d="M162.6,200.151q12.4,7.161,24.807,14.325L225.888,236.7l10.227,5.906a2.022,2.022,0,0,0,2.019,0q8.789-5.074,17.573-10.156L282.437,217q3.286-1.9,6.573-3.8c2.229-1.287.217-4.745-2.019-3.454q-8.676,5.008-17.348,10.025L242.85,235.255l-6.735,3.892h2.019Q225.3,231.74,212.475,224.33l-38.241-22.083-9.612-5.55c-2.233-1.29-4.25,2.166-2.019,3.454Z"/><path class="b" d="M287.124,193.8v29.066c0,2.574,4,2.578,4,0V193.8c0-2.574-4-2.579-4,0Z"/><path class="b" d="M160.613,181.044V210.11c0,2.574,4,2.579,4,0V181.044c0-2.574-4-2.578-4,0Z"/><path class="b" d="M234.857,223.324V252.39c0,2.574,4,2.578,4,0V223.324c0-2.574-4-2.578-4,0Z"/><path class="c" d="M163.285,180.854l73.544,42.47a1.563,1.563,0,0,0,1.582,0c5.8-3.351,40.418-23.359,49.923-28.851a1.593,1.593,0,0,0,0-2.763c-12.863-7.43-63.568-36.711-73.544-42.471a1.558,1.558,0,0,0-1.578,0L163.281,178.09A1.594,1.594,0,0,0,163.285,180.854Z"/><path class="b" d="M162.275,182.581l22.52,13.005,30.774,17.771,12.638,7.3c2.476,1.43,4.919,2.973,7.451,4.3,2.22,1.166,3.9.012,5.781-1.073l5.065-2.927,14.514-8.389,27.764-16.045a3.913,3.913,0,0,0,2.329-3.7c-.108-1.614-1.228-2.528-2.519-3.274l-4.468-2.581-12.747-7.362L239.56,161.232l-23.118-13.35a4.173,4.173,0,0,0-4.24-.37c-.5.248-.977.565-1.459.844l-4.723,2.728L191.9,159.242l-28.32,16.364a6.344,6.344,0,0,0-2.626,2.079,3.689,3.689,0,0,0,1.32,4.9c2.11,1.485,4.111-1.982,2.019-3.453.532.374-.352.866.363.477.367-.2.725-.419,1.087-.628l2.345-1.355,6-3.464,14.987-8.66,24.481-14.145a3.422,3.422,0,0,1,.6-.344c-.381.119-.116.1.227.3l1.672.965,4.4,2.539,12.225,7.059L263.2,179.506q11.775,6.8,23.549,13.6a1.6,1.6,0,0,0,.4.233c.315.051-.019.074-.024-.249-.006-.385.37-.344-.052-.206a3.168,3.168,0,0,0-.516.3l-2.193,1.268-5.77,3.335-14.848,8.581L238.48,220.973c-.224.129-.466.246-.679.393a2.218,2.218,0,0,1-.287.165c.01,0,.339.118.163-.028a8.94,8.94,0,0,0-1.222-.7l-3.561-2.057L222.079,212.5,192.89,195.641l-25.035-14.457-3.561-2.056C162.061,177.838,160.044,181.293,162.275,182.581Z"/><ellipse class="a" cx="251.403" cy="184.455" rx="16.346" ry="9.438"/><path class="b" d="M265.749,184.455c-.093,4.212-6.022,6.3-9.557,7-5.236,1.037-11.462.5-16.021-2.47a6.34,6.34,0,0,1-3.1-4.08,5.021,5.021,0,0,1,1.945-4.093c3.917-3.563,10.308-4.18,15.324-3.641a18.957,18.957,0,0,1,8.294,2.758c1.631,1.065,3.073,2.683,3.114,4.528.058,2.57,4.058,2.579,4,0-.138-6.231-6.789-9.634-12.111-10.776-6.539-1.4-14.563-.83-20.123,3.237a9.969,9.969,0,0,0-4.374,6.536,8.539,8.539,0,0,0,2.634,7.08c4.69,4.764,12.627,5.914,18.973,5.163,6.083-.72,14.837-3.861,15-11.24C269.807,181.88,265.807,181.881,265.749,184.455Z"/><path class="b" d="M265.749,184.455c-.073,5.329-4.43,9.276-9.268,10.734-5.408,1.629-11.9.63-16.064-3.366a10.371,10.371,0,0,1-3.36-7.368c-.036-2.572-4.036-2.579-4,0,.1,7.085,5.543,12.516,12.036,14.54,6.893,2.149,15.173.623,20.352-4.567a14.4,14.4,0,0,0,4.3-9.973c.036-2.575-3.964-2.576-4,0Z"/><path class="b" d="M255.309,188.4l6.156-4.795,3.03-2.36.781-.609.391-.3c-.14.108-.114.091.076-.053.221-.153.445-.294.674-.436q.323-.159.064-.043a2.81,2.81,0,0,1,.383-.1,2.017,2.017,0,0,0,1.4-2.461,2.042,2.042,0,0,0-2.46-1.4,9.211,9.211,0,0,0-3.451,2.044l-3.322,2.588-6.547,5.1a2,2,0,0,0,0,2.829,2.062,2.062,0,0,0,2.828,0Z"/><path class="b" d="M252.433,185.964l6.157-4.795,3.029-2.359.782-.609.391-.305c-.14.108-.115.091.075-.053.222-.153.446-.294.675-.436q.323-.159.064-.042a2.676,2.676,0,0,1,.383-.1,2.017,2.017,0,0,0,1.4-2.46,2.044,2.044,0,0,0-2.46-1.4,9.2,9.2,0,0,0-3.451,2.044l-3.323,2.588-6.547,5.1a2,2,0,0,0,0,2.828,2.061,2.061,0,0,0,2.828,0Z"/><path class="a" d="M181.015,177.4c-.208-4.949,0-9.5,0-14.473,0-2.344,3.291-4.244,7.351-4.244s7.351,1.9,7.351,4.244c0,4.985.277,9.544,0,14.506-.131,2.34-3.291,4.244-7.351,4.244s-7.252-1.9-7.351-4.244Z"/><path class="b" d="M193.719,162.929c-.011.363.02-.036.033-.1a1.615,1.615,0,0,0-.066.282c.017.24-.038.087.043-.066-.047.09-.091.179-.143.266s-.111.175-.172.258c.061-.084.258-.256,0-.034-.079.069-.169.161-.239.236-.242.261.107-.056-.074.075a6.249,6.249,0,0,1-2.853,1.162,9.167,9.167,0,0,1-6.315-.955c-.1-.066-.205-.135-.305-.207-.251-.182.2.192-.009-.018-.064-.063-.494-.5-.357-.337s-.144-.241-.191-.312c-.188-.283,0-.015.021.071-.039-.142-.079-.277-.112-.421.015.067.034.455.034.1,0-.162.079-.274-.034.1.053-.175.255-.607.023-.217.092-.153.172-.309.27-.459.154-.235-.222.23-.013.03.1-.094.2-.195.294-.3.231-.249.08-.085,0-.022.095-.075.2-.143.3-.21a7.08,7.08,0,0,1,.665-.384,6.254,6.254,0,0,1,1.407-.494,10.573,10.573,0,0,1,3.68-.23,9.784,9.784,0,0,1,1.731.381c.137.043.272.093.408.138l.2.075c-.126-.057-.128-.057,0,0a7.152,7.152,0,0,1,.778.414c.106.065.207.135.311.2.422.279-.182-.228.147.128.072.077.162.168.239.236.273.238-.07-.143.042.03.042.065.087.127.127.194.114.19.112.423.055.061a2.631,2.631,0,0,1,.082.279c.024.42-.018-.418,0,.044a2,2,0,1,0,4,0c-.1-3.3-3.273-5.244-6.18-5.891-3.251-.723-7.228-.443-10,1.571a5.642,5.642,0,0,0-2.434,3.5,4.926,4.926,0,0,0,1.385,4.26c2.295,2.446,6.3,3.091,9.478,2.705,3.367-.408,7.635-2.178,7.751-6.143a2,2,0,0,0-4,0Z"/><path class="b" d="M179.017,162.929c0,3.978-.143,7.956-.076,11.934.028,1.626-.1,3.347.7,4.822a6.93,6.93,0,0,0,3.1,2.764,13.339,13.339,0,0,0,9.921.549,8.591,8.591,0,0,0,3.709-2.34,6.446,6.446,0,0,0,1.4-4.333c.182-4.464-.047-8.931-.053-13.4,0-2.573-4-2.578-4,0,0,3.376.136,6.751.122,10.127q0,1.268-.043,2.535c-.011.368-.025.735-.042,1.1-.01.235,0,.5-.037.741.029-.2.021-.164-.015.014-.013.063-.126.355.008.047a2.572,2.572,0,0,1-.136.253c-.05.083-.1.168-.158.246.062-.084.188-.2-.076.066a3.5,3.5,0,0,1-1.046.766,9.207,9.207,0,0,1-7.169.314,5.528,5.528,0,0,1-1.31-.685,2.9,2.9,0,0,1-.62-.624,2.74,2.74,0,0,1-.184-.336c.015.034.115.256.038.042a1.256,1.256,0,0,1-.065-.269c.019.179.029.457.016-.206-.017-.854-.054-1.708-.066-2.563-.055-3.857.077-7.714.081-11.571,0-2.574-4-2.578-4,0Z"/><path class="c" d="M135.934,144.736l-29.828-17.221L80.867,142.087v22.875L110.7,182.183l25.239-14.572V144.736"/><path class="b" d="M136.943,143.01l-29.828-17.222a2.027,2.027,0,0,0-2.019,0L79.857,140.36c-2.229,1.287-.217,4.745,2.019,3.454l25.239-14.572H105.1l29.828,17.221c2.234,1.29,4.25-2.165,2.019-3.453Z"/><path class="a" d="M129.13,148.379c1.742-14.138-8.3-21.328-19.531-21.864-9.7-.129-20.343,3.5-21.989,17.745-1.149,9.944,4.847,19.745,20.313,20.852C116.477,165.724,127.592,160.866,129.13,148.379Z"/><path class="b" d="M131.13,148.379a21.507,21.507,0,0,0-2.9-14.275,20.881,20.881,0,0,0-10.545-8.045c-7.9-2.869-18.065-1.929-24.74,3.406-6.913,5.525-9.378,16.546-6.047,24.665,3.7,9.026,13.765,13.3,23.1,13.023a23.126,23.126,0,0,0,13.227-4.529,20.766,20.766,0,0,0,7.905-14.245,2.01,2.01,0,0,0-2-2,2.052,2.052,0,0,0-2,2c-1.048,7.967-7.421,13.638-15.259,14.638-7.382.942-16.5-1.79-20.388-8.541-3.562-6.194-2.358-15.394,2.542-20.582,4.784-5.067,13.017-6.307,19.585-4.851a18.18,18.18,0,0,1,10.479,6.113c2.977,3.758,3.579,8.59,3.041,13.223a2.012,2.012,0,0,0,2,2A2.047,2.047,0,0,0,131.13,148.379Z"/><path class="b" d="M133.934,144.736v22.875l.99-1.727-25.239,14.572H111.7L81.876,163.235l.991,1.727V142.087c0-2.574-4-2.578-4,0v22.875a2.012,2.012,0,0,0,.99,1.727l27.68,15.98c1.249.722,2.677,1.981,4.167,1.241.876-.435,1.713-.989,2.56-1.478l5.415-3.126,11.127-6.424,6.137-3.544a2.013,2.013,0,0,0,.991-1.727V144.736c0-2.573-4-2.578-4,0Z"/><path class="c" d="M71.582,153.381l9.361-11.249,2.547,1.47,27.128,15.662c-3.115,3.742-8.951,10.756-9.394,11.288l-27.016-15.6c-1.01-.583-1.905-1.1-2.66-1.533Z"/><path class="b" d="M73,154.795l9.361-11.249-2.424.313q14.844,8.556,29.675,17.132l-.4-3.141q-4.7,5.643-9.395,11.287l2.424-.312Q87.4,160.259,72.558,151.7l.4,3.141.033-.041c1.636-1.965-1.179-4.81-2.828-2.828l-.034.04a2.031,2.031,0,0,0,.405,3.141q14.856,8.532,29.675,17.131a2.025,2.025,0,0,0,2.424-.313q4.7-5.64,9.394-11.288a2.031,2.031,0,0,0-.405-3.141q-14.836-8.567-29.675-17.132a2.022,2.022,0,0,0-2.423.313l-9.361,11.249C68.532,153.932,71.347,156.777,73,154.795Z"/><path class="b" d="M108.608,159.682v21c0,2.574,4,2.578,4,0v-21c0-2.574-4-2.578-4,0Z"/><path class="a" d="M103.358,129.118a20.448,20.448,0,0,0-2.55-7.948.441.441,0,0,1,.577-.62,6.98,6.98,0,0,0,2.844.7,4.683,4.683,0,0,0,3.486-2.067.435.435,0,0,1,.674-.028,6.243,6.243,0,0,0,4.035,2.179,5.531,5.531,0,0,0,3.023-.85.442.442,0,0,1,.6.606,18.7,18.7,0,0,0-2.4,8.025"/><path class="b" d="M105.358,129.118a18.9,18.9,0,0,0-.783-4.136c-.228-.757-.5-1.5-.8-2.229-.2-.48-.4-.959-.629-1.427q-.114-.237-.234-.471c-.06-.117-.122-.233-.185-.349q-.178-.363.044.288L102.5,121.8l.094-.152-.718.717-.154.061h-1.063c.539.135,1.38.532,2.1.657a6.577,6.577,0,0,0,2.762.01,5.908,5.908,0,0,0,2.031-.994c.656-.483,1.122-1.115,1.729-1.628l-.882.514.181-.048h-1.063c-.3-.053-.54-.335-.137.053.115.11.233.215.355.317a11.587,11.587,0,0,0,1.08.817,7.588,7.588,0,0,0,2.306,1.02,6.563,6.563,0,0,0,2.72.069,6.02,6.02,0,0,0,1.133-.312c.246-.094.491-.2.73-.307q.192-.082.378-.18.389-.177-.3.023l-1.01-.273-.4-.4-.273-1.009.077-.416c-.072.13-.142.26-.21.392q-.133.26-.26.522c-.217.454-.415.918-.605,1.384a19.363,19.363,0,0,0-.8,2.364,21.5,21.5,0,0,0-.656,4.111,2,2,0,0,0,4,0c.015-.232.032-.463.056-.694.013-.126.026-.252.042-.378-.011.093-.057.345.014-.072.1-.6.218-1.2.37-1.784a16.173,16.173,0,0,1,1.427-3.695,2.74,2.74,0,0,0,.267-2.744,2.433,2.433,0,0,0-2.474-1.286,13.627,13.627,0,0,0-1.948.754,2.1,2.1,0,0,1-1.334.043,4.225,4.225,0,0,1-1.439-.725,16.2,16.2,0,0,0-1.391-1.22,2.444,2.444,0,0,0-2.865.392,10.781,10.781,0,0,1-1.14,1.149,3.05,3.05,0,0,1-.565.318c-.037.013-.477.112-.275.083.172-.024-.17-.006-.166-.006a6.272,6.272,0,0,1-1.827-.422,2.582,2.582,0,0,0-2.547.083,2.44,2.44,0,0,0-.975,2.788c.262.815.806,1.56,1.137,2.354.253.6.472,1.243.666,1.875.187.608.348,1.225.478,1.847.06.29.111.58.158.872-.067-.421.031.357.039.468a2.047,2.047,0,0,0,2,2,2.018,2.018,0,0,0,2-2Z"/><path class="b" d="M103.2,131.257a7.976,7.976,0,0,0,3.149.785c.916.112,1.834.221,2.754.308.891.085,1.785.149,2.681.176a2.78,2.78,0,0,0,2.174-.619,2.112,2.112,0,0,0-.021-2.988,2,2,0,0,0-2.828,2.828l.045.038-.586-1.414.007.064.273-1.01-.032.058.718-.717-.088.039,1.009-.273a25.371,25.371,0,0,1-4.082-.255c-.676-.072-1.35-.153-2.024-.235l-.486-.06c-.451-.054.368.083-.042-.009-.141-.032-.284-.054-.423-.093-.092-.026-.183-.055-.272-.089q.386.168.093.012a2,2,0,0,0-2.019,3.454Z"/><path class="d" d="M116.147,140.011l2.1,2.367a1.489,1.489,0,0,0,.643.413,2.06,2.06,0,0,0,2.185-.413,2.012,2.012,0,0,0,.586-1.415l-.072-.531a2,2,0,0,0-.514-.883l-2.1-2.366a2.056,2.056,0,0,0-2.829,0,2.009,2.009,0,0,0-.585,1.414l.071.532a2,2,0,0,0,.514.882Z"/><path class="c" d="M135.934,144.736l-25.284,14.6c3.027,3.629,8.7,10.441,8.7,10.441l.4.485c8.3-4.789,24-13.854,25.282-14.591l-9.1-10.933"/><path class="b" d="M134.924,143.01l-25.284,14.6a2.031,2.031,0,0,0-.405,3.141q4.556,5.46,9.1,10.926a2.015,2.015,0,0,0,2.424.313q12.639-7.3,25.281-14.591a2.031,2.031,0,0,0,.405-3.141l-9.1-10.933c-1.648-1.98-4.465.863-2.829,2.829l9.1,10.932.4-3.141q-12.655,7.267-25.281,14.591l2.424.313q-4.548-5.464-9.1-10.926l-.4,3.141,25.284-14.6c2.229-1.286.217-4.744-2.019-3.453Z"/><polygon class="a" points="105.211 179.595 189.193 228.082 189.193 284.524 105.211 236.037 105.211 179.595"/><path class="b" d="M106.074,182.4l8.132,4.7,19.516,11.268,23.589,13.619,20.344,11.745c3.247,1.875,6.447,3.919,9.777,5.645a2.609,2.609,0,0,1,.388.274l-.718-.718s.139-.238.091.024a2.9,2.9,0,0,0,0,.5v52.367a1.621,1.621,0,0,0,0,.44c.008.024-.011.061,0,.083.173.365,1.353-.31,1.133-.633-.072-.106-.322-.174-.425-.246-2.413-1.666-5.166-2.982-7.7-4.447l-14.68-8.475L129.068,247.5c-7.3-4.214-14.734-8.259-21.924-12.658a5.732,5.732,0,0,1-.56-.373l.717.718c.007.009-.124.173-.09-.21.03-.346,0-.709,0-1.056v-50.4c0-.435.042-.9,0-1.328a1.732,1.732,0,0,0,0-.322c-.008-.025.01-.062,0-.086,0-.005,0-.013,0-.018v-.005q0-.655-1.137.644a2.069,2.069,0,0,0,2.737-.717,2.015,2.015,0,0,0-.718-2.737c-2.326-.994-4.739.2-4.882,2.864-.02.361,0,.728,0,1.089v51.347c0,1.566.164,2.947,1.683,3.915,2.1,1.34,4.34,2.505,6.5,3.751l14.4,8.314,37.216,21.486c7.652,4.418,15.23,9.009,22.974,13.264,2.3,1.262,5.079.179,5.212-2.673.055-1.178,0-2.371,0-3.55V239.625c0-3.583.179-7.218,0-10.8-.138-2.756-3.677-4.024-5.743-5.217L172.609,216.2l-36.868-21.286-26.3-15.187-1.344-.776C105.86,177.66,103.843,181.115,106.074,182.4Z"/><path class="a" d="M223.1,161.16c-1.13-.808-2.471-2.061-3.538-1.807-.591.141-.948.716-1.363,1.159-1.233,1.313-3.19,1.564-4.98,1.769a2.9,2.9,0,0,0-2.942,1.923l-.98,1.9a5.355,5.355,0,0,0-.625,1.635c-.31,2.133,1.929,3.877,3.339,5.134.281,1.111.295,1.685.577,2.8a.583.583,0,0,0,.642.578,63.965,63.965,0,0,0,8.347-.535,1.3,1.3,0,0,0,.95-.718c1.124-2.313,2.586-3.915,3.769-6.145a1.525,1.525,0,0,0,.134-1.065A27.9,27.9,0,0,0,223.1,161.16Z"/><path class="b" d="M224.106,159.433a10.085,10.085,0,0,0-3.391-2.006,3.7,3.7,0,0,0-3.759,1.475c-1.668,1.854-4.569.941-6.586,2.149a7.247,7.247,0,0,0-2.384,3.231,7.953,7.953,0,0,0-1.331,4.156c.19,2.544,2.154,4.272,3.938,5.852l-.514-.883c.315,1.307.288,3.09,1.286,4.1a3.641,3.641,0,0,0,2.845.752c2.114-.038,4.242-.153,6.343-.4,1.525-.179,2.839-.419,3.7-1.85.749-1.25,1.456-2.5,2.271-3.709.829-1.234,1.984-2.681,1.945-4.238a8.975,8.975,0,0,0-1.064-3.277c-.465-1.027-.986-2.03-1.54-3.011a7.718,7.718,0,0,0-1.352-2.025,2.049,2.049,0,0,0-2.828,0,2.017,2.017,0,0,0,0,2.828c.244.212-.265-.476-.116-.166a2.734,2.734,0,0,0,.183.275c.2.308.384.626.567.944q.727,1.27,1.361,2.594c.123.255.241.512.356.77.2.437-.045-.135.105.25a3.548,3.548,0,0,1,.359,1.078c-.005-.607-.292.173-.387.333-.153.258-.313.513-.475.766-.395.618-.814,1.22-1.221,1.83-.386.578-.763,1.163-1.106,1.769-.176.31-.309.681-.512.97.308-.436.292-.045-.012-.16-.141.02-.118.018.068-.008-.133.017-.267.033-.4.048-.25.029-.5.054-.751.078-.537.051-1.075.093-1.614.131q-1.545.107-3.093.158c-.381.012-.762.023-1.143.025-.132,0-.267.01-.4,0-.17-.013-.276-.11-.078-.033l.882.515q.4.768.18.082l-.065-.293c-.063-.3-.115-.609-.17-.914a4.373,4.373,0,0,0-.623-1.951c-.62-.809-1.559-1.379-2.231-2.158a3.6,3.6,0,0,1-.644-.982,1.35,1.35,0,0,1-.049-.537,5.844,5.844,0,0,1,.646-1.414c.293-.569.571-1.148.884-1.706.208-.371.183-.4.608-.5.576-.139,1.184-.17,1.769-.252a10.853,10.853,0,0,0,3.362-.95,6.389,6.389,0,0,0,1.5-1.046c.2-.182.36-.39.539-.588a4.671,4.671,0,0,1,.36-.384l-.229.139c-1-.01-.258.038-.25.045a6.854,6.854,0,0,0,.684.407c.539.359,1.041.772,1.564,1.153a2.014,2.014,0,0,0,2.736-.718A2.046,2.046,0,0,0,224.106,159.433Z"/><path class="b" d="M218.687,171.766l1.633-2.44a1.486,1.486,0,0,0,.237-.743,2.053,2.053,0,0,0-.954-1.993,2.025,2.025,0,0,0-1.542-.2l-.477.2a2.008,2.008,0,0,0-.718.718l-1.633,2.439a1.48,1.48,0,0,0-.238.744,1.523,1.523,0,0,0,.036.8,2.238,2.238,0,0,0,.919,1.195,2.013,2.013,0,0,0,1.541.2l.478-.2a2.006,2.006,0,0,0,.718-.717Z"/><path class="a" d="M85.815,203.481c-1.13-.809-2.471-2.062-3.538-1.807-.591.14-.948.716-1.363,1.158-1.233,1.314-3.19,1.565-4.98,1.77a3.833,3.833,0,0,0-2.056.655,3.883,3.883,0,0,0-.886,1.267l-.98,1.9a5.361,5.361,0,0,0-.625,1.636c-.31,2.132,1.929,3.877,3.339,5.133.281,1.111.3,1.686.577,2.8a.583.583,0,0,0,.642.579,64.324,64.324,0,0,0,8.347-.535,1.294,1.294,0,0,0,.95-.719c1.124-2.313,2.586-3.915,3.769-6.144a1.526,1.526,0,0,0,.134-1.065A27.859,27.859,0,0,0,85.815,203.481Z"/><path class="b" d="M86.825,201.754a10.085,10.085,0,0,0-3.391-2.006,3.7,3.7,0,0,0-3.759,1.474c-1.668,1.855-4.569.941-6.586,2.15a7.249,7.249,0,0,0-2.384,3.23,7.953,7.953,0,0,0-1.331,4.157c.19,2.544,2.154,4.272,3.938,5.852l-.514-.883c.315,1.307.288,3.09,1.286,4.095a3.637,3.637,0,0,0,2.845.752c2.114-.037,4.242-.153,6.343-.4,1.525-.179,2.839-.418,3.7-1.849.749-1.25,1.456-2.5,2.271-3.709.829-1.234,1.984-2.681,1.945-4.239a8.97,8.97,0,0,0-1.064-3.276c-.465-1.027-.986-2.03-1.54-3.012a7.751,7.751,0,0,0-1.352-2.025,2.051,2.051,0,0,0-2.828,0,2.018,2.018,0,0,0,0,2.829c.244.212-.265-.477-.116-.166a2.853,2.853,0,0,0,.183.275c.2.308.384.626.567.944q.727,1.27,1.361,2.593c.123.255.241.512.356.771.2.436-.045-.135.105.249a3.548,3.548,0,0,1,.359,1.078c0-.606-.292.173-.387.334-.153.258-.313.513-.475.766-.395.617-.814,1.219-1.221,1.829-.386.579-.763,1.164-1.106,1.77-.176.309-.309.681-.512.97.307-.437.292-.046-.012-.161-.141.021-.118.018.068-.007-.133.017-.267.033-.4.048-.25.029-.5.054-.751.078-.537.051-1.075.093-1.614.13q-1.545.108-3.093.159c-.381.012-.762.023-1.143.025-.132,0-.267.009-.4,0-.17-.014-.276-.111-.078-.033l.882.514q.4.769.18.082l-.065-.292c-.063-.3-.115-.609-.17-.914a4.373,4.373,0,0,0-.623-1.951c-.621-.81-1.559-1.379-2.231-2.159a3.572,3.572,0,0,1-.644-.982,1.345,1.345,0,0,1-.049-.536,5.851,5.851,0,0,1,.646-1.415c.293-.568.571-1.147.884-1.705.208-.372.183-.4.608-.5.576-.139,1.184-.169,1.769-.251a10.853,10.853,0,0,0,3.362-.95,6.419,6.419,0,0,0,1.5-1.046c.2-.182.36-.39.539-.588a4.5,4.5,0,0,1,.36-.384l-.229.138c-1-.01-.258.039-.25.045a6.675,6.675,0,0,0,.684.408c.539.358,1.041.771,1.564,1.153a2.014,2.014,0,0,0,2.736-.718A2.045,2.045,0,0,0,86.825,201.754Z"/><path class="b" d="M81.405,214.087l1.634-2.44a1.486,1.486,0,0,0,.237-.743,2.053,2.053,0,0,0-.954-1.993,2.02,2.02,0,0,0-1.542-.2l-.477.2a2.014,2.014,0,0,0-.718.717l-1.633,2.44a1.477,1.477,0,0,0-.238.743,1.526,1.526,0,0,0,.036.8,2.238,2.238,0,0,0,.919,1.195,2.022,2.022,0,0,0,1.541.2l.478-.2a2,2,0,0,0,.717-.717Z"/><path class="b" d="M294.327,98.962l18.512,10.688L314.38,106l-20.891-6.62-3-.949c-2.177-.69-3.49,2.53-1.541,3.655l18.511,10.688L309,109.114l-15.893-3.775c-2.167-.514-3.555,2.493-1.542,3.656l10.746,6.2c2.233,1.29,4.249-2.165,2.018-3.454l-10.745-6.2-1.541,3.655,15.894,3.775c2.166.514,3.554-2.493,1.541-3.656L290.97,98.627l-1.542,3.656,20.891,6.619,3,.95c2.176.69,3.489-2.53,1.541-3.656L296.346,95.509c-2.233-1.29-4.25,2.165-2.019,3.453Z"/><path class="b" d="M323.471,168.478l9.651,5.572a2.033,2.033,0,0,0,2.424-.312,2.093,2.093,0,0,0,.313-2.424l-1.17-2.378a2.455,2.455,0,0,0-1.491-1.519c-.148-.051-.3-.095-.447-.142l-5.831-1.847-1.908-.6a2.018,2.018,0,0,0-2.461,1.4,2.044,2.044,0,0,0,1.4,2.46l7.171,2.272,1.016.322-1.195-.919,1.465,2.978,2.736-2.736-9.652-5.572a2,2,0,1,0-2.018,3.453Z"/><path class="b" d="M345.419,170.308l-14.553-8.4a2.016,2.016,0,0,0-2.736,2.736l1.784,3.627c.311.634.6,1.285.938,1.907a2.441,2.441,0,0,0,1.488,1.163c2.956.979,5.939,1.882,8.907,2.822.467.148.933.32,1.406.446,1.075.285,1.893-.342,2.766-.845a2,2,0,0,0-2.019-3.454l-1.153.666,1.541-.2-10.59-3.355,1.2.919-2.81-5.713-2.737,2.737,14.553,8.4a2,2,0,0,0,2.019-3.454Z"/><path class="b" d="M335.38,179.59c.61-.426,1.279-.771,1.923-1.143a2.047,2.047,0,0,0,.718-2.737c-.157-.318-.293-.661-.475-.965a2.183,2.183,0,0,0-1.37-.979c-.579-.15-1.165-.277-1.747-.415l-5.422-1.288-1.378-.327a2,2,0,0,0-1.541,3.656l7.273,4.2a2,2,0,0,0,2.019-3.454l-7.273-4.2-1.541,3.655,7.622,1.81,1.089.259-1.195-.919.485.986.718-2.736c-.645.372-1.314.717-1.924,1.143a2,2,0,1,0,2.019,3.454Z"/><path class="b" d="M338.373,177.829l1.656-.956a2.019,2.019,0,0,0,0-3.454q-2.444-1.412-4.888-2.822a2.033,2.033,0,0,0-2.424.312,2.4,2.4,0,0,0-.514.883,2.092,2.092,0,0,0,.2,1.541l1,2.031.577,1.173c.033.068.064.138.1.2a2.105,2.105,0,0,0,1.438.978l1.311.311a2.1,2.1,0,0,0,1.542-.2,2,2,0,0,0-.478-3.655l-1.554-.369,1.195.919-1.677-3.41-2.737,2.736,4.889,2.823v-3.454l-1.657.957a2,2,0,0,0-.718,2.736A2.038,2.038,0,0,0,338.373,177.829Z"/><path class="a" d="M240.549,258.723a2.718,2.718,0,0,0-1.77-.114,43.611,43.611,0,0,1-9.585,1.755c-2.786,0-9.077-.154-14.644-.155q-1.851,1.442-3.705,2.882c-.056,1.139.011,4.13.011,5.748,1.464.944,3.771,2.514,4.419,2.976h26.2c.572,0,.917-.206.917-.636v-9.246a4.584,4.584,0,0,0-.3-1.718A2.776,2.776,0,0,0,240.549,258.723Z"/><path class="a" d="M209.144,261.894h-3.071a2.154,2.154,0,0,0-2.155,2.154v3.943a1.955,1.955,0,0,0,2.155,2.154h3.071a1.969,1.969,0,0,0,2.154-2.154v-3.943A2.154,2.154,0,0,0,209.144,261.894Z"/><path class="b" d="M241.081,256.794c-1.507-.506-2.823-.1-4.295.269s-2.932.716-4.418.978a37.378,37.378,0,0,1-7.095.281c-3.131-.046-6.262-.1-9.393-.11a3.914,3.914,0,0,0-2.744.583q-.929.719-1.852,1.441a17.06,17.06,0,0,0-1.853,1.441,2.857,2.857,0,0,0-.605,2.123c-.018,1.264.01,2.529.022,3.792a7.334,7.334,0,0,0,.079,1.779c.244.883,1.055,1.279,1.76,1.744q1.558,1.026,3.094,2.089c1.3.9,2.939.611,4.46.611H239.99c1.753,0,3.865.049,4.328-2.1a24.166,24.166,0,0,0,.072-4.851c0-3.364.855-8.1-2.831-9.864-2.311-1.106-4.343,2.341-2.019,3.454.89.426.844,1.07.85,1.974.007,1.06,0,2.121,0,3.181v4.031c0,.261-.193,1.41.115.943l.717-.717q.621-.092-.243-.047h-25.7l1.009.273c-1.448-1.026-2.929-2.011-4.419-2.976l.991,1.727c0-1.914-.088-3.834-.011-5.748l-.586,1.415,3.705-2.883-1.414.586c4.5,0,9.008.109,13.512.149a29.77,29.77,0,0,0,5.773-.534c1.087-.2,2.165-.447,3.238-.709.912-.223,2.022-.773,2.944-.464C242.463,261.472,243.513,257.611,241.081,256.794Z"/><path class="b" d="M209.144,259.894h-2.528a6.72,6.72,0,0,0-1.522.118,4.154,4.154,0,0,0-2.626,1.97,6.527,6.527,0,0,0-.55,3.391c0,.866-.01,1.732,0,2.6a4.422,4.422,0,0,0,.98,2.835,3.688,3.688,0,0,0,2.256,1.245,20.24,20.24,0,0,0,3.056.094c.311,0,.622,0,.932,0a4.372,4.372,0,0,0,2.873-1.035,4.632,4.632,0,0,0,1.283-3.735v-3.157a4.234,4.234,0,0,0-4.154-4.324,2.016,2.016,0,0,0-2,2,2.039,2.039,0,0,0,2,2,1.41,1.41,0,0,0,.227.011c-.331.063-.412-.063-.151.005.077.02.327.1.015-.006-.328-.114-.021.012.048.048.193.1-.019.135-.147-.122a1.053,1.053,0,0,0,.154.147c.226.194-.1-.1-.109-.157a2.141,2.141,0,0,0,.165.276c-.209-.165-.131-.4-.079-.176a1.1,1.1,0,0,0,.056.212c-.137-.171-.038-.471-.026-.141v.063c0,.081,0,.161,0,.242v2.561c0,.338,0,.676,0,1.014,0,.081,0,.163,0,.245a1.674,1.674,0,0,0-.017.237c-.054-.409.073-.383.014-.206-.026.079-.154.374.007.05s.011-.056-.023.02c-.138.308.293-.3.129-.149a1.318,1.318,0,0,0-.121.127c-.143.179.456-.285.166-.124-.05.027-.1.058-.15.088-.15.093-.224-.012.235-.094-.055.01-.117.04-.172.055s-.12.027-.179.043c-.336.091.512-.02.155-.023-.268,0-.537,0-.805,0-.8,0-1.6.007-2.405,0-.019,0-.038,0-.057,0-.065,0-.131-.006-.2,0-.332,0,.272.022.247.041-.056.042-.344-.088-.4-.1-.225-.035.418.229.232.1a1.694,1.694,0,0,0-.226-.13c-.2-.095.329.33.2.151-.019-.027-.16-.131-.15-.159.017-.051.283.48.158.182a1.376,1.376,0,0,0-.087-.167c.273.391.129.365.1.2a1.045,1.045,0,0,0-.05-.208c.153.239.04.435.023.127,0-.065,0-.124-.006-.19-.018-1.329-.045-2.671,0-4,.012-.33.111-.03-.026.141a.87.87,0,0,0,.074-.264c.048-.233-.26.433-.046.133.045-.063.229-.341.023-.063s.013.014.057-.036c.211-.24-.307.154-.113.08a.921.921,0,0,0,.232-.136c-.055.086-.474.154-.124.064.261-.068.18.058-.151-.005a1.441,1.441,0,0,0,.229-.011c.027,0,.054,0,.082,0,.164,0,.328,0,.492,0h2.5a2,2,0,0,0,0-4Z"/><path class="f" d="M276.449,220.2,299.4,233.448l21.3-12.3v14.239l-21.3,12.3-25.169-14.531V218.916Z"/><path class="e" d="M274.235,218.916l21.3-12.295L320.7,221.152l-21.3,12.3L276.449,220.2Z"/><path class="b" d="M276.235,232.253v-5.1c0-2.258.165-4.586,0-6.838-.006-.081.057-.427,0-.488.265.286-.482.321-.081.295.374-.024,1.031-.595,1.349-.779l5.7-3.293,11.859-6.846c.119-.07.435-.178.507-.294.21-.335.238.466-.23-.085a2.918,2.918,0,0,0,.706.408l4.529,2.615,13.458,7.77,4.32,2.494c.087.05.329.253.431.248.025,0,.078.068.1.059.127-.046-.51-.026-.188-.36-.175.181,0,1.386,0,1.624v7.586c0,.914-.079,1.868,0,2.78.007.085-.054.37,0,.437-.029-.035.256-.339.2-.36-.028-.011-.106.077-.136.078-.362.016-1.018.588-1.329.768l-2.577,1.487-6.756,3.9L301.794,244l-1.912,1.1c-.116.067-.436.179-.507.293a.436.436,0,0,1-.121.07c.153-.063.6.294.011-.167a21.285,21.285,0,0,0-2.487-1.436l-2.921-1.686-5.869-3.388-9.475-5.471-1.434-.828-.614-.354a.981.981,0,0,0-.264-.153c-.346-.055-.039-.427.034.273a2.058,2.058,0,0,0-2-2,2.013,2.013,0,0,0-2,2c.217,2.06,1.45,2.894,3.083,3.837l3.993,2.305,11.484,6.631,5.963,3.442c1.553.9,2.924,1.283,4.6.4,1.432-.754,2.814-1.625,4.215-2.434l13.632-7.871c1.7-.984,3.369-1.8,3.5-4.092.114-2.012,0-4.063,0-6.078,0-2.088.093-4.2,0-6.285-.094-2.119-1.5-2.978-3.084-3.894l-13.04-7.528c-3.1-1.79-6.158-3.819-9.375-5.392-2.086-1.019-3.763.223-5.492,1.222l-6.458,3.728c-3.717,2.146-7.588,4.14-11.2,6.465-2.107,1.357-1.82,3.537-1.82,5.688v9.854C272.235,234.827,276.235,234.831,276.235,232.253Z"/><path class="b" d="M273.226,220.643l24.31,14.036c1.238.714,2.05.974,3.34.229L303,233.679,307.636,231l9.124-5.267,4.95-2.858c2.229-1.287.217-4.745-2.018-3.454l-21.3,12.3h2.019l-25.169-14.532c-2.234-1.289-4.25,2.166-2.019,3.454Z"/><path class="b" d="M273.226,227.644l24.31,14.035c1.238.715,2.05.974,3.34.229L303,240.68l4.632-2.675,9.124-5.267,4.95-2.859c2.229-1.286.217-4.744-2.018-3.454l-21.3,12.3h2.019L275.245,224.19c-2.234-1.29-4.25,2.166-2.019,3.454Z"/><path class="b" d="M307.553,210.316l-21.3,12.295c-2.228,1.287-.216,4.745,2.019,3.454l21.3-12.3c2.229-1.286.217-4.744-2.019-3.453Z"/><path class="b" d="M284.82,224.755v17.537c0,2.574,4,2.579,4,0V224.755c0-2.574-4-2.579-4,0Z"/><path class="b" d="M283.508,212.662l25.259,14.584c2.233,1.289,4.25-2.166,2.019-3.454l-25.259-14.583c-2.234-1.29-4.25,2.165-2.019,3.453Z"/><path class="b" d="M308.292,226.519v16.746c0,2.574,4,2.578,4,0V226.519c0-2.574-4-2.578-4,0Z"/><path class="b" d="M276.6,18.2c2.782,1.243,1.861,4.655-.474,5.837a6.537,6.537,0,0,1-8.11-2.444,12,12,0,0,1-.721-10.071,11.152,11.152,0,0,1,7.216-6.77,15.189,15.189,0,0,1,17.483,5.988,20.009,20.009,0,0,1,2.848,10.281,22.216,22.216,0,0,1-1.72,10.35c-3.559,7.56-11.239,13.106-19.029,15.659-2.435.8-1.393,4.662,1.063,3.857,8.654-2.835,17.308-8.938,21.338-17.323A26.816,26.816,0,0,0,298.8,20.185a22.949,22.949,0,0,0-4.272-12.776,19.286,19.286,0,0,0-23.88-5.339,14.933,14.933,0,0,0-7.839,10.781c-.736,4.3.033,9.338,3.152,12.6,3.483,3.636,9.824,4.288,13.713.98,3.619-3.078,3.655-9.575-1.058-11.68a2.063,2.063,0,0,0-2.737.718A2.015,2.015,0,0,0,276.6,18.2Z"/><path class="b" d="M357.233,62.606V89.271c0,2.574,4,2.578,4,0V62.606c0-2.574-4-2.578-4,0Z"/><path class="b" d="M372.034,62.606V96.328c0,2.574,4,2.578,4,0V62.606c0-2.574-4-2.578-4,0Z"/><path class="b" d="M386.836,62.606v43.483c0,2.573,4,2.578,4,0V62.606c0-2.574-4-2.578-4,0Z"/><path class="b" d="M69.548,62.606V89.271c0,2.574,4,2.578,4,0V62.606c0-2.574-4-2.578-4,0Z"/><path class="b" d="M54.747,62.606V96c0,2.574,4,2.578,4,0V62.606c0-2.574-4-2.578-4,0Z"/><path class="b" d="M39.945,62.606v43.028c0,2.574,4,2.578,4,0V62.606c0-2.574-4-2.578-4,0Z"/></svg>