<?xml version="1.0" encoding="utf-8"?>
<!-- Uploaded to: SVG Repo, www.svgrepo.com, Generator: SVG Repo Mixer Tools -->
<svg width="800px" height="800px" viewBox="0 -66.92 378.979 378.979" xmlns="http://www.w3.org/2000/svg"><defs><style>.a{fill:#ffffff;}.b{fill:#febe69;}.c{fill:#211715;}.d{fill:#82cc7c;}.e{fill:#74c66d;}</style></defs><path class="a" d="M2,243.121H376.979V2.07H2V243.121"/><path class="a" d="M2,243.121H376.979V2.07H2V243.121"/><path class="b" d="M83.013,88.555H75.267V78.461H189.489q0,4.989,0,10.094H83.013Z"/><path class="a" d="M303.714,186.161v-.928H189.486c0,6.1,0,11.516,0,12.424H303.712Q303.712,191.813,303.714,186.161Z"/><path class="b" d="M253.345,138.682v14.005H214.2V138.682Z"/><path class="b" d="M253.345,75.333V89.325H214.2V75.333Z"/><path class="c" d="M253.345,73.335H214.2c-2.574,0-2.578,4,0,4h39.148c2.574,0,2.578-4,0-4Z"/><path class="c" d="M242.823,136.687H214.2c-2.574,0-2.578,4,0,4h28.626c2.574,0,2.578-4,0-4Z"/><path class="c" d="M253.345,87.331H214.2c-2.574,0-2.578,4,0,4h39.148c2.574,0,2.578-4,0-4Z"/><path class="c" d="M212.2,75.335v77.348c0,2.574,4,2.578,4,0V75.335c0-2.574-4-2.578-4,0Z"/><path class="c" d="M251.345,75.335v54.731c0,2.574,4,2.579,4,0V75.335c0-2.574-4-2.578-4,0Z"/><path class="c" d="M247.95,152.683v7.186a2,2,0,0,0,4,0v-7.186a2,2,0,0,0-4,0Z"/><path class="c" d="M215.557,152.683v7.186a2,2,0,0,0,4,0v-7.186a2,2,0,0,0-4,0Z"/><path class="c" d="M255.345,150.687H212.2c-2.574,0-2.578,4,0,4h43.147c2.574,0,2.578-4,0-4Z"/><path class="c" d="M75.466,90.555H188.825c2.574,0,2.578-4,0-4H75.466c-2.573,0-2.578,4,0,4Z"/><path class="c" d="M73.267,50.968V197.657c0,2.574,4,2.578,4,0V50.968c0-2.574-4-2.578-4,0Z"/><path class="d" d="M303.622,243.115c22.383,0,45.758-.009,73.357-.018-13.478-8.323-52.16-32.271-73.368-45.443-24.612,0-103.821,0-114.121,0H75.358c-20.968,13.027-59.942,37.156-73.4,45.465H189.49C234,243.121,267.523,243.121,303.622,243.115Z"/><path class="c" d="M75.267,199.657H303.712c2.574,0,2.578-4,0-4H75.267c-2.573,0-2.578,4,0,4Z"/><path class="c" d="M75.466,80.461H179.407c2.573,0,2.578-4,0-4H75.466c-2.573,0-2.578,4,0,4Z"/><path class="c" d="M75.267,52.968H303.712c2.574,0,2.578-4,0-4H75.267c-2.573,0-2.578,4,0,4Z"/><path class="c" d="M301.712,50.968V197.657c0,2.574,4,2.578,4,0V50.968c0-2.574-4-2.578-4,0Z"/><path class="c" d="M303.712,218.614H75.267c-2.573,0-2.578,4,0,4H303.712c2.574,0,2.578-4,0-4Z"/><path class="c" d="M2,245.121H376.979a2.029,2.029,0,0,0,2-2V2.07a2.029,2.029,0,0,0-2-2H2a2.029,2.029,0,0,0-2,2V243.121c0,2.573,4,2.578,4,0V2.07l-2,2H376.979l-2-2V243.121l2-2H2c-2.574,0-2.578,4,0,4Z"/><path class="c" d="M.955,3.8q12.606,8.455,25.262,16.839Q42.54,31.492,58.862,42.346q7.812,5.2,15.618,10.411c2.147,1.434,4.151-2.029,2.019-3.454Q61.628,39.367,46.727,29.477,31.03,19.04,15.336,8.6,9.15,4.477,2.974.343C.83-1.095-1.175,2.369.955,3.8Z"/><path class="c" d="M3.009,244.824q12.377-7.642,24.742-15.3Q44.077,219.414,60.4,209.3q7.989-4.953,15.974-9.912c2.182-1.355.176-4.817-2.019-3.454q-15.024,9.332-30.06,18.642-15.58,9.653-31.167,19.3-6.067,3.753-12.135,7.5c-2.187,1.35-.18,4.812,2.018,3.454Z"/><path class="c" d="M376.006.343q-12.663,8.493-25.374,16.913-16.478,10.959-32.955,21.917-7.88,5.244-15.752,10.5c-2.13,1.423-.13,4.889,2.019,3.454q14.94-9.983,29.913-19.92,15.85-10.541,31.7-21.084,6.24-4.156,12.47-8.326c2.127-1.427.127-4.893-2.019-3.454Z"/><path class="c" d="M377.989,241.37q-12.495-7.714-24.977-15.449-16.4-10.152-32.791-20.314-8.052-4.992-16.1-9.991c-2.193-1.362-4.2,2.1-2.019,3.454q15.162,9.417,30.336,18.813,15.648,9.694,31.3,19.378,6.115,3.783,12.234,7.563c2.2,1.357,4.207-2.1,2.019-3.454Z"/><path class="c" d="M187.49,50.968V197.8c0,2.573,4,2.578,4,0V50.968c0-2.574-4-2.578-4,0Z"/><path class="c" d="M187.49,207.245v13.37a2,2,0,0,0,4,0v-13.37a2,2,0,0,0-4,0Z"/><path class="c" d="M130.379,89.19V197.654c0,2.574,4,2.578,4,0V89.19c0-2.573-4-2.578-4,0Z"/><path class="c" d="M101.559,235.349q4.651-5.577,9.284-11.168.892-1.076,1.783-2.153a2.056,2.056,0,0,0,0-2.828,2.014,2.014,0,0,0-2.828,0c-3.058,3.713-6.143,7.4-9.22,11.1q-.924,1.11-1.848,2.219a2.057,2.057,0,0,0,0,2.829,2.017,2.017,0,0,0,2.829,0Z"/><path class="c" d="M280.2,232.528c-3.113-3.729-6.264-7.427-9.389-11.147-.61-.725-1.221-1.45-1.824-2.181a2.014,2.014,0,0,0-2.828,0,2.045,2.045,0,0,0,0,2.828c3.069,3.725,6.214,7.39,9.324,11.082.63.748,1.262,1.5,1.889,2.247a2.015,2.015,0,0,0,2.828,0,2.045,2.045,0,0,0,0-2.829Z"/><path class="b" d="M158.676,37.95c-.717-2.12-1.454-4.4-2-5.988V18.531h66.329V31.962c-.8,2.335-2.021,6.181-2.974,8.8-2.218,0-31.318,0-60.374.006C159.35,39.924,159.015,38.955,158.676,37.95Z"/><path class="a" d="M158.637,37.835c-.732-2.168-1.481-4.489-2.021-6.043h66.452c-.8,2.308-2.059,6.284-3.036,8.966-2.218,0-31.318,0-60.374.006-.308-.84-.643-1.809-.982-2.814Z"/><path class="c" d="M160.6,37.418c-.471-1.4-.932-2.8-1.4-4.2a9.549,9.549,0,0,1-.53-1.752,22.087,22.087,0,0,1,0-2.735v-10.2l-2,2h66.329l-2-2c0,4.221.137,8.467,0,12.685a16.864,16.864,0,0,1-1.3,4.318c-.52,1.569-1.044,3.138-1.606,4.693l1.928-1.469q-20.739,0-41.477,0l-18.9,0,1.929,1.469c-.339-.935-.664-1.874-.983-2.815-.822-2.425-4.687-1.384-3.857,1.063.319.942.644,1.881.983,2.815a2.068,2.068,0,0,0,1.928,1.468q27.647,0,55.293-.006h5.081a2.062,2.062,0,0,0,1.929-1.468c.562-1.555,1.086-3.123,1.606-4.693.507-1.528,1.368-3.271,1.439-4.884.194-4.374,0-8.8,0-13.182a2.029,2.029,0,0,0-2-2H156.677a2.03,2.03,0,0,0-2,2v10.7c0,.826-.036,1.662,0,2.487a7.869,7.869,0,0,0,.544,2.181c.51,1.529,1.011,3.06,1.526,4.587C157.565,40.908,161.429,39.867,160.6,37.418Z"/><path class="c" d="M170.114,19.733v9.915h4V29.3a2,2,0,1,0-4,0v.346a2,2,0,0,0,4,0V19.733a2,2,0,0,0-4,0Z"/><path class="c" d="M186.974,19.733v9.915h4V29.3a2,2,0,1,0-4,0v.346a2,2,0,0,0,4,0V19.733a2,2,0,0,0-4,0Z"/><path class="c" d="M203.834,19.733v9.915a2,2,0,0,0,4,0V29.3a2,2,0,1,0-4,0v.346a2,2,0,0,0,4,0V19.733a2,2,0,0,0-4,0Z"/><path class="a" d="M156.677,31.792h66.329"/><path class="c" d="M156.677,33.792h66.329c2.574,0,2.578-4,0-4H156.677c-2.574,0-2.578,4,0,4Z"/><path class="c" d="M198.9,37.482V87.733c0,2.574,4,2.578,4,0V37.482c0-2.573-4-2.578-4,0Z"/><path class="c" d="M198.9,93.661v2.947a2.06,2.06,0,0,0,.586,1.414,2,2,0,0,0,2.828,0,2.074,2.074,0,0,0,.586-1.414V93.661a2.062,2.062,0,0,0-.586-1.414,2,2,0,0,0-2.828,0,2.078,2.078,0,0,0-.586,1.414Z"/><path class="c" d="M94.24,145.1V140.28c0-.178.005-.357,0-.535a3.818,3.818,0,0,0-1.807-3.188,6.663,6.663,0,0,0-3.605-.527,5.056,5.056,0,0,0-1.661.175,3.768,3.768,0,0,0-2.473,2.591,10.168,10.168,0,0,0-.124,2.441v3.024c0,.266-.006.533,0,.8a3.861,3.861,0,0,0,1.048,2.623c1.184,1.238,2.773,1.13,4.325,1.131a4.926,4.926,0,0,0,2.285-.418,3.765,3.765,0,0,0,2.012-3.3,2.016,2.016,0,0,0-2-2,2.041,2.041,0,0,0-2,2c-.012.351.014-.146.033-.171s-.07.212-.065.226.181-.5.051-.166c-.041.1-.273.3.1-.131-.16.183-.063-.071.146-.087-.02,0-.2.134-.2.12s.4-.123.21-.089c-.371.065.036-.025.123.008a3.037,3.037,0,0,0-.862,0H88.5c-.073,0-.145,0-.218,0-.338.012.131,0,.172.033.011.008-.212-.07-.226-.065s.5.18.166.05c-.3-.119.24.212.092.064-.177-.177.223.355.095.139-.045-.078-.139-.3-.034-.015s.026.077.017.022c-.057-.346.014.166.01.179A1.564,1.564,0,0,0,88.57,145c0-.256,0-.512,0-.768v-2.666c0-.595.016-1.193,0-1.787,0-.01,0-.02,0-.03-.01-.281.094.077-.033.172.011-.009.065-.237.065-.226,0-.035-.115.431-.08.215.007-.037.153-.349.009-.032l-.084.114q.177-.165-.033,0c-.33.15.062.027.082-.037-.04.13-.422.138-.154.072.236-.059.035.067-.18.009a.729.729,0,0,0,.161,0c.131,0,.264,0,.4,0h1.3c.146,0,.293,0,.439,0q.033,0,.066,0c.234-.008.069.11-.171-.033a.827.827,0,0,0,.226.065c-.222-.019-.373-.151-.166-.051.276.134-.092-.068-.132-.1.238.214-.087-.1-.086-.147,0-.018.108.194.12.2-.037-.008-.154-.485-.071-.154.06.239-.07.025-.009-.179a.592.592,0,0,0,0,.145c-.006.2,0,.4,0,.6V145.1a2,2,0,0,0,4,0Z"/><path class="c" d="M181.407,144.682v-4.3a4.263,4.263,0,0,0-2.063-3.8,6.458,6.458,0,0,0-3.42-.556,4.176,4.176,0,0,0-4.086,3.243,12.185,12.185,0,0,0-.1,2.339v2.632a4.439,4.439,0,0,0,1.333,3.472,4.29,4.29,0,0,0,2.852,1.1q.648.007,1.3,0a4.2,4.2,0,0,0,4.19-4.131,2.018,2.018,0,0,0-2-2,2.04,2.04,0,0,0-2,2c-.007.254-.073,0,.041-.174-.006.01-.03.173-.037.171.025.007-.161.4.008.035.133-.286.039-.081.007-.031a1.8,1.8,0,0,0-.119.193c0-.044.287-.276.138-.183a.718.718,0,0,0-.118.122c-.216.249.247-.122.094-.069a.8.8,0,0,0-.2.113c-.148.114.187-.1.215-.09-.029-.013-.586.142-.191.064.309-.062-.075-.02-.178-.02-.36,0-.721,0-1.081,0-.038,0-.077,0-.115,0-.34.016.257.087.11.03a.838.838,0,0,0-.225-.058c-.175-.006.185.061.21.1a1.163,1.163,0,0,0-.2-.108c-.248-.118.112.038.131.114,0-.011-.4-.44-.151-.127s-.047-.156-.082-.182c.232.178.116.378.081.155a1.2,1.2,0,0,0-.04-.17c-.074-.209.011.468.03.111.008-.161,0-.325,0-.487V141.9c0-.571.019-1.145,0-1.715v-.027c-.018-.344-.12.379-.019.059a1.782,1.782,0,0,0,.064-.223c.021.047-.244.434-.064.164a.711.711,0,0,0,.087-.147q.087-.129-.057.066-.169.21-.012.028a.753.753,0,0,0,.122-.117c.124-.19-.348.193-.136.107a.993.993,0,0,0,.146-.088c.214-.142.019.133-.164.064a1.419,1.419,0,0,0,.339-.086c-.279.183-.371.034-.134.041.341.012.685,0,1.026,0,.111,0,.223.006.334,0,.359-.017-.319-.1-.11-.03a.978.978,0,0,0,.17.04c.32.052-.253-.181-.1-.054a.8.8,0,0,0,.149.082c.281.132-.114-.053-.13-.114.007.028.4.443.151.127s.071.175.082.182c-.038-.025-.1-.385-.1-.21a.851.851,0,0,0,.069.283c-.051-.071-.028-.461-.041-.169,0,.016,0,.032,0,.048,0,.086,0,.172,0,.258v4.209a2,2,0,0,0,4,0Z"/><path class="c" d="M303.11,183.233H190.156c-2.573,0-2.578,4,0,4H303.11c2.573,0,2.578-4,0-4Z"/><path class="c" d="M221.6,177.182H283.6l-1.009-.273q5.025,2.711,10.07,5.382c2.276,1.2,4.3-2.252,2.019-3.454q-3.667-1.932-7.319-3.9c-1.188-.639-2.551-1.682-3.913-1.756-1.049-.057-2.118,0-3.169,0H221.6c-2.574,0-2.578,4,0,4Z"/><path class="c" d="M275.085,163.646a7.335,7.335,0,0,1-.309-4.012c.944-4.587,5.879-7.175,8.074-11.312a10.629,10.629,0,0,0-1.714-12.047l-5.668,2.654c.852,1.506,2.158,2.809,2.523,4.5.524,2.429-1.093,4.841-3.048,6.376a22.146,22.146,0,0,1-2.052,1.4,2.825,2.825,0,0,1-2.414.265,20.333,20.333,0,0,1-6.1-3.394,4.042,4.042,0,0,1-.826-.826l-.544,2.973A43.662,43.662,0,0,0,268.751,154a13.2,13.2,0,0,0-3.959,9.646Z"/><path class="c" d="M279.722,137.689a8.726,8.726,0,0,1,2.258,6.5,9.9,9.9,0,0,1-3.007,6.044,40.889,40.889,0,0,0-4.708,5.484,9.867,9.867,0,0,0-1.108,8.462c.817,2.427,4.682,1.386,3.857-1.063-1.837-5.451,4.47-8.953,7.04-12.9a12.679,12.679,0,0,0-1.5-15.355c-1.76-1.886-4.584.947-2.828,2.828Z"/><path class="c" d="M261.6,151.638A47.245,47.245,0,0,0,268.248,156a2,2,0,1,0,2.019-3.454,44.311,44.311,0,0,1-6.157-3.979l.4.312-.09-.07a2.191,2.191,0,0,0-1.415-.586,2,2,0,0,0-2,2,1.927,1.927,0,0,0,.586,1.414Z"/><path class="e" d="M287.849,131.955a7.16,7.16,0,0,0-2.739-3.132,9.989,9.989,0,0,0-7.2-.169c-1.62.706-2.334,1.075-3.053,2.455a9.056,9.056,0,0,0-6.721.873,6.063,6.063,0,0,0-2.8,6.539,5.235,5.235,0,0,0,5.345,4.342c4.55,0,13.866-.055,17.7-.055A5.088,5.088,0,0,0,293.85,138a6.116,6.116,0,0,0-1.222-4.341C291.557,132.439,289.271,131.476,287.849,131.955Z"/><path class="c" d="M289.366,130.945a8.658,8.658,0,0,0-8.407-4.876c-3.1.048-6.467,1.187-8.036,4.031l2.258-.92c-5.313-1.075-11.427,1.136-12.142,7.134a8.115,8.115,0,0,0,1.743,5.956,7.5,7.5,0,0,0,6.2,2.593c4.324,0,8.647-.029,12.97-.045,4-.014,8.738.413,10.888-3.783a8.289,8.289,0,0,0-.472-8.119,7.166,7.166,0,0,0-7.257-2.89c-2.486.659-1.431,4.519,1.064,3.857a3.113,3.113,0,0,1,3.156,1.771,4.208,4.208,0,0,1-.253,3.9,3.833,3.833,0,0,1-3.328,1.254c-1.32.007-2.641.006-3.961.011q-5.078.018-10.156.038a18.768,18.768,0,0,1-4.127-.092,3.262,3.262,0,0,1-2.328-2.367,4.09,4.09,0,0,1,.951-4.068c1.492-1.559,4.016-1.693,5.993-1.292a2.061,2.061,0,0,0,2.259-.92c.87-1.577,2.892-2.023,4.582-2.049a4.771,4.771,0,0,1,4.953,2.9C287.06,135.269,290.511,133.245,289.366,130.945Z"/><path class="e" d="M264.9,140.242a6.081,6.081,0,0,1,4.395,1.853,4.5,4.5,0,0,1,1.141,3.455,3.731,3.731,0,0,1-2.183,3.335,6.105,6.105,0,0,1-5.532-.067c-1.694-.018-8.161.868-9.575.577a5.286,5.286,0,0,1-3.978-4.382c-.444-3.426,1.3-5.532,3.9-5.741.875-1.893,3.989-2.607,6.456-1.924a5.971,5.971,0,0,1,3.767,3.048A9.47,9.47,0,0,1,264.9,140.242Z"/><path class="c" d="M264.9,142.242c1.371.025,3.059.721,3.444,2.159a2.706,2.706,0,0,1-.186,2.013,2.192,2.192,0,0,1-1.582.961c-1.656.439-2.938-.623-4.546-.535-1.275.07-2.546.216-3.817.333s-2.572.25-3.861.277c-.2,0-.4,0-.595,0-.339,0-.48-.131-.079.016a3.565,3.565,0,0,1-1.877-1.181,3.944,3.944,0,0,1-.534-3.5,2.109,2.109,0,0,1,1.8-1.513,2.5,2.5,0,0,0,1.838-1.2,1.434,1.434,0,0,1,.42-.407,3.955,3.955,0,0,1,2.121-.565,4.331,4.331,0,0,1,4.117,2.31,2.058,2.058,0,0,0,2.259.919,8.226,8.226,0,0,1,1.076-.083c2.568-.079,2.579-4.079,0-4a16.538,16.538,0,0,0-2.14.226l2.259.919a8.277,8.277,0,0,0-6.968-4.28c-2.512-.143-5.481.791-6.709,3.155l1.727-.99a6.253,6.253,0,0,0-5.759,4.831,7.833,7.833,0,0,0,2.908,8.133c1.974,1.437,4.182,1.26,6.471,1.072,2-.164,4.023-.489,6.032-.49l-1.009-.273c3.827,1.847,9.682.9,10.591-3.959.872-4.657-2.894-8.261-7.4-8.344C262.324,138.2,262.324,142.2,264.9,142.242Z"/><path class="a" d="M255.784,162.987h30.96c2.231,0,.94,4.691-.094,6.444-1.355,2.747-2.9,5.458-5.846,7.124-2.72,1.55-5.6,2.1-9.543,2.1-8.208,0-13.632-4.812-15.318-9.232C254.879,167.178,254.1,162.987,255.784,162.987Z"/><path class="c" d="M255.784,164.987h29.49a5.972,5.972,0,0,0,1.282,0c.019,0,.176.018.187,0-.1.16-.58-.342-.728-.4-.3-.113.114-.127-.024.07.054-.077,0,.172-.024.382a9.437,9.437,0,0,1-1.044,3.379,19.1,19.1,0,0,1-3.1,4.833c-2.834,2.905-7.116,3.484-10.987,3.4a15.248,15.248,0,0,1-10.96-4.677,12,12,0,0,1-2.284-3.728,11.766,11.766,0,0,1-.737-2.681,4.954,4.954,0,0,1-.049-1.011c.008-.105-.062-.32.014-.153l.056-.193a1.131,1.131,0,0,1-1.1.778,2.054,2.054,0,0,0,2-2,2.014,2.014,0,0,0-2-2c-4.779.441-2.637,6.979-1.478,9.675a16.321,16.321,0,0,0,7.859,7.928,23.238,23.238,0,0,0,14.5,1.6,15.523,15.523,0,0,0,10.871-8.113c1.421-2.579,4.048-7.546,1.43-10.189-1.118-1.128-2.8-.9-4.24-.9H255.784C253.21,160.987,253.206,164.987,255.784,164.987Z"/></svg>