<?xml version="1.0" encoding="utf-8"?>
<!-- Uploaded to: SVG Repo, www.svgrepo.com, Generator: SVG Repo Mixer Tools -->
<svg width="800px" height="800px" viewBox="0 -60.73 410.78 410.78" xmlns="http://www.w3.org/2000/svg"><defs><style>.a{fill:#ffffff;}.b{fill:#211715;}.c{fill:#73ca6e;}.d{fill:#d9d9d9;}.e{fill:#88c5e9;}.f{fill:#fecb87;}</style></defs><path class="a" d="M205.38,52.431C132.84,94.3,64.09,133.981,1.98,169.841c63.48,36.65,142.4,82.22,203.41,117.46,61.02-35.25,140.01-80.85,203.41-117.46C346.682,133.972,277.945,94.3,205.38,52.431Z"/><path class="b" d="M206.4,289.028q18.774-10.845,37.549-21.688l40.161-23.192,41.273-23.832,40.887-23.608Q385.684,185.5,405.1,174.289l4.713-2.721c2.229-1.287.217-4.745-2.019-3.454l-38.67,22.329-40.739,23.522-41.306,23.85L246.7,261.131q-18.888,10.908-37.777,21.819l-4.542,2.624c-2.228,1.287-.216,4.745,2.019,3.454Z"/><path class="b" d="M204.37,54.158Q246.035,78.2,287.7,102.244q39.209,22.629,78.416,45.262,20.838,12.03,41.675,24.062c2.234,1.289,4.25-2.166,2.019-3.454q-37.931-21.9-75.866-43.8-40.262-23.24-80.527-46.475L206.389,50.7c-2.233-1.289-4.25,2.166-2.019,3.454Z"/><path class="b" d="M.97,171.568l38.776,22.387,40.629,23.459,41.18,23.78,40.439,23.353L199.831,286.4l4.549,2.628c2.234,1.29,4.25-2.166,2.019-3.454q-18.8-10.861-37.609-21.722l-40.032-23.118L87.614,216.975,46.645,193.319,7.717,170.843l-4.728-2.729c-2.233-1.29-4.25,2.166-2.019,3.454Z"/><path class="b" d="M2.989,171.568q37.929-21.9,75.861-43.794L159.372,81.3l47.017-27.138c2.229-1.287.217-4.745-2.019-3.454L121.055,98.793,42.641,144.056.97,168.114c-2.228,1.287-.216,4.744,2.019,3.454Z"/><path class="a" d="M26.223,164.352l-1.072-14.688c0-5.822,8.175-10.541,18.259-10.541s18.259,4.719,18.259,10.541L60.8,164.177c0,5.822-7.307,10.542-17.391,10.542S26.223,170.174,26.223,164.352Z"/><path class="b" d="M28.223,164.352c-.354-4.852-.935-9.739-1.065-14.6-.088-3.262,3.525-5.629,6.327-6.8A27.118,27.118,0,0,1,49.8,141.834c3.51.829,8.66,2.766,9.7,6.652.507,1.891-.034,4.549-.157,6.6-.173,2.889-.364,5.778-.518,8.669a6.213,6.213,0,0,1-.593,2.747,9.491,9.491,0,0,1-3.9,3.724c-5.009,2.831-11.653,3.126-17.155,1.809-3.845-.921-8.882-3.319-8.958-7.681-.045-2.571-4.045-2.58-4,0,.085,4.89,3.832,8.426,8.076,10.253a29.723,29.723,0,0,0,18.434,1.259c4.738-1.164,9.822-3.884,11.563-8.738.885-2.47.667-5.662.822-8.248.181-3.019.478-6.055.543-9.078.1-4.467-3.5-7.91-7.207-9.791a30.516,30.516,0,0,0-18.562-2.417c-5,.821-10.744,3.053-13.47,7.619-1.818,3.046-1.13,6.384-.886,9.719l.687,9.422C24.409,166.9,28.411,166.924,28.223,164.352Z"/><path class="c" d="M37.87,148.4c-1.962-8.455-4.61-23.259-7.1-32.323a16.634,16.634,0,0,1,11.844,6.179c2-7.6,4.513-12.51,9.327-19.67.768,1.314.675,3.148.544,4.833-.934,12.05-2.437,28.947-3.757,40.981"/><path class="b" d="M43.449,127.4a64.932,64.932,0,0,1,3.763-12.547,73.563,73.563,0,0,1,6.452-11.258H50.211c.771,1.5.284,3.654.158,5.262q-.21,2.67-.431,5.34-.479,5.8-1,11.591c-.675,7.543-1.391,15.083-2.215,22.611a2.012,2.012,0,0,0,2,2,2.046,2.046,0,0,0,2-2c.855-7.811,1.594-15.634,2.291-23.461q.531-5.958,1.02-11.92.215-2.622.419-5.244a11.156,11.156,0,0,0-.79-6.2,2.02,2.02,0,0,0-3.453,0,72.518,72.518,0,0,0-6.587,11.567,70.262,70.262,0,0,0-4.032,13.194c-.539,2.51,3.316,3.583,3.857,1.063Z"/><path class="b" d="M53.471,153.469a22.626,22.626,0,0,1-20.123,0c-2.272-1.209-4.295,2.243-2.019,3.454a26.79,26.79,0,0,0,24.16,0c2.274-1.209.256-4.663-2.018-3.454Z"/><path class="b" d="M39.8,147.865c-2.483-10.746-4.193-21.678-7.1-32.324l-1.929,2.532a14.564,14.564,0,0,1,8.713,3.786c1.912,1.713,4.75-1.106,2.828-2.828a19,19,0,0,0-11.541-4.958,2.016,2.016,0,0,0-1.928,2.531c2.911,10.646,4.621,21.578,7.1,32.324.579,2.507,4.437,1.446,3.857-1.063Z"/><path class="a" d="M244.575,72.238c0-12.32,0-47.546,0-47.546l-39.4-22.481a2.232,2.232,0,0,0-2.221.005L100.746,61.232v50.851a1.108,1.108,0,0,0,.554.964L141.233,136.1a1.1,1.1,0,0,0,1.107,0L244.022,77.4a1.107,1.107,0,0,0,.553-.963Z"/><path class="d" d="M176.812,53.578,145.743,71.516a.488.488,0,0,1-.485,0l-21.183-12.23a.485.485,0,0,1,0-.841l31.069-17.938a.488.488,0,0,1,.485,0l21.183,12.23A.485.485,0,0,1,176.812,53.578Z"/><path class="e" d="M223.008,26.908,195.1,43.025a2.425,2.425,0,0,1-2.427,0l-18.03-10.409a1.942,1.942,0,0,1,0-3.363l27.913-16.118a2.429,2.429,0,0,1,2.428,0l18.029,10.409A1.942,1.942,0,0,1,223.008,26.908Z"/><path class="b" d="M139.786,95.607v40.644c0,2.574,4,2.578,4,0V95.607c0-2.574-4-2.578-4,0Z"/><path class="b" d="M246.575,72.238q0-21.492,0-42.985,0-2.282,0-4.561a2.008,2.008,0,0,0-.991-1.727L207.235,1.081c-1.742-.994-3.442-1.572-5.4-.524-.808.431-1.592.919-2.385,1.377L186.791,9.241l-42.97,24.811L102.578,57.864c-1.412.816-3.736,1.629-3.832,3.462-.048.928,0,1.873,0,2.8V97.521c0,4.8-.2,9.645,0,14.441.108,2.565,2.773,3.521,4.706,4.637l8.809,5.085L133.6,134.005c2.11,1.218,4.194,2.508,6.34,3.661s3.7-.008,5.5-1.045l29.609-17.1L216.6,95.54,244,79.719a7.863,7.863,0,0,0,1.67-1.088c1.464-1.464.907-4.562.907-6.393,0-2.574-4-2.578-4,0v3.2a5.9,5.9,0,0,0,0,.764c.049.361-.119.095-.048,0l.718-.717a24.183,24.183,0,0,1-2.7,1.6L236.2,79.6l-12.858,7.424L188.051,107.4,154.7,126.658,144.2,132.716l-1.573.908a4.921,4.921,0,0,0-1.134.655c-.31.348.716.175.613.018-.06-.09-.305-.176-.394-.227l-1.024-.591-2.888-1.667-33.762-19.493a17.445,17.445,0,0,1-1.964-1.178l.718.718c.073.1-.1.355-.049-.025a6.328,6.328,0,0,0,0-.8v-49.8l-.99,1.727L131.6,45.728l36.8-21.249,28.578-16.5,6.451-3.725c.361-.208.487-.345.873-.241a6.056,6.056,0,0,1,1.193.681l2.273,1.3L240.553,24.7l3.013,1.72-.99-1.727q-.024,18.3,0,36.608V72.238C242.575,74.812,246.575,74.816,246.575,72.238Z"/><path class="b" d="M233.721,30.244,202.241,48.42l-33.262,19.2-23.4,13.514-3.01,1.738c-.721.416-.818.293-1.5-.1l-8.347-4.819c-6.478-3.74-12.91-7.575-19.44-11.224-.135-.076-.268-.155-.4-.232-2.234-1.29-4.25,2.166-2.019,3.454l17.352,10.019,9.766,5.639c.594.342,1.179.716,1.787,1.032,2.089,1.082,3.817.26,5.63-.787l21.144-12.208L199.365,54.7,232.282,35.7l3.458-2c2.229-1.287.217-4.745-2.019-3.454Z"/><path class="b" d="M222,25.181,201.464,37.038l-5.248,3.03-1.631.942c-.171.1-.519.4-.723.417.108-.008-.3-.2-.439-.275l-1.851-1.069-6.249-3.608-6.448-3.722a31.351,31.351,0,0,0-3.214-1.856c-.054-.023,0,.08-.013.083.049-.015.088-.062.136-.079a7.013,7.013,0,0,0,1.027-.593l4.507-2.6,13.273-7.664,5.742-3.316c1.052-.607,2.1-1.358,3.215-1.856.266-.12.174-.119.247-.109a4.774,4.774,0,0,1,1.207.7l5.511,3.182c3.72,2.148,7.421,4.336,11.164,6.445a3.152,3.152,0,0,0,.308.178c.07.03-.009-.067.014-.082-2.111,1.446-.112,4.914,2.019,3.453a4,4,0,0,0,1.215-5.689,5.182,5.182,0,0,0-1.75-1.437l-5.121-2.956c-4.075-2.352-8.12-4.768-12.229-7.06a4.576,4.576,0,0,0-4.818.047L197.3,13.855l-13.95,8.055c-3.185,1.84-6.439,3.6-9.571,5.527a4,4,0,0,0-.1,6.937c1.285.816,2.649,1.529,3.967,2.29L190.8,44.255c1.659.958,3.234,1.592,5.142.593,1.055-.553,2.072-1.2,3.1-1.792L223.419,28.98l.6-.346C226.246,27.348,224.234,23.89,222,25.181Z"/><path class="b" d="M175.8,51.851,148.581,67.568,145.8,69.174l-.788.455c-.218.125-.452.133-.042.023h1.063c.514.138-.118-.067-.343-.2l-1.5-.867-5.005-2.89-11.449-6.61-1.907-1.1a5.746,5.746,0,0,0-.537-.31c-.2-.088-.25-.261.018.011l.514.882-.06-.236V59.4l.06-.236-.514.882c-.268.271-.22.1-.009.006a6.614,6.614,0,0,0,.61-.353l2.244-1.295,7.374-4.258,16.781-9.688,2.781-1.606.788-.455c.218-.125.452-.133.042-.023h-1.063c-.514-.138.118.067.343.2l1.5.867,5.005,2.89,11.449,6.61,1.908,1.1a5.6,5.6,0,0,0,.536.31c.2.088.251.261-.018-.011l-.514-.882.06.236V52.626l-.06.236.514-.882-.182.184c-1.813,1.831,1.014,4.661,2.828,2.828a2.541,2.541,0,0,0-.586-4.086c-.511-.321-1.049-.606-1.572-.908l-6.69-3.863c-4.163-2.4-8.273-4.952-12.511-7.223-1.374-.736-2.441-.3-3.634.389l-4.786,2.763L133.3,50.808c-3.354,1.936-6.826,3.751-10.095,5.829a2.529,2.529,0,0,0-.728,3.879,5.338,5.338,0,0,0,1.328.925l5.734,3.31,13.737,7.932c1.239.715,2.342,1.168,3.752.4,1.281-.7,2.531-1.461,3.794-2.191L177.21,55.658l.612-.353C180.05,54.018,178.038,50.56,175.8,51.851Z"/><ellipse class="b" cx="155.898" cy="51.049" rx="6.311" ry="3.644"/><ellipse class="b" cx="142.618" cy="58.716" rx="6.311" ry="3.644"/><path class="e" d="M354.563,170.671l-13.418,7.747a9.1,9.1,0,0,1-9.1-.009c-33.15-19.146-63.183-36.478-96.22-55.546a8.167,8.167,0,0,1-4.091-7.069c0-4.035,0-10.276,0-17.16a9.161,9.161,0,0,1,4.576-7.932l41.87-24.167,1.489-.818c.276-2.135.558-4.3.835-6.409a9.118,9.118,0,0,1,13.6-6.712c15.6,9.014,39.01,22.527,39.01,22.527l44.851,25.894a9.122,9.122,0,0,1,4.526,8.74c-1.331,14.41-3.034,33.723-3.8,42.518a9.061,9.061,0,0,1-4.5,7.066Z"/><path class="b" d="M277.188,95.676q30.159,17.418,60.321,34.834l16.883,9.744c2.233,1.289,4.25-2.166,2.019-3.454q-29.925-17.268-59.841-34.55L279.207,92.222c-2.234-1.29-4.25,2.165-2.019,3.454Z"/><path class="b" d="M267.424,95.259,253.2,103.47c-1.96,1.131-3.964,2.209-5.888,3.4a4.6,4.6,0,0,0-2.255,5.056c.523,2.018,2.206,2.858,3.854,3.81L295.9,142.869q13.562,7.832,27.124,15.661c2.233,1.29,4.25-2.165,2.018-3.453Q300.5,140.9,275.952,126.728l-21.5-12.415-3.677-2.123c-.589-.34-2.449-.972-1.584-1.785a7.7,7.7,0,0,1,1.38-.8l3.3-1.907,15.567-8.988c2.228-1.287.217-4.745-2.019-3.454Z"/><path class="b" d="M277.172,64.808,255.266,77.452l-14.48,8.358c-2.659,1.535-6.11,3.007-8.175,5.349-3.738,4.24-2.877,9.957-2.877,15.195V113.6a14.759,14.759,0,0,0,1.045,6.66c1.133,2.38,3.111,3.8,5.328,5.075l7.9,4.559,15.744,9.087q31.142,17.975,62.278,35.953l8.143,4.7a12.157,12.157,0,0,0,7.713,1.9,16.54,16.54,0,0,0,6.319-2.578l5.6-3.235,24.569-14.184a12.427,12.427,0,0,0,4.931-4.637,14.543,14.543,0,0,0,1.509-6.065q.533-6.066,1.069-12.131.653-7.355,1.313-14.708.346-3.85.7-7.7c.219-2.405.609-4.86.638-7.276a11.3,11.3,0,0,0-5.6-9.763c-.789-.472-1.593-.92-2.389-1.38L364.3,90.818,336.358,74.685,312.536,60.93,300.528,54c-3.621-2.092-7.31-4.936-11.713-4.6a11.237,11.237,0,0,0-9.55,6.889c-.962,2.34-1.024,5.028-1.347,7.515q-.529,4.077-1.047,8.157c-.5,3.977-1.019,7.955-1.438,11.942a2.014,2.014,0,0,0,2,2,2.046,2.046,0,0,0,2-2c.411-3.917.917-7.824,1.411-11.731q.515-4.073,1.045-8.143c.279-2.148.27-4.641,1.231-6.623a7.2,7.2,0,0,1,8.212-3.807c1.852.49,3.528,1.745,5.173,2.7l5.806,3.353,29.96,17.3L354.532,89.8c7.42,4.284,14.87,8.52,22.262,12.853a7.335,7.335,0,0,1,3.7,7.107c-.357,4.752-.869,9.5-1.3,14.245q-1.178,13.1-2.325,26.2a10.91,10.91,0,0,1-1.2,5c-1.107,1.815-2.966,2.69-4.743,3.716l-11.7,6.756-12.07,6.968-5.24,3.026c-1.9,1.095-3.653,2.133-5.937,1.948-2.628-.213-5.016-2.136-7.233-3.416l-7.672-4.431-15.1-8.72-29.927-17.275q-15.117-8.727-30.234-17.451l-7.688-4.437c-1.922-1.11-3.565-2.231-4.178-4.488-.5-1.85-.213-4.032-.213-5.933v-7.578c0-2.459-.4-5.268.406-7.632a7.225,7.225,0,0,1,3.194-3.828c.674-.4,1.361-.786,2.041-1.179L251.051,84.5l26.468-15.277,1.671-.965c2.229-1.287.217-4.745-2.018-3.454Z"/><path class="b" d="M365.519,119.334c-.328,3.4-.573,6.882-1.166,10.243a4.387,4.387,0,0,1-2.525,3.1l-8.9,5.14c-6.377,3.682-12.868,7.218-19.152,11.057a7.878,7.878,0,0,0-2.991,3.114c-1.054,2.089-.852,4.382-.852,6.652v9.216c0,2.573,4,2.578,4,0v-7.541c0-2.7-.809-6.352,1.885-8,2.291-1.4,4.661-2.692,6.988-4.035l21.118-12.191a8.35,8.35,0,0,0,4.144-4.836,36.947,36.947,0,0,0,.816-6.075c.227-1.948.451-3.9.639-5.848a2.014,2.014,0,0,0-2-2,2.044,2.044,0,0,0-2,2Z"/><path class="a" d="M236.829,196.335a1.566,1.566,0,0,0,1.582,0c5.8-3.351,40.418-23.359,49.923-28.851a1.573,1.573,0,0,0,.632-.688l.158.017v17.022l-1.123.648-50.877,29.4-73.511-42.45v-17.38Z"/><path class="b" d="M162.6,173.163q12.4,7.161,24.807,14.325l38.478,22.219,10.227,5.906a2.025,2.025,0,0,0,2.019,0q8.789-5.074,17.573-10.156l26.73-15.448,6.573-3.8c2.229-1.286.217-4.744-2.019-3.453q-8.676,5.008-17.348,10.025L242.85,208.267l-6.735,3.892h2.019q-12.829-7.407-25.659-14.817l-38.241-22.083-9.612-5.55c-2.233-1.29-4.25,2.165-2.019,3.454Z"/><path class="b" d="M287.124,166.813V195.88c0,2.574,4,2.578,4,0V166.813c0-2.573-4-2.578-4,0Z"/><path class="b" d="M160.613,154.056v29.066c0,2.574,4,2.578,4,0V154.056c0-2.574-4-2.578-4,0Z"/><path class="b" d="M234.857,196.335V225.4c0,2.574,4,2.578,4,0V196.335c0-2.573-4-2.578-4,0Z"/><path class="f" d="M163.285,153.866l73.544,42.469a1.566,1.566,0,0,0,1.582,0c5.8-3.351,40.418-23.359,49.923-28.851a1.593,1.593,0,0,0,0-2.763c-12.863-7.43-63.568-36.711-73.544-42.471a1.558,1.558,0,0,0-1.578,0L163.281,151.1A1.6,1.6,0,0,0,163.285,153.866Z"/><path class="b" d="M162.275,155.593,184.8,168.6l30.774,17.771,12.638,7.3c2.476,1.429,4.919,2.973,7.451,4.3,2.22,1.165,3.9.012,5.781-1.074l5.065-2.927,14.514-8.388,27.764-16.045a3.913,3.913,0,0,0,2.329-3.7c-.108-1.614-1.228-2.528-2.519-3.274l-4.468-2.581-12.747-7.362L239.56,134.244l-23.118-13.35a4.173,4.173,0,0,0-4.24-.37c-.5.248-.977.564-1.459.843L206.02,124.1,191.9,132.254l-28.32,16.364a6.344,6.344,0,0,0-2.626,2.079,3.689,3.689,0,0,0,1.32,4.9c2.11,1.485,4.111-1.982,2.019-3.454.532.374-.352.867.363.478.367-.2.725-.419,1.087-.629l2.345-1.354,6-3.465,14.987-8.659,24.481-14.145a3.428,3.428,0,0,1,.6-.345c-.381.12-.116.1.227.3l1.672.965,4.4,2.539,12.225,7.059L263.2,152.518q11.775,6.8,23.549,13.6a1.6,1.6,0,0,0,.4.233c.315.051-.019.074-.024-.25-.006-.384.37-.343-.052-.205a3.168,3.168,0,0,0-.516.3l-2.193,1.267L278.6,170.8l-14.848,8.581L238.48,193.985c-.224.129-.466.246-.679.392a2.225,2.225,0,0,1-.287.166c.01,0,.339.117.163-.028a8.94,8.94,0,0,0-1.222-.7l-3.561-2.057-10.815-6.245L192.89,168.653,167.855,154.2l-3.561-2.057C162.061,150.85,160.044,154.305,162.275,155.593Z"/><polygon class="a" points="105.211 152.607 189.193 201.094 189.193 257.536 105.211 209.049 105.211 152.607"/><path class="b" d="M106.074,155.415l8.132,4.7,19.516,11.268L157.311,185l20.344,11.746c3.247,1.875,6.447,3.918,9.777,5.645a2.609,2.609,0,0,1,.388.274l-.718-.718s.139-.238.091.024a2.9,2.9,0,0,0,0,.5v52.367a1.621,1.621,0,0,0,0,.44c.008.024-.011.06,0,.083.173.365,1.353-.311,1.133-.633-.072-.106-.322-.174-.425-.246-2.413-1.666-5.166-2.982-7.7-4.447l-14.68-8.475-36.45-21.045c-7.3-4.214-14.734-8.259-21.924-12.658a5.732,5.732,0,0,1-.56-.373l.717.717c.007.01-.124.173-.09-.209.03-.346,0-.709,0-1.056v-50.4c0-.435.042-.9,0-1.328a1.732,1.732,0,0,0,0-.322c-.008-.025.01-.062,0-.086,0-.005,0-.013,0-.018v-.005q0-.655-1.137.644a2.069,2.069,0,0,0,2.737-.717,2.015,2.015,0,0,0-.718-2.737c-2.326-.994-4.739.2-4.882,2.864-.02.361,0,.728,0,1.089v51.347c0,1.565.164,2.947,1.683,3.915,2.1,1.339,4.34,2.505,6.5,3.751l14.4,8.314,37.216,21.486c7.652,4.418,15.23,9.009,22.974,13.264,2.3,1.262,5.079.179,5.212-2.673.055-1.178,0-2.371,0-3.55V212.637c0-3.583.179-7.218,0-10.8-.138-2.755-3.677-4.023-5.743-5.216l-12.841-7.413-36.868-21.286-26.3-15.187-1.344-.776C105.86,150.672,103.843,154.127,106.074,155.415Z"/></svg>