<?xml version="1.0" encoding="utf-8"?>
<!-- Uploaded to: SVG Repo, www.svgrepo.com, Generator: SVG Repo Mixer Tools -->
<svg width="800px" height="800px" viewBox="0 -4.22 319.158 319.158" xmlns="http://www.w3.org/2000/svg"><defs><style>.a{fill:#ffffff;}.b{fill:#211715;}.c{fill:#f2635f;}.d{fill:#79c6e0;}</style></defs><path class="a" d="M205.135,234.659c-.006,20.348-.014,46.714-.02,67.22a6.777,6.777,0,0,0,6.781,6.781c23.573.007,73.768.03,98.418.034a6.776,6.776,0,0,0,6.781-6.78c0-20.5.008-46.863.02-67.216a6.773,6.773,0,0,0-6.776-6.783c-20.673-.007-75.388-.027-98.421-.033A6.776,6.776,0,0,0,205.135,234.659Z"/><path class="b" d="M203.135,234.659q-.006,22.928-.014,45.854l0,11.513c0,3.475-.285,7.087.032,10.547a8.875,8.875,0,0,0,5.573,7.483c2.366.94,5.159.605,7.661.606l34.949.012,38.707.015,16.283,0c2.737,0,5.574.285,8.088-1.014a8.931,8.931,0,0,0,4.684-7.959c.127-15.322,0-30.651.009-45.973l.006-11.255,0-5.487a47.661,47.661,0,0,0-.054-5.17,8.858,8.858,0,0,0-5.7-7.376c-2.132-.8-4.574-.545-6.817-.545L275.3,225.9l-36.76-.013-16.388,0-6.892,0c-2.546,0-5.1-.2-7.439,1.013a8.918,8.918,0,0,0-4.686,7.763c-.065,2.575,3.935,2.574,4,0a4.824,4.824,0,0,1,4.609-4.773c2.018-.07,4.051,0,6.071,0l14.639,0,34.782.012,32.483.011,6.262,0c1.833,0,4.086-.331,5.844.235a4.764,4.764,0,0,1,2.666,2.183,7.869,7.869,0,0,1,.623,4.11q0,5.171,0,10.34-.012,22.329-.014,44.658c0,3.427.028,6.855,0,10.281a4.839,4.839,0,0,1-4.607,4.97c-4.8.162-9.635,0-14.439,0l-36.271-.012-35.593-.014-7.271,0h-3.337a9.6,9.6,0,0,1-3.325-.288,4.794,4.794,0,0,1-2.667-2.416,9.432,9.432,0,0,1-.469-4.227l0-10.425q.006-22.324.013-44.648l0-10C207.136,232.085,203.136,232.081,203.135,234.659Z"/><path class="b" d="M214.429,242.772q17.245,15.264,35.073,29.857,2.218,1.813,4.45,3.613a34.723,34.723,0,0,0,4.2,3.3,5.755,5.755,0,0,0,4.973.326c1.676-.676,3.107-2.142,4.512-3.255q9.689-7.669,19.1-15.684,10.656-9.031,21.064-18.345c1.926-1.717-.911-4.537-2.828-2.829-11.8,10.521-23.777,20.862-36.094,30.78q-2.029,1.633-4.071,3.25c-.736.583-1.468,1.173-2.214,1.744a2.555,2.555,0,0,1-1.759.777,3.405,3.405,0,0,1-1.7-1q-1.008-.807-2.015-1.619-2.055-1.654-4.1-3.322-8.664-7.065-17.18-14.312-9.371-7.962-18.583-16.108c-1.921-1.7-4.76,1.118-2.828,2.828Z"/><path class="b" d="M241.425,231.63c-.462-.224-.964-.39-1.427-.617a5.292,5.292,0,0,1-1.163-.779,8.142,8.142,0,0,1-1.042-.887,5.11,5.11,0,0,1-1.463-5.079c.525-1.5,1.938-2.555,2.444-4.058.918-2.732-1.633-6.306-.466-8.941,1.011-2.281,2.538-2.84,4.639-3.27,1.674-.343,3.679-.488,4.559-1.953a9.067,9.067,0,0,0,.684-2.416,4.988,4.988,0,0,1,4.872-4.035,6.914,6.914,0,0,1,3.645.678,9.03,9.03,0,0,0,2.2,1.21c1.66.4,3.172-.921,4.592-1.871,1.783-1.193,4.162-2.121,6.04-1.084,2.523,1.393,2.992,5.428,5.581,6.694,1.425.7,3.171.435,4.605,1.113a5.111,5.111,0,0,1,2.586,4.609,8.174,8.174,0,0,1-.1,1.365,5.293,5.293,0,0,1-.263,1.376,9.016,9.016,0,0,0-.759,2.393c-.072,1.707,1.523,2.932,2.732,4.139,1.518,1.515,2.659,3.731,2.009,5.775-.874,2.746-4.507,3.931-5.243,6.717-.4,1.534.192,3.2-.193,4.734a5.111,5.111,0,0,1-4.016,3.436c-2.758.587-5.6-1.093-8.167-.373-2.5,1.189-2.87,4.243-5.119,5.723a5.111,5.111,0,0,1-5.266.444c-1.366-.807-2.128-2.4-3.5-3.189-2.5-1.435-5.895.318-8.463-.99-1.912-.974-2.687-3.342-2.7-5.487-.009-1.708.239-3.7-1.026-4.852A3.4,3.4,0,0,0,241.425,231.63Z"/><path class="a" d="M251.731,218.651l5.18,1.329a.431.431,0,0,1,.268.63c-.867,1.508-3.877,2.9-6.563,2.173-2.7-.67-4.6-2.423-4.6-5.062a.432.432,0,0,1,.541-.42C247.757,217.612,249.767,218.137,251.731,218.651Z"/><path class="a" d="M270.5,218.651c-1.967.5-3.98,1.02-5.18,1.329a.432.432,0,0,0-.269.63c.868,1.508,3.877,2.9,6.563,2.173,2.7-.67,4.6-2.423,4.6-5.062a.431.431,0,0,0-.54-.42C274.474,217.612,272.464,218.137,270.5,218.651Z"/><path class="a" d="M2.135,234.659c-.006,20.348-.014,46.714-.02,67.22A6.777,6.777,0,0,0,8.9,308.66c23.573.007,73.768.03,98.418.034a6.776,6.776,0,0,0,6.781-6.78c0-20.5.008-46.863.02-67.216a6.773,6.773,0,0,0-6.776-6.783c-20.673-.007-75.388-.027-98.421-.033A6.776,6.776,0,0,0,2.135,234.659Z"/><path class="b" d="M.135,234.659Q.129,257.587.121,280.513l0,11.513c0,3.475-.285,7.087.032,10.547a8.875,8.875,0,0,0,5.573,7.483c2.366.94,5.159.605,7.661.606l34.949.012,38.707.015,16.283,0c2.737,0,5.574.285,8.088-1.014a8.931,8.931,0,0,0,4.684-7.959c.127-15.322,0-30.651.009-45.973l.006-11.255,0-5.487a47.661,47.661,0,0,0-.054-5.17,8.858,8.858,0,0,0-5.7-7.376c-2.132-.8-4.574-.545-6.817-.545L72.3,225.9l-36.76-.013-16.388,0-6.892,0c-2.546,0-5.1-.2-7.439,1.013a8.918,8.918,0,0,0-4.686,7.763c-.065,2.575,3.935,2.574,4,0a4.824,4.824,0,0,1,4.609-4.773c2.018-.07,4.051,0,6.071,0l14.639,0,34.782.012,32.483.011,6.262,0c1.833,0,4.086-.331,5.844.235a4.764,4.764,0,0,1,2.666,2.183,7.869,7.869,0,0,1,.623,4.11q0,5.171-.005,10.34-.012,22.329-.014,44.658c0,3.427.028,6.855,0,10.281a4.839,4.839,0,0,1-4.607,4.97c-4.8.162-9.635,0-14.439,0l-36.271-.012-35.593-.014-7.271,0H10.577a9.6,9.6,0,0,1-3.325-.288,4.794,4.794,0,0,1-2.667-2.416,9.432,9.432,0,0,1-.469-4.227l0-10.425q.006-22.324.013-44.648l0-10C4.136,232.085.136,232.081.135,234.659Z"/><path class="b" d="M11.429,242.772Q28.674,258.036,46.5,272.629q2.218,1.813,4.45,3.613a34.723,34.723,0,0,0,4.2,3.3,5.755,5.755,0,0,0,4.973.326c1.676-.676,3.107-2.142,4.512-3.255q9.689-7.669,19.1-15.684,10.656-9.031,21.064-18.345c1.926-1.717-.911-4.537-2.828-2.829-11.8,10.521-23.777,20.862-36.094,30.78q-2.03,1.633-4.071,3.25c-.736.583-1.468,1.173-2.214,1.744a2.555,2.555,0,0,1-1.759.777,3.405,3.405,0,0,1-1.7-1q-1.008-.807-2.015-1.619-2.055-1.654-4.1-3.322-8.664-7.065-17.18-14.312-9.371-7.962-18.583-16.108c-1.921-1.7-4.76,1.118-2.828,2.828Z"/><path class="b" d="M37.622,216.034c0,7.417-.005,15.893-.007,23.35a6.144,6.144,0,0,0,6.145,6.148l28.7.013a6.142,6.142,0,0,0,6.147-6.146c0-7.455,0-15.93.007-23.348a6.141,6.141,0,0,0-6.143-6.148l-28.7-.012A6.142,6.142,0,0,0,37.622,216.034Z"/><path class="a" d="M55.925,224.156c0,4.558,0,6.508,0,10.692a2.158,2.158,0,0,0,2.153,2.16h.066a2.16,2.16,0,0,0,2.167-2.159c0-4.187,0-6.155.005-10.685C59.793,224.165,56.586,224.156,55.925,224.156Z"/><path class="a" d="M58.115,218.466a5.384,5.384,0,0,0-5.491,5.457c0,3.406,2.124,5.559,5.491,5.559,3.446,0,5.491-2.153,5.491-5.559A5.379,5.379,0,0,0,58.115,218.466Z"/><path class="b" d="M50.714,210.624a7.4,7.4,0,0,1,14.8,0c.033,2.572,4.033,2.579,4,0a11.383,11.383,0,0,0-7.41-10.661,11.345,11.345,0,0,0-15.392,10.661c-.033,2.575,3.967,2.577,4,0Z"/><path class="a" d="M205.135,44.659c-.006,20.348-.014,46.714-.02,67.22a6.777,6.777,0,0,0,6.781,6.781c23.573.007,73.768.03,98.418.034a6.776,6.776,0,0,0,6.781-6.78c0-20.5.008-46.863.02-67.216a6.773,6.773,0,0,0-6.776-6.783c-20.673-.007-75.388-.027-98.421-.033A6.776,6.776,0,0,0,205.135,44.659Z"/><path class="b" d="M203.135,44.659q-.006,22.928-.014,45.854l0,11.513c0,3.475-.285,7.087.032,10.547a8.875,8.875,0,0,0,5.573,7.483c2.366.94,5.159.605,7.661.606l34.949.012,38.707.015,16.283,0c2.737,0,5.574.285,8.088-1.014a8.931,8.931,0,0,0,4.684-7.959c.127-15.322,0-30.651.009-45.973l.006-11.255,0-5.487a47.661,47.661,0,0,0-.054-5.17,8.858,8.858,0,0,0-5.7-7.376c-2.132-.8-4.574-.545-6.817-.545L275.3,35.9l-36.76-.013-16.388-.005-6.892,0c-2.546,0-5.1-.2-7.439,1.013a8.918,8.918,0,0,0-4.686,7.763c-.065,2.575,3.935,2.574,4,0a4.824,4.824,0,0,1,4.609-4.773c2.018-.07,4.051,0,6.071,0l14.639,0,34.782.012,32.483.011,6.262,0c1.833,0,4.086-.331,5.844.235a4.764,4.764,0,0,1,2.666,2.183,7.869,7.869,0,0,1,.623,4.11q0,5.17,0,10.34-.012,22.329-.014,44.658c0,3.427.028,6.855,0,10.281a4.839,4.839,0,0,1-4.607,4.97c-4.8.162-9.635,0-14.439,0l-36.271-.012-35.593-.014-7.271,0h-3.337a9.6,9.6,0,0,1-3.325-.288,4.794,4.794,0,0,1-2.667-2.416,9.432,9.432,0,0,1-.469-4.227l0-10.425q.006-22.325.013-44.648l0-10C207.136,42.085,203.136,42.081,203.135,44.659Z"/><path class="b" d="M214.429,52.772Q231.674,68.036,249.5,82.629q2.218,1.813,4.45,3.613a34.723,34.723,0,0,0,4.2,3.3,5.755,5.755,0,0,0,4.973.326c1.676-.676,3.107-2.142,4.512-3.255q9.689-7.669,19.1-15.684,10.656-9.032,21.064-18.345c1.926-1.717-.911-4.537-2.828-2.829-11.8,10.521-23.777,20.862-36.094,30.78q-2.029,1.633-4.071,3.25c-.736.583-1.468,1.173-2.214,1.744a2.555,2.555,0,0,1-1.759.777,3.405,3.405,0,0,1-1.7-1q-1.008-.807-2.015-1.619-2.055-1.655-4.1-3.322-8.664-7.065-17.18-14.312-9.371-7.962-18.583-16.108c-1.921-1.7-4.76,1.118-2.828,2.828Z"/><path class="c" d="M273.277,20.121c0,1,0,1.906,0,2.677,3.556,0,9.2.045,12.837.045-7.211,7.785-17.156,17.807-24.968,26.25-7.945-8.417-17.5-18.321-25.032-26.306,3.652.01,9.376-.07,12.9-.066-.008-10.183.02-9.156.02-17.7,7.087,0,16.719-.032,24.2-.032C273.23,7.936,273.269,12.285,273.277,20.121Z"/><path class="b" d="M271.277,20.121q0,1.338,0,2.677a2.03,2.03,0,0,0,2,2c4.279.006,8.558.044,12.837.045L284.7,21.429c-8.212,8.855-16.762,17.39-24.969,26.25h2.829c-8.31-8.8-16.724-17.5-25.032-26.306l-1.414,3.414c4.3.009,8.6-.068,12.9-.066a2.03,2.03,0,0,0,2-2c0-5.9.019-11.8.02-17.7l-2,2c8.066,0,16.132-.032,24.2-.032l-2-2c0,5.043.041,10.086.047,15.129,0,2.573,4,2.578,4,0-.006-5.043-.046-10.086-.047-15.129a2.029,2.029,0,0,0-2-2c-8.066,0-16.132.032-24.2.032a2.03,2.03,0,0,0-2,2c0,5.9-.024,11.8-.02,17.7l2-2c-4.3,0-8.6.075-12.9.066A2.023,2.023,0,0,0,234.7,24.2c8.307,8.8,16.722,17.505,25.031,26.307a2.021,2.021,0,0,0,2.829,0c8.207-8.86,16.756-17.4,24.968-26.251a2.023,2.023,0,0,0-1.414-3.414c-4.279,0-8.558-.039-12.837-.045l2,2q0-1.339,0-2.677C275.274,17.547,271.274,17.542,271.277,20.121Z"/><path class="a" d="M2.135,44.659c-.006,20.348-.014,46.714-.02,67.22A6.777,6.777,0,0,0,8.9,118.66c23.573.007,73.768.03,98.418.034a6.776,6.776,0,0,0,6.781-6.78c0-20.5.008-46.863.02-67.216a6.773,6.773,0,0,0-6.776-6.783c-20.673-.007-75.388-.027-98.421-.033A6.776,6.776,0,0,0,2.135,44.659Z"/><path class="b" d="M.135,44.659Q.129,67.587.121,90.513l0,11.513c0,3.475-.285,7.087.032,10.547a8.875,8.875,0,0,0,5.573,7.483c2.366.94,5.159.605,7.661.606l34.949.012,38.707.015,16.283,0c2.737,0,5.574.285,8.088-1.014a8.931,8.931,0,0,0,4.684-7.959c.127-15.322,0-30.651.009-45.973l.006-11.255,0-5.487a47.661,47.661,0,0,0-.054-5.17,8.858,8.858,0,0,0-5.7-7.376c-2.132-.8-4.574-.545-6.817-.545L72.3,35.9,35.54,35.89l-16.388-.005-6.892,0c-2.546,0-5.1-.2-7.439,1.013A8.918,8.918,0,0,0,.135,44.659c-.065,2.575,3.935,2.574,4,0a4.824,4.824,0,0,1,4.609-4.773c2.018-.07,4.051,0,6.071,0l14.639,0,34.782.012,32.483.011,6.262,0c1.833,0,4.086-.331,5.844.235a4.764,4.764,0,0,1,2.666,2.183,7.869,7.869,0,0,1,.623,4.11q0,5.17-.005,10.34-.012,22.329-.014,44.658c0,3.427.028,6.855,0,10.281a4.839,4.839,0,0,1-4.607,4.97c-4.8.162-9.635,0-14.439,0l-36.271-.012-35.593-.014-7.271,0H10.577a9.6,9.6,0,0,1-3.325-.288,4.794,4.794,0,0,1-2.667-2.416,9.432,9.432,0,0,1-.469-4.227l0-10.425q.006-22.325.013-44.648l0-10C4.136,42.085.136,42.081.135,44.659Z"/><path class="b" d="M11.429,52.772Q28.674,68.036,46.5,82.629q2.218,1.813,4.45,3.613a34.723,34.723,0,0,0,4.2,3.3,5.755,5.755,0,0,0,4.973.326c1.676-.676,3.107-2.142,4.512-3.255q9.689-7.669,19.1-15.684Q94.393,61.895,104.8,52.581c1.926-1.717-.911-4.537-2.828-2.829C90.169,60.273,78.2,70.614,65.879,80.532q-2.03,1.633-4.071,3.25c-.736.583-1.468,1.173-2.214,1.744a2.555,2.555,0,0,1-1.759.777,3.405,3.405,0,0,1-1.7-1q-1.008-.807-2.015-1.619-2.055-1.655-4.1-3.322Q41.356,73.3,32.84,66.052,23.469,58.09,14.257,49.944c-1.921-1.7-4.76,1.118-2.828,2.828Z"/><path class="d" d="M70.277,30.965c0-1,0-1.907,0-2.678,3.556,0,9.2-.045,12.837-.045C75.9,20.458,65.959,10.435,58.147,1.992,50.2,10.409,40.647,20.313,33.115,28.3c3.652-.01,9.376.07,12.9.067-.008,10.182.02,9.155.02,17.7,7.087,0,16.719.032,24.2.032C70.23,43.15,70.269,38.8,70.277,30.965Z"/><path class="b" d="M72.277,30.965q0-1.34,0-2.678l-2,2c4.279,0,8.558-.043,12.837-.045a2.023,2.023,0,0,0,1.414-3.414C76.317,17.973,67.768,9.438,59.561.578a2.02,2.02,0,0,0-2.829,0c-8.309,8.8-16.724,17.5-25.031,26.306A2.023,2.023,0,0,0,33.115,30.3c4.3-.009,8.6.068,12.9.067l-2-2c0,5.9.019,11.8.02,17.7a2.029,2.029,0,0,0,2,2c8.066,0,16.132.032,24.2.032a2.029,2.029,0,0,0,2-2c0-5.043.041-10.085.047-15.128,0-2.574-4-2.578-4,0-.006,5.043-.046,10.085-.047,15.128l2-2c-8.066,0-16.132-.031-24.2-.032l2,2c0-5.9-.024-11.8-.02-17.7a2.028,2.028,0,0,0-2-2c-4.3,0-8.6-.076-12.9-.067l1.414,3.414c8.308-8.8,16.722-17.5,25.032-26.306H56.732c8.207,8.86,16.757,17.4,24.969,26.251l1.414-3.415c-4.279,0-8.558.04-12.837.045a2.03,2.03,0,0,0-2,2q0,1.34,0,2.678C68.274,33.539,72.274,33.543,72.277,30.965Z"/></svg>