<?xml version="1.0" encoding="utf-8"?>
<!-- Uploaded to: SVG Repo, www.svgrepo.com, Generator: SVG Repo Mixer Tools -->
<svg width="800px" height="800px" viewBox="-149.89 0 469.931 469.931" xmlns="http://www.w3.org/2000/svg"><defs><style>.a{fill:#ffffff;}.b{fill:none;}.c{fill:#7a7473;}.d{fill:#f4b467;}.e{fill:#211715;}.f{fill:#c6c6c6;}</style></defs><path class="a" d="M121.4,106.782c-.515-.226-4.33-1.989-4.557-2.071-3.44-1.242-3.3-3.453-3.737-5.926a41.509,41.509,0,0,1-.764-8.415c6.62-4.1,11.731-12.751,12.7-15.386.162-.494.494-1.424.79-2.529l.614-.095a7.714,7.714,0,0,0,3.6-1.62,11.65,11.65,0,0,0,3.015-3.957,18.343,18.343,0,0,0,1.87-9.724,6.1,6.1,0,0,0-.641-2.462,4.328,4.328,0,0,0-3.113-2.07,4.585,4.585,0,0,0-3.668,1.074,23.93,23.93,0,0,0-1-6.785c-7.3.552-18.856.849-30.4.893-12.216-.046-24.448-.377-31.63-.992-.272,3-.565,6.152-.565,6.152-.281,1.31-.714,3.489-.982,4.383A15.523,15.523,0,0,1,59.3,63.866l-.027.028a18.358,18.358,0,0,0,1.146,2.889,11.638,11.638,0,0,0,3.015,3.957,7.718,7.718,0,0,0,3.594,1.621l1.173.18a31.175,31.175,0,0,0,5.944,11.605,28,28,0,0,0,7.439,6.43,54.53,54.53,0,0,1-.763,8.209c-.433,2.473-.3,4.684-3.736,5.926-.228.082-1.922.68-2.343.86,0,0-1.609,18.525,22.983,18.525S121.4,106.782,121.4,106.782Z"/><path class="b" d="M65.9,49.213a3.849,3.849,0,0,0-6.133.988,6.473,6.473,0,0,0-.576,2.441"/><path class="c" d="M132.634,49.19a29.459,29.459,0,0,0,.3-3.114,7,7,0,0,1-.8.12c-1.67.294-4.291.546-7.57.755a19.193,19.193,0,0,1,2.944,6.65,4.585,4.585,0,0,1,3.668-1.074,4,4,0,0,1,.613.14A18.913,18.913,0,0,0,132.634,49.19Z"/><path class="d" d="M96.1,2C74,1.892,61.35,16.657,59.533,34.482c-1.8,1.684-5.782,3.958-5.726,6.757s3.739,4.73,6.274,4.957c5.394.951,20.722,1.455,36.026,1.513,15.3-.058,30.632-.562,36.026-1.513,2.535-.227,6.218-2.158,6.274-4.957s-3.93-5.073-5.726-6.757C130.864,16.656,118.216,1.891,96.1,2Z"/><path class="e" d="M124.043,33.263A119.327,119.327,0,0,0,81,31.07,66.812,66.812,0,0,0,68.484,34.1c-2.417.838-1.378,4.7,1.064,3.857,8.966-3.112,18.3-3.918,27.735-3.82a120.168,120.168,0,0,1,25.7,2.984c2.5.575,3.575-3.28,1.063-3.857Z"/><path class="e" d="M96.1,0C88.191-.008,80.178,1.83,73.548,6.285A36.074,36.074,0,0,0,60.405,22.65a42.674,42.674,0,0,0-2.872,11.832l.586-1.414c-2.4,2.191-6.03,4.118-6.288,7.755-.265,3.743,3.448,6.379,6.723,7.137a57.109,57.109,0,0,0,8.493.951c4.1.274,8.2.427,12.3.543q14.924.423,29.85.092c7.509-.165,15.166-.2,22.613-1.286,3.241-.475,7.684-2.088,8.481-6.048.866-4.3-3.529-6.709-6.2-9.144l.586,1.414a40.232,40.232,0,0,0-7.315-19.843A35.451,35.451,0,0,0,109.96,2.073,43.921,43.921,0,0,0,96.1,0c-2.574,0-2.578,4,0,4A36.745,36.745,0,0,1,115.48,8.992,31.4,31.4,0,0,1,127.163,22a36.454,36.454,0,0,1,2.894,8.552q.225,1.062.394,2.135a11.141,11.141,0,0,0,.4,2.565c.6,1.357,2.514,2.311,3.6,3.271.753.664,2.149,1.762,1.923,2.911-.249,1.27-1.942,2.1-3.035,2.461a16.008,16.008,0,0,1-3.281.592c-1.409.163-2.824.279-4.238.379-8.653.615-17.347.746-26.018.82-9.345.08-18.708-.073-28.043-.511-3.206-.15-6.42-.318-9.609-.688a15.394,15.394,0,0,1-3.431-.644c-1.046-.374-2.646-1.189-2.885-2.409-.226-1.151,1.17-2.247,1.923-2.911,1.078-.951,3.3-2.05,3.7-3.51s.405-3.113.728-4.612a39.606,39.606,0,0,1,1.221-4.423,32.582,32.582,0,0,1,9.776-14.452,33.067,33.067,0,0,1,17.32-7.219A46.749,46.749,0,0,1,96.1,4C98.678,4,98.682,0,96.1,0Z"/><path class="e" d="M130.905,46.563c-.044.719-.11,1.437-.2,2.151l.071-.531a19.888,19.888,0,0,1-.905,3.927,2.012,2.012,0,0,0,1.4,2.46,2.051,2.051,0,0,0,2.46-1.4,24.5,24.5,0,0,0,1.18-6.61,2.012,2.012,0,0,0-2-2,2.047,2.047,0,0,0-2,2Z"/><path class="e" d="M129.435,53.069a21.32,21.32,0,0,0-3.114-7.094,2.159,2.159,0,0,0-1.195-.919,2.047,2.047,0,0,0-1.541.2,2.024,2.024,0,0,0-.718,2.736,17.317,17.317,0,0,1,1.8,3.264l-.2-.478a23.958,23.958,0,0,1,1.107,3.352,2,2,0,1,0,3.857-1.063Z"/><path class="e" d="M128.921,55.015a2.506,2.506,0,0,1,3.566.469,5.233,5.233,0,0,1,.5,2.644,15.545,15.545,0,0,1-.22,3.2c-.694,3.8-2.63,8.351-6.852,9.108a2.017,2.017,0,0,0-1.4,2.46,2.044,2.044,0,0,0,2.46,1.4c6.412-1.149,9.469-8.391,9.952-14.2.247-2.979.011-6.387-2.566-8.319a6.623,6.623,0,0,0-8.275.418,2.016,2.016,0,0,0,0,2.829,2.044,2.044,0,0,0,2.829,0Z"/><path class="e" d="M124.4,68.947a17.348,17.348,0,0,1-1.009,4.678c-.09.275-.194.549-.277.827-.037.125-.2.478.024-.036-.141.328-.3.65-.456.969a39.282,39.282,0,0,1-3.389,5.448c-2.958,4.056-6.972,8.353-12.038,9.542-2.505.588-1.445,4.445,1.063,3.857,6.033-1.415,10.714-6.349,14.263-11.154,3.066-4.151,5.6-8.855,5.819-14.131.1-2.574-3.9-2.57-4,0Z"/><path class="e" d="M57.25,64.117c1.3,4.488,4.243,9.347,9.245,10.172a2.172,2.172,0,0,0,1.541-.2,2,2,0,0,0-.478-3.655,8.148,8.148,0,0,1-1.434-.381c-.318-.114.071.021.067.032s-.3-.142-.334-.16c-.22-.111-.433-.231-.642-.362-.051-.032-.535-.379-.544-.371q.289.23.117.088c-.059-.047-.116-.1-.173-.145-.075-.065-.149-.132-.223-.2-.111-.1-1.069-.978-1.007-1.086-.01.018.235.319.043.054-.072-.1-.144-.2-.214-.3-.14-.2-.273-.406-.4-.615-.242-.394-.464-.8-.669-1.214-.122-.245-.234-.5-.35-.743-.161-.347.064.176-.022-.05-.049-.127-.1-.253-.15-.38-.194-.508-.364-1.025-.515-1.548a2,2,0,1,0-3.857,1.064Z"/><path class="e" d="M65.282,68.671a35.627,35.627,0,0,0,7.587,17.054c4.268,5.053,9.918,8.708,16.573,9.427a2.012,2.012,0,0,0,2-2,2.045,2.045,0,0,0-2-2c-5.711-.617-10.482-4.272-14.026-8.592-3.494-4.261-5.34-9.587-6.277-14.952a2.017,2.017,0,0,0-2.46-1.4,2.046,2.046,0,0,0-1.4,2.46Z"/><path class="e" d="M110.345,91.623a58,58,0,0,0,.892,8.045c.287,1.793.559,3.492,1.791,4.919a7.225,7.225,0,0,0,2.816,1.869c.216.088.933.46.091.024.063.033.132.057.2.087.246.113.5.223.741.335,1.174.534,2.341,1.084,3.519,1.607a2.063,2.063,0,0,0,2.737-.717,2.016,2.016,0,0,0-.718-2.737c-1.09-.483-2.169-.991-3.254-1.486-.415-.189-.829-.381-1.247-.562-.366-.159-.665-.263-.945-.4a5.086,5.086,0,0,1-.716-.43c.26.192-.1-.106-.159-.162s-.361-.47-.122-.113c-.105-.157-.195-.319-.289-.483-.245-.429.018.179-.073-.183-.039-.155-.095-.307-.134-.462-.181-.711-.261-1.443-.377-2.167a50.178,50.178,0,0,1-.749-6.981c-.051-2.571-4.051-2.579-4,0Z"/><path class="e" d="M79.581,90.669a49.168,49.168,0,0,1-1.075,9.892c-.059.257-.141.5-.214.756-.121.42.167-.252-.041.094-.08.134-.158.272-.236.407-.183.313.127-.115-.037.044-.1.1-.2.2-.3.3-.323.321.241-.1-.188.139-.183.1-.356.215-.543.309-.719.363-1.854.664-2.736,1.029a2.068,2.068,0,0,0-1.4,2.461,2.013,2.013,0,0,0,2.46,1.4c1.251-.518,2.585-.851,3.787-1.483a6.426,6.426,0,0,0,3.187-3.934,31.47,31.47,0,0,0,.778-4.549,58.658,58.658,0,0,0,.558-6.865,2,2,0,0,0-4,0Z"/><path class="f" d="M97.2,121.014c1.482-2.074,5.644-8.029,6.57-9.339,1.625-2.3,5.659-9.071,8.209-13.409l6.809,2.575a262.707,262.707,0,0,1,28.738,13.907,23.66,23.66,0,0,1,4.547,3.609c3.333,3.111,6.96,13.335,7.444,19.7,2.2,28.891,4.335,52.845,5.714,81.177.3,6.125.308,7.943.41,10.082a2.489,2.489,0,0,1-2.182,2.6l-16.538,1.875-4.707.566c.039-2.055.058-3.809.054-5.206-14.159,0-68.41-.056-88.059-.055-1.132,0-1.461-.922-1.423-2.053.1-2.976-.131-10.016-.109-11.549,0-12.033.074-54.664-.037-59.331-.02-.157-.24-3.368-.552-8.045C47.06,149.24,38.263,152.874,33.281,154c-4.731,1.074-9.767,2.174-14.756,1.975-6.08-.242-11.507-4.192-14.34-9.462C.682,140,2.263,136.242,3.014,129.484c.445-4,2.374-8.583,3.029-12.1,1.22-6.535,6.739-22.563,7.49-24.942,1.778-5.63,6.925-17.283,8.222-20.222,7.2,2.333,16.082,5.876,23.008,8.585C43.533,86,38.422,106.3,37.311,110.669c-.175.689-.535,2.2-.989,4.1l7.655-3.435c6.223-3.111,6.889-3.037,12.371-4.963,3-1.055,12.148-4.148,18.37-5.63l7.565-1.793c1.546,2.932,3.641,6.563,4.443,7.978,2.294,4.044,6.648,11.271,9.463,15.123"/><path class="a" d="M122.39,420.944a30.54,30.54,0,0,0,3.457,13.93l-22.178-.43.086-12.46Z"/><path class="a" d="M73.365,420.944a30.541,30.541,0,0,1-3.458,13.93l22.178-.43L92,421.984Z"/><path class="e" d="M71.365,420.944a28.7,28.7,0,0,1-3.185,12.921A2.045,2.045,0,0,0,68.9,436.6a2.02,2.02,0,0,0,2.736-.717,33.17,33.17,0,0,0,3.731-14.94,2,2,0,0,0-4,0Z"/><path class="e" d="M90,421.984l.085,12.46a2,2,0,0,0,4,0L94,421.984a2,2,0,1,0-4,0Z"/><path class="e" d="M120.39,420.944a33.156,33.156,0,0,0,3.73,14.94,2,2,0,0,0,3.454-2.019,28.71,28.71,0,0,1-3.184-12.921,2,2,0,0,0-4,0Z"/><path class="e" d="M101.755,421.984l-.086,12.46a2,2,0,1,0,4,0l.086-12.46a2,2,0,0,0-4,0Z"/><path class="c" d="M144.994,463.465q.174-.226.329-.47a8.8,8.8,0,0,0,.583-7.379,24.183,24.183,0,0,0-3.787-6.608q-5.482-7.486-11.588-14.49c-1.586-1.82-3.38-3.717-5.752-4.164a3.568,3.568,0,0,1-1.774,3.742,8.365,8.365,0,0,1-4.278.966,23.743,23.743,0,0,1-16.619-6.614c.027,5-.023,6.663,0,11.664a10.5,10.5,0,0,0,.438,3.607c1.028,2.78,4.076,4.119,6.522,5.792,6.363,4.355,9.714,12.3,16.382,16.171a17.217,17.217,0,0,0,15.914.57A10.026,10.026,0,0,0,144.994,463.465Z"/><path class="c" d="M50.76,463.465c-.116-.151-.225-.308-.329-.47a8.808,8.808,0,0,1-.582-7.379,24.157,24.157,0,0,1,3.787-6.608q5.481-7.486,11.587-14.49c1.587-1.82,3.38-3.717,5.753-4.164a3.569,3.569,0,0,0,1.773,3.742,8.37,8.37,0,0,0,4.278.966,23.746,23.746,0,0,0,16.62-6.614c-.028,5,.022,6.663,0,11.664a10.48,10.48,0,0,1-.438,3.607c-1.028,2.78-4.076,4.119-6.521,5.792-6.364,4.355-9.715,12.3-16.383,16.171a17.215,17.215,0,0,1-15.913.57A10.038,10.038,0,0,1,50.76,463.465Z"/><path class="e" d="M146.721,464.475c4.95-6.764-1.4-14.611-5.439-19.907q-3.764-4.932-7.783-9.662c-2.258-2.648-4.61-5.683-8.189-6.481a2.028,2.028,0,0,0-2.46,2.461c.343,1.766-2.586,2.12-3.718,2.165a20.454,20.454,0,0,1-6.213-.725,21.433,21.433,0,0,1-9.4-5.292,2.022,2.022,0,0,0-3.414,1.414c.011,2.268.006,4.537,0,6.805a48.186,48.186,0,0,0,.189,7.676c.812,5.082,5.969,6.587,9.377,9.57,3.39,2.968,5.9,6.764,8.938,10.058,3.234,3.5,7.2,6.272,11.985,7.07,5.371.894,12.207-.283,15.814-4.747a2.062,2.062,0,0,0,0-2.829,2.016,2.016,0,0,0-2.829,0c-2.682,3.32-7.738,4.32-11.787,3.739-4.287-.615-7.624-3.079-10.479-6.2-2.743-3-5.056-6.374-8-9.183a30.389,30.389,0,0,0-4.906-3.7c-1.437-.9-3.229-1.88-3.929-3.522a11.011,11.011,0,0,1-.371-4.221q0-1.774,0-3.548c.007-2.324.014-4.647,0-6.97l-3.414,1.414a25.442,25.442,0,0,0,13.619,6.851c2.665.427,5.737.7,8.324-.252a5.866,5.866,0,0,0,4.07-6.639l-2.46,2.46c2.863.639,4.786,3.527,6.578,5.633q3.458,4.064,6.714,8.294a57.644,57.644,0,0,1,5.642,8.083c1.343,2.571,1.9,5.682.086,8.164a2.014,2.014,0,0,0,.718,2.736A2.046,2.046,0,0,0,146.721,464.475Z"/><path class="e" d="M52.487,462.456c-1.764-2.411-1.3-5.449-.01-7.976a55.593,55.593,0,0,1,5.739-8.271q3.173-4.14,6.559-8.113c1.828-2.152,3.807-5.161,6.732-5.814l-2.46-2.46a5.829,5.829,0,0,0,3.884,6.568c2.632,1.032,5.78.761,8.51.323a25.448,25.448,0,0,0,13.62-6.851l-3.414-1.414c-.022,4.261.164,8.553-.021,12.81-.093,2.138-1.179,3.407-2.893,4.565a57.657,57.657,0,0,0-5.2,3.609c-6.048,5.129-9.633,13.857-17.855,16-4.468,1.166-10.438.409-13.5-3.383a2.012,2.012,0,0,0-2.828,0,2.048,2.048,0,0,0,0,2.829c3.11,3.849,8.921,5.341,13.677,5.006A20.356,20.356,0,0,0,76,463.741c3.2-3.156,5.678-6.959,8.876-10.118a31.092,31.092,0,0,1,5.264-3.947,11.793,11.793,0,0,0,4.659-4.621c1.26-2.721.856-6.042.849-8.965-.006-2.547-.017-5.095,0-7.642a2.022,2.022,0,0,0-3.414-1.414,21.439,21.439,0,0,1-9.4,5.292,20.489,20.489,0,0,1-6.213.725c-1.138-.045-4.061-.4-3.719-2.165a2.028,2.028,0,0,0-2.46-2.461c-3.578.8-5.931,3.834-8.189,6.481q-4.026,4.72-7.782,9.662c-4.04,5.3-10.39,13.142-5.44,19.907a2.06,2.06,0,0,0,2.737.717A2.014,2.014,0,0,0,52.487,462.456Z"/><path class="f" d="M142.268,229.484c0,14.366-2.169,63.116-3.855,93.89-.886,16.154-3.873,96.164-6.836,102.022-3.4,1.638-24.763,2.151-34.067-.04-9.3,2.19-30.956,1.677-34.353.04-2.963-5.858-5.95-85.868-6.835-102.022-1.687-30.774-2.439-87.115-2.439-94.383"/><path class="a" d="M159.455,235.1c.846,6.789,3.742,13.12,5.987,19.584s3.746,12.461,1.948,19.062a14.057,14.057,0,0,1-1.507,3.646c-1.5,2.456-4.8,4.983-7.989,3.157-.5-.286-.958-1.7-.741-3.535.783-6.631.487-6.231.035-12.635a20.473,20.473,0,0,0-1.053-5.464,16.9,16.9,0,0,0-1.937,2.636c-.4.585-1.278,1.617-1.86,2.307a2.074,2.074,0,0,1-3.65-1.275,143.644,143.644,0,0,1,1.071-21.851l.449-7.622,9.111-.888Z"/><path class="e" d="M147.759,240.735q-.69,5.554-.964,11.148a85.374,85.374,0,0,0-.094,10.848,4.1,4.1,0,0,0,5.756,3.477c2.38-1.1,3.361-4.082,5.092-5.875l-3.342-.883a41.581,41.581,0,0,1,1.43,11.844c-.039,4.229-2.392,11.094,3.79,11.818,5.993.7,9.409-5.752,10.318-10.7,1.131-6.162-.287-12.2-2.3-18.025-2.186-6.336-5.114-12.577-5.995-19.282a2.065,2.065,0,0,0-2-2,2.012,2.012,0,0,0-2,2,70.331,70.331,0,0,0,4.335,15.391c1.853,4.968,3.95,10.123,4.331,15.465.294,4.12-.215,11.132-4.776,12.976a2.952,2.952,0,0,1-1.349.233,2.519,2.519,0,0,1-.611-.128l-.192-.06q-.623-.37.071.147a10.842,10.842,0,0,1,0-3.032,43.619,43.619,0,0,0,.378-5.144,46.5,46.5,0,0,0-1.574-12.564,2.019,2.019,0,0,0-3.343-.883c-1.449,1.5-2.348,3.432-3.8,4.943-.3.311-.231.15-.218.167-.227-.3-.053-1.6-.058-1.974q-.015-1.095-.013-2.19a145.523,145.523,0,0,1,1.124-17.715,2.012,2.012,0,0,0-2-2,2.049,2.049,0,0,0-2,2Z"/><path class="e" d="M62.286,218c10.033,0,20.065-.045,30.1-.083q16.2-.061,32.4-.132c2.867-.011,5.735-.029,8.6-.03,2.574,0,2.578-4,0-4-7.091,0-14.182.053-21.273.083q-17.437.072-34.875.132-7.474.023-14.951.03c-2.573,0-2.578,4,0,4Z"/><path class="e" d="M118.256,102.77c6.19,2.518,12.254,5.322,18.2,8.366,2.8,1.433,5.575,2.912,8.341,4.408a20.72,20.72,0,0,1,6.62,5.052c2.974,3.762,4.554,9.212,5.543,13.868a64.851,64.851,0,0,1,.933,8.53q.426,5.518.861,11.035c1.091,13.878,2.2,27.756,3.114,41.647q.7,10.56,1.24,21.129c.149,2.948.29,5.9.394,8.846.027.76.051,1.519.079,2.279a3.438,3.438,0,0,1-.148,1.923c0-.008-.363.2-.088.068.1-.046.127-.023.033,0a2.96,2.96,0,0,1-.432.049l-1.713.194-5.8.657-8.517.966a2.059,2.059,0,0,0-2,2,2.013,2.013,0,0,0,2,2c5.486-.622,10.98-1.2,16.46-1.866a4.605,4.605,0,0,0,4.252-4.778c-.019-1.715-.122-3.437-.19-5.151-.288-7.292-.709-14.58-1.159-21.864-.894-14.483-2.021-28.95-3.159-43.416q-.445-5.677-.891-11.355c-.272-3.492-.414-7.02-.839-10.5a45.206,45.206,0,0,0-5.168-16.155c-3.337-6.024-9.693-8.833-15.542-11.885q-10.452-5.452-21.366-9.91a2.012,2.012,0,0,0-2.46,1.4,2.05,2.05,0,0,0,1.4,2.46Z"/><path class="e" d="M95.7,265.684c-.435,4.761-.388,9.587-.429,14.363-.061,7.122-.036,14.246,0,21.368.057,10.326.182,20.652.168,30.978q-.022,16.55-.065,33.1-.036,18.96-.04,37.918,0,6.894.032,13.788c.012,2.155-.074,4.349.09,6.5a2.335,2.335,0,0,0,1.016,1.922,2.011,2.011,0,0,0,2.736-.718,2.051,2.051,0,0,0-.717-2.736l0,0,.717.718c.187.346.25,1.391.237.549,0-.335-.019-.67-.026-1-.023-1.224-.032-2.447-.041-3.671-.03-4.208-.035-8.417-.04-12.625q-.019-18.507.031-37.014.032-17.1.068-34.206c.016-9.585-.07-19.169-.135-28.753-.085-12.692-.4-25.455.24-38.137.039-.78.086-1.559.157-2.337a2.014,2.014,0,0,0-2-2,2.043,2.043,0,0,0-2,2Z"/><path class="e" d="M51.883,228.991c0,14.764.38,29.537.718,44.3q.624,27.306,1.947,54.574c.718,15.04,1.353,30.083,2.134,45.119s1.4,30.15,3.132,45.108c.24,2.062.475,4.145.916,6.177a10.111,10.111,0,0,0,.425,1.5c.582,1.511,2.03,1.842,3.482,2.106a75.042,75.042,0,0,0,12.091.921,125.369,125.369,0,0,0,14.974-.529,53.368,53.368,0,0,0,6.189-.939c2.511-.563,1.448-4.42-1.064-3.858-6.054,1.356-12.488,1.4-18.664,1.345-3.065-.025-6.135-.127-9.189-.4-1.263-.11-2.086-.195-3.1-.371-.413-.072-.827-.151-1.233-.257-.161-.042-.321-.1-.483-.139-.515-.115.261.135.01.019l.717.718c-.173-.352.119.385.091.224-.015-.087-.068-.178-.092-.263-.062-.222-.13-.44-.185-.663-.152-.61-.264-1.23-.369-1.849-.066-.39-.126-.78-.184-1.171q-.042-.29-.082-.578c-.092-.645.024.223-.048-.357-.129-1.036-.253-2.073-.365-3.111-.61-5.688-1.024-11.4-1.413-17.1-1-14.668-1.725-29.354-2.418-44.039-.506-10.7-.918-21.407-1.5-32.1-.952-17.588-1.394-35.205-1.783-52.812-.292-13.26-.556-26.524-.648-39.788q-.006-.891-.008-1.783c0-2.574-4-2.578-4,0Z"/><path class="e" d="M140.268,229.484c-.007,14.146-.762,28.311-1.365,42.441-.745,17.46-1.627,34.912-2.539,52.364-.541,10.348-.953,20.7-1.442,31.052-.659,13.969-1.351,27.939-2.271,41.893-.371,5.634-.772,11.269-1.314,16.891q-.161,1.662-.344,3.323-.078.705-.164,1.408-.041.33-.082.66c-.015.119-.031.237-.046.355-.053.415.06-.423,0,.017a34.679,34.679,0,0,1-.69,3.907c-.05.2-.113.387-.166.581-.162.586.131-.241.007.011l.718-.718c-.252.116.52-.133,0-.016-.164.037-.326.1-.49.141-.412.107-.831.187-1.25.26-.636.11-.821.133-1.261.183q-.818.094-1.638.17c-3.06.276-6.136.379-9.208.405-6.125.051-12.5,0-18.51-1.345-2.508-.561-3.579,3.294-1.064,3.858a72.34,72.34,0,0,0,13.18,1.4,133.672,133.672,0,0,0,13.782-.178c1.811-.122,3.623-.293,5.417-.578,1.229-.195,3.071-.408,3.776-1.566a10.936,10.936,0,0,0,1.014-3.841c.838-5.179,1.233-10.44,1.642-15.667.6-7.616,1.062-15.243,1.494-22.871.892-15.723,1.6-31.456,2.319-47.188.709-15.638,1.594-31.267,2.324-46.9.881-18.871,1.831-37.763,2.136-56.655.02-1.265.035-2.53.035-3.795,0-2.574-4-2.578-4,0Z"/><path class="e" d="M145.3,116.421c-.955,8.623-2.03,17.235-3.053,25.85q-.744,6.254-1.49,12.506a63.4,63.4,0,0,0-.213,7.309q-.087,20.238-.075,40.477-.006,5.4-.011,10.8a47.905,47.905,0,0,0,.066,5c.244,2.349.391,4.711.435,7.072.009.48.016.962.009,1.442,0,.3,0,.3.04.275a8.736,8.736,0,0,1-1.165,0l-2.962,0-7.462,0-40.474-.033q-10.053-.009-20.106-.015l-8.492,0H55.155a2.861,2.861,0,0,0-.667,0c-.191.054-.6-.137.009.194.722.391.188.244.289.086.223-.347.024-1.651.025-2.068,0-.819-.006-1.638-.016-2.457-.022-1.709-.06-3.418-.092-5.127-.037-1.924-.026-3.848-.025-5.771q.006-8.1.014-16.2c.01-11.569.033-23.138-.012-34.707-.022-5.806-.506-11.562-.9-17.355-.7-10.242-1.373-20.487-2.187-30.721-.088-1.117-.17-2.237-.294-3.352a2.059,2.059,0,0,0-2-2,2.013,2.013,0,0,0-2,2c.988,8.876,1.361,17.852,1.977,26.759q.515,7.44,1.023,14.881c.138,2.014.341,4.032.362,6.052.111,10.387.047,20.777.041,31.165-.007,10.8-.129,21.613.066,32.416.03,1.655.059,3.31.045,4.965-.016,1.834-.061,3.869,1.8,4.863,1.131.6,2.7.378,3.948.378h3.786q9.2,0,18.393.011,21.276.015,42.552.035l16.378.012c2.749,0,6.4.374,7.192-3.1.466-2.04.06-4.539-.077-6.6-.136-2.045-.331-4.045-.329-6.094q.021-22.054.059-44.109c.011-4.617.011-9.234.057-13.851a67.653,67.653,0,0,1,.739-7.26q1.825-15.324,3.633-30.651c.12-1.022.243-2.043.356-3.065a2.013,2.013,0,0,0-2-2,2.047,2.047,0,0,0-2,2Z"/><path class="e" d="M94.472,122.051c0,4.321.019,8.642.031,12.963q.036,12.508.074,25.019l.09,29.188q.039,12.735.078,25.471.021,6.933.038,13.866v.528c0,2.574,4,2.578,4,0,0-3.948-.019-7.9-.031-11.843q-.036-12.22-.074-24.441l-.09-29.155q-.039-12.988-.077-25.979-.023-7.46-.038-14.918,0-.35,0-.7c0-2.574-4-2.578-4,0Z"/><path class="f" d="M116.829,98.169a31.033,31.033,0,0,0-3.371-2.428c-1.947,3.342-7.161,12.209-9.379,15.487.95.6,1.544.973,1.544.973,1.8,1.146,12.858,4.383,14.247,4.072.081-4.073.082-12.37-.067-15.111A17.169,17.169,0,0,0,116.829,98.169Z"/><path class="f" d="M78.1,97.912a31.171,31.171,0,0,1,2.712-1.955c1.145,2.684,4.793,8.993,5.914,10.971.743,1.31,1.7,2.954,2.755,4.709l-1.414.9c-1.8,1.145-11.935,4.049-13.324,3.738-.081-4.073-.081-12.37.067-15.111A18.175,18.175,0,0,1,78.1,97.912Z"/><path class="e" d="M78.788,96.265a109.272,109.272,0,0,0,6.49,12.163,159.425,159.425,0,0,0,9.184,14.632,2.058,2.058,0,0,0,2.736.718,2.016,2.016,0,0,0,.718-2.737,159.071,159.071,0,0,1-9.038-14.377c-1.062-1.852-2.119-3.708-3.156-5.575C85.115,100,84.514,98.9,83.934,97.8c-.268-.511-.533-1.024-.787-1.541q-.166-.336-.326-.676c-.034-.074-.317-.72-.176-.377a2.064,2.064,0,0,0-2.46-1.4,2.014,2.014,0,0,0-1.4,2.46Z"/><path class="e" d="M111.735,94.724c-2.729,4.684-5.464,9.376-8.376,13.95-2.467,3.875-5.219,7.592-7.886,11.33a2.017,2.017,0,0,0,.718,2.737,2.043,2.043,0,0,0,2.736-.718c2.667-3.739,5.419-7.455,7.886-11.33,2.912-4.574,5.647-9.266,8.376-13.95,1.3-2.229-2.157-4.245-3.454-2.019Z"/><path class="e" d="M79.73,94.277a26.613,26.613,0,0,0-5.9,4.911,3.647,3.647,0,0,0-.985,1.708,7.9,7.9,0,0,0-.068,1.032c-.029.806-.043,1.613-.055,2.419q-.088,5.961.021,11.926a2.028,2.028,0,0,0,1.469,1.929,8.586,8.586,0,0,0,3.211-.238c1.429-.286,2.842-.659,4.245-1.054,2.427-.683,5.235-1.32,7.408-2.648,2.194-1.341.186-4.8-2.018-3.454-.145.088-.3.163-.446.24-.075.039-.153.07-.229.107-.331.161.261-.1.012,0-.5.2-1,.388-1.508.565-1.338.468-2.694.884-4.057,1.272-1.3.37-2.608.717-3.929,1-.495.107-.992.191-1.49.284-.455.085.313-.024.077-.012-.091,0-.188.012-.277.024-.231.03-.716-.086.064.054l1.468,1.929c-.1-5.024-.192-10.091.067-15.111l-.273,1.009a20.821,20.821,0,0,1,5.212-4.44c2.147-1.4.145-4.866-2.019-3.454Z"/><path class="e" d="M112.865,97.731a20.836,20.836,0,0,1,5.212,4.44l-.274-1.009c.259,5.02.164,10.087.067,15.111l1.468-1.929c.8-.143.332-.022.106-.056-.567-.086.195.058-.2-.016-.558-.1-1.113-.206-1.666-.332-1.429-.324-2.844-.709-4.251-1.117-1.439-.417-2.871-.862-4.285-1.355q-.826-.288-1.64-.609c-.472-.185.38.179-.038-.015-.091-.042-.183-.082-.273-.125-.156-.076-.308-.154-.456-.245-2.2-1.347-4.214,2.112-2.019,3.454a16.713,16.713,0,0,0,3.179,1.333c1.546.546,3.114,1.03,4.689,1.483,1.479.425,2.967.828,4.472,1.151a8.955,8.955,0,0,0,3.448.307,2.018,2.018,0,0,0,1.469-1.929q.115-5.961.021-11.926c-.011-.777-.025-1.554-.052-2.33-.009-.284-.011-.572-.036-.855a3.4,3.4,0,0,0-1.02-1.974,26.59,26.59,0,0,0-5.9-4.911c-2.162-1.411-4.168,2.051-2.018,3.454Z"/><path class="e" d="M44.987,113.063a108.652,108.652,0,0,1,13.58-5.346c5.492-1.875,11.038-3.687,16.683-5.045,2.5-.6,1.442-4.46-1.064-3.857-5.724,1.377-11.349,3.218-16.916,5.125a115.33,115.33,0,0,0-14.3,5.669c-2.3,1.148-.281,4.6,2.019,3.454Z"/><path class="e" d="M39.693,132.316a6.843,6.843,0,0,1,.841.547l-.4-.313a6.945,6.945,0,0,1,1.217,1.224l-.313-.405a8.854,8.854,0,0,1,1.095,1.922l-.2-.477c.136.326.256.658.363.994a2.1,2.1,0,0,0,.919,1.2,2.044,2.044,0,0,0,1.541.2,2,2,0,0,0,1.4-2.46,9.893,9.893,0,0,0-4.435-5.883,2.09,2.09,0,0,0-1.541-.2,2,2,0,0,0-.478,3.655Z"/><path class="e" d="M110.9,142.579c4.432.022,8.863.064,13.3.1q3.3.028,6.59.054a20.336,20.336,0,0,0,2.185.048c-.165.337,0-1.148-.267,0a4.819,4.819,0,0,0-.018.821c-.019.85-.04,1.7-.058,2.551,0,.1-.016.828-.015.828.259,0,.089-.467.144-.421-.074-.062-.541.012-.665.012q-1.068,0-2.137-.007-2.73-.01-5.46-.026-5.868-.03-11.735-.056a14.684,14.684,0,0,0-2.01-.034c.128-.237.092.766.258.171a3.423,3.423,0,0,0,0-.828v-2.529a3.021,3.021,0,0,0,0-.93c-.127-.264-.266.254-.107.242,2.552-.185,2.572-4.186,0-4a3.955,3.955,0,0,0-3.7,2.52,7.46,7.46,0,0,0-.19,2.381c0,1.705-.366,3.949.683,5.412,1.434,2,4.1,1.591,6.257,1.6q3.693.014,7.386.035l7.237.036c1.864.009,4.39.412,6.09-.473a3.836,3.836,0,0,0,1.959-3.515c.07-1.608.425-3.742-.088-5.287-1.019-3.072-4.686-2.544-7.235-2.564-6.132-.048-12.264-.115-18.4-.145C108.327,138.566,108.324,142.566,110.9,142.579Z"/><path class="e" d="M131.592,154.275c-.005,2.552-.069,5.1-.1,7.657-.019,1.632-.035,3.263-.036,4.9,0,.31.008.621,0,.93,0,.139-.012.313-.007.449s.115-.163.02-.086c.007-.006.187.037,0-.042a1.326,1.326,0,0,0-.44,0H129.94l-10.88.012q-2.694,0-5.388.006a8.814,8.814,0,0,0-1.935,0c-.115.03.018.036.015.116.019-.461.013-.928.026-1.39.111-4.038.34-8.079.35-12.119.006-2.574-3.994-2.578-4,0-.01,4.093-.244,8.187-.354,12.278a5.954,5.954,0,0,0,.441,3.085,3.909,3.909,0,0,0,3.1,2.005c1.79.162,3.651.022,5.448.02l12.506-.014c2.056,0,4.273.193,5.561-1.775.975-1.491.62-3.659.631-5.363.023-3.556.118-7.112.126-10.667.006-2.574-3.994-2.578-4,0Z"/><path class="e" d="M84.563,138.579c-5.539.027-11.077.085-16.615.13q-1.776.015-3.552.028c-1.367.01-2.8-.116-4,.675-1.521,1-1.655,2.527-1.617,4.194.036,1.611-.3,3.785.618,5.2,1.341,2.069,3.857,1.772,5.994,1.764q3.574-.015,7.149-.035,3.692-.02,7.381-.037c1.887-.008,4.362.372,6.147-.308,2.665-1.014,2.388-3.695,2.388-6.019,0-.753.041-1.516-.03-2.266a3.839,3.839,0,0,0-3.862-3.326c-2.568-.186-2.557,3.815,0,4,.24.017-.094-.328-.108-.318a2.865,2.865,0,0,0,0,.621v2.247c0,.216-.159,1.549,0,1.673.113.088.144-.384.2-.333a4.642,4.642,0,0,0-.915.016c-3.733.007-7.466.031-11.2.05l-5.778.029q-1.13,0-2.259.009c-.341,0-1.458-.184-1.73,0l-.131-.026a.381.381,0,0,1,.21.434c-.013,0-.017-.9-.016-.828q-.021-1.065-.048-2.13c-.006-.279-.013-.557-.019-.836l-.008-.406q.068-.775-.167-.034c-.206.013.569-.006.747-.007q3.075-.02,6.15-.048c5.024-.042,10.049-.092,15.073-.117C87.136,142.566,87.142,138.566,84.563,138.579Z"/><path class="e" d="M59.872,154.275c.007,3.062.086,6.125.115,9.187.015,1.657-.105,3.367.036,5.018A3.946,3.946,0,0,0,62,171.591a5.921,5.921,0,0,0,3.017.488l12.217.013,5.7.007c2.336,0,4.554-.984,4.765-3.61a66.081,66.081,0,0,0-.2-7.4c-.072-2.126-.16-4.254-.165-6.381-.007-2.574-4.007-2.579-4,0,.009,3.545.195,7.091.306,10.634.027.886-.032,1.816.074,2.695.038.314-.025.108.051.094.009,0-.614-.03-.832-.03l-4.881-.006-11.164-.012-2.23,0a5.562,5.562,0,0,0-.709.029c.135.03-.01-.057.038.065.063.163.007-.212.013-.309.1-1.5,0-3.047-.018-4.552-.029-3.012-.106-6.024-.113-9.036-.005-2.574-4.005-2.578-4,0Z"/><path class="a" d="M43.233,79.389c.306-1.9,3.377-8.18,4.563-9.025,1.755-1.249,4.074-1.633,5.987-2.574A19.533,19.533,0,0,0,59.3,63.866a15.523,15.523,0,0,0,3.632-6.614c.319-1.065.873-3.953,1.124-5.025,0,0,.028-5.238.121-5.271,1.932-.7,2.33-2.99,1.661-4.663a6.644,6.644,0,0,0-4.451-3.823c-1.17-.271-4.283-.375-4.913.381l-.681.816-.108-.134c-1.372-1.7-3.739-2.168-6.312-.018l-.664.755a3.374,3.374,0,0,0-2.564-.674c-1.336.273-3.282,1.458-3.743,2.769-1.542-1.389-3.568-2.827-5.545-1.892A6.246,6.246,0,0,0,33.2,45.062a34.256,34.256,0,0,0-1.246,7.222c-.094,2.5-2.938,11.887-5,14.213l-3.6,5.922"/><path class="e" d="M57.886,40.265c.253-.276-.41.255-.158.118.229-.124-.282.107-.274.106a.95.95,0,0,0,.157-.055c.119-.03.235-.066.355-.091.065-.014.13-.024.2-.037.384-.079-.519.046-.112.015a14.346,14.346,0,0,1,1.889-.03c.144.008.289.018.433.031.082.008.6.072.179.014s.063.013.16.032c.16.032.319.073.476.12.068.02.626.229.35.113s.27.14.333.174c.167.091.33.19.488.3.08.053.156.111.236.163.2.133-.287-.249-.008,0a11.081,11.081,0,0,1,.814.808c.252.275-.044-.023-.046-.071a1.46,1.46,0,0,0,.165.231,6.1,6.1,0,0,1,.36.6,1.344,1.344,0,0,0,.122.249c-.029-.021-.147-.414-.053-.122.045.142.095.282.131.427.059.236,0,.562.03.022-.008.165.029.341.029.508,0,.087-.064.611,0,.24s-.04.157-.058.229-.2.574-.061.232c.131-.321-.107.159-.155.247-.148.269.074-.118.117-.14-.039.019-.111.127-.148.165-.013.013-.153.123-.162.154.058-.186.348-.23.134-.105-.067.039-.131.084-.2.122-.089.05-.3.25-.089.054.177-.162.082-.035-.061,0-.413.107.061-.057.1-.005,0,0-.209,0-.241,0-.389.011.427.12.053,0-.177-.056-.357-.1-.532-.161-.08-.028-.157-.061-.236-.09-.234-.086.4.175.065.028q-.474-.207-.951-.406a5.537,5.537,0,0,0-3.14-.371,2.008,2.008,0,0,0-1.4,2.46,2.057,2.057,0,0,0,2.461,1.4c-.58.1-.167.041-.029.029.226-.019.094.132-.161-.037a3.108,3.108,0,0,0,.606.152c.071.023.44.208.478.178l-.241-.1.237.1c.118.051.235.1.354.152a5.711,5.711,0,0,0,3.449.568,5.038,5.038,0,0,0,3.781-4.7,7.122,7.122,0,0,0-2.28-5.49,8.645,8.645,0,0,0-5.414-2.462,12.05,12.05,0,0,0-2.483.006,4.424,4.424,0,0,0-2.883,1.1,2,2,0,0,0,2.828,2.828Z"/><path class="e" d="M50.785,40.929a6.065,6.065,0,0,1,1.1-.668,4.03,4.03,0,0,1,.627-.177c-.32.067.369-.006.463,0-.344-.008.09.032.208.05.221.077.234.073.039-.015a2.677,2.677,0,0,1,.245.124c.077.046.55.406.275.162.143.127.27.261.4.4.152.181.164.2.038.044.056.079.109.16.16.242.115.2.238.4.343.6,0,0,.262.554.14.273.1.227.179.464.259.7a20.712,20.712,0,0,1,.715,2.851c.159.851.283,1.708.407,2.564l.1.668c-.054-.362.01.077.022.2a10.788,10.788,0,0,1,.055,1.3c0,.183-.02.365-.03.548-.025.472.08-.237-.028.177-.059.225-.117.449-.178.674-.122.445.18-.237-.066.146-.035.054-.361.534-.213.356s-.266.245-.317.286c.326-.26-.152.061-.191.084q-.312.151-.055.029c-.131.045-.263.085-.4.119-2.479.681-1.426,4.542,1.064,3.857a5.754,5.754,0,0,0,4.109-4.062,12.891,12.891,0,0,0-.015-5.44c-.51-3.508-1.112-8.446-4.657-10.272-2.621-1.35-5.3-.379-7.453,1.359a2.015,2.015,0,0,0,0,2.829,2.048,2.048,0,0,0,2.829,0Z"/><path class="e" d="M42.773,48.772c.217.811.465,1.617.645,2.438s.2,1.692.328,2.537a8.689,8.689,0,0,0,1.67,4.261c2.039,2.536,6.042,1.987,8.027-.358a6.636,6.636,0,0,0,1.431-4.762c-.114-1.868-.483-3.762-.763-5.613-.5-3.3-1.461-6.714-4.35-8.7-3.276-2.258-7.865-.217-9.29,3.264a2.013,2.013,0,0,0,1.4,2.46,2.049,2.049,0,0,0,2.46-1.4c-.1.243.17-.171.078-.065a3.654,3.654,0,0,1,.54-.515,5.374,5.374,0,0,1,1.108-.621,1.479,1.479,0,0,1,1.7.332c1.629,1.242,2.076,3.7,2.411,5.717.213,1.289.366,2.588.561,3.881a11.689,11.689,0,0,1,.17,1.914,2.941,2.941,0,0,1-.088.724,3.2,3.2,0,0,1-.1.316c-.124.332.1-.2-.056.114a1.432,1.432,0,0,1-.427.549,3.113,3.113,0,0,1-1.268.482c.228-.057-.353,0-.014.01-.024,0-.3-.1-.132-.013l-.11-.057c-.187-.1-.258-.218-.427-.531a8.04,8.04,0,0,1-.694-2.856,25.826,25.826,0,0,0-.948-4.569c-.666-2.484-4.526-1.43-3.857,1.063Z"/><path class="e" d="M43.814,40.951c-1.617-1.428-3.507-2.815-5.771-2.773A7.081,7.081,0,0,0,33.285,40.6a10.653,10.653,0,0,0-2.224,4.731A37.014,37.014,0,0,0,30,51.452a13.2,13.2,0,0,1-.4,2.806c-.331,1.422-.74,2.827-1.189,4.216-.42,1.3-.868,2.589-1.4,3.841-.241.565-.5,1.124-.793,1.665-.141.262-.3.515-.446.772-.071.111-.143.221-.219.328q.2-.245-.007,0c-1.655,1.952,1.161,4.8,2.828,2.828a20.355,20.355,0,0,0,3.179-6.287,48.339,48.339,0,0,0,2.11-7.234c.222-1.12.269-2.23.382-3.362a31.944,31.944,0,0,1,1.086-5.434,4.745,4.745,0,0,1,1.786-2.87c1.561-1.075,2.826-.045,4.072,1.056,1.923,1.7,4.762-1.121,2.828-2.829Z"/><path class="e" d="M61.984,52.337c-.664,3.117-1.2,6.3-3.111,8.946-2.166,3.011-5.5,4.589-8.869,5.82A9.775,9.775,0,0,0,46,69.331a14.555,14.555,0,0,0-1.846,2.813A24.006,24.006,0,0,0,41.3,78.857c-.467,2.516,3.387,3.595,3.857,1.063a21.2,21.2,0,0,1,2.72-6.253c.267-.468.544-.933.852-1.375.189-.271.065-.208.408-.425,1.555-.986,3.429-1.362,5.1-2.1a19.128,19.128,0,0,0,8.524-7.131c1.754-2.832,2.392-6.03,3.074-9.236.534-2.51-3.321-3.583-3.857-1.063Z"/><path class="e" d="M36.6,48.028A4.723,4.723,0,0,0,39.289,52a28.654,28.654,0,0,0,3.42,1.486l-.478-.2c.113.048.226.1.335.153a2.121,2.121,0,0,0,1.541.2,2,2,0,0,0,.478-3.656c-.787-.4-1.643-.666-2.457-1.007l.478.2a8.9,8.9,0,0,1-1.927-1.047l.4.313a3.624,3.624,0,0,1-.643-.625l.312.405a2.361,2.361,0,0,1-.282-.48l.2.478a1.922,1.922,0,0,1-.121-.441l.071.532a2.08,2.08,0,0,1-.016-.284,2,2,0,0,0-4,0Z"/><path class="e" d="M31.042,132.692c3.251,1.842,4.123-4.813,4.579-6.6.985-3.861,1.9-7.74,2.826-11.616,1.665-6.976,3.48-13.917,5.219-20.875,1.02-4.084,2.053-8.165,3.025-12.26a2.063,2.063,0,0,0-1.4-2.461C37.674,75.9,30.071,72.833,22.287,70.3a2.007,2.007,0,0,0-2.259.919,218.74,218.74,0,0,0-8.447,20.774C9.495,98.445,7.274,104.857,5.452,111.4,5,113,4.571,114.621,4.233,116.257c-.511,2.479-1.257,4.872-1.957,7.3a56.7,56.7,0,0,0-1.513,7.9A45.992,45.992,0,0,0,0,138.769C.207,149.219,9.4,158,19.733,158a61.3,61.3,0,0,0,18.391-3.3c4.875-1.57,9.67-3.59,14.681-4.7,2.513-.554,1.45-4.412-1.063-3.857a120.4,120.4,0,0,0-12.476,3.965,80.919,80.919,0,0,1-14.038,3.464c-5.147.765-10.193.7-14.53-2.486a16.5,16.5,0,0,1-6.644-11.3,28.711,28.711,0,0,1,.453-6.489A63.37,63.37,0,0,1,5.9,125.462c.693-2.514,1.562-4.981,2.077-7.541.294-1.464.646-2.913,1.034-4.355,1.789-6.653,4.018-13.181,6.173-19.721,2.32-7.038,5.314-13.836,8.3-20.611l-2.259.919c7.785,2.537,15.387,5.6,23.008,8.586l-1.4-2.461c-3.25,13.7-6.788,27.331-10.136,41.006-.484,1.973-.972,3.947-1.5,5.909-.191.713-.384,1.427-.6,2.131-.066.213-.155.426-.211.642-.066.249-.223.193.088-.194-.381.474.931-.747.6-.528l1.009-.273h-.014l1.009.273-.012-.007c-2.243-1.271-4.261,2.184-2.019,3.454Z"/><path class="e" d="M90.9,78.756a12.788,12.788,0,0,0,6.155,1.433,10.112,10.112,0,0,0,6.3-1.9,2,2,0,0,0,0-2.829,2.064,2.064,0,0,0-2.829,0c.685-.534-.069.016-.288.132-.171.089-.637.229-.024.031-.17.055-.335.128-.506.183-.215.069-.433.128-.653.179-.118.028-.7.061-.76.144.068-.095.392-.045-.012-.005-.139.014-.277.025-.416.034-.335.022-.67.03-1,.028q-.45,0-.9-.032c-.137-.009-.275-.02-.412-.034-.078-.008-.157-.016-.235-.026q-.232-.028.159.021a3.771,3.771,0,0,1-1.321-.293c-.185-.056-.365-.122-.548-.185-.463-.158.4.194-.018,0-.227-.107-.45-.218-.671-.335A2,2,0,1,0,90.9,78.756Z"/><path class="e" d="M95.83,64.528a27.9,27.9,0,0,1,.654,2.992l-.071-.531a1.84,1.84,0,0,1,.011.413l.071-.532a1.073,1.073,0,0,1-.045.186l.2-.478a.772.772,0,0,1-.065.12l.313-.4a.636.636,0,0,1-.1.1l.405-.313a1.994,1.994,0,0,1-.237.126l.477-.2a1.678,1.678,0,0,1-.4.117l.532-.072a1.622,1.622,0,0,1-.375,0l.531.071c-.141-.02-.28-.054-.421-.073a1.526,1.526,0,0,0-.8-.036,1.477,1.477,0,0,0-.743.238,2,2,0,0,0-.718,2.736,1.916,1.916,0,0,0,1.195.919c.363.049.716.14,1.086.156a3.547,3.547,0,0,0,1.652-.4,2.485,2.485,0,0,0,1.347-1.627,3.881,3.881,0,0,0-.014-1.7c-.163-.964-.386-1.92-.634-2.865a2,2,0,0,0-2.46-1.4,2.017,2.017,0,0,0-1.2.919,2.1,2.1,0,0,0-.2,1.541Z"/><path class="e" d="M80.457,55.93c-.5,1.624-.174,5.36,2.9,5.677,4.066-.024,4.283-4.54,2.914-6.664C85.152,53.2,81.857,52.481,80.457,55.93Z"/><path class="e" d="M113.019,55.93c.5,1.624.174,5.36-2.9,5.677-4.067-.024-4.283-4.541-2.915-6.664C108.323,53.2,111.618,52.481,113.019,55.93Z"/></svg>