<?xml version="1.0" encoding="utf-8"?>
<!-- Uploaded to: SVG Repo, www.svgrepo.com, Generator: SVG Repo Mixer Tools -->
<svg width="800px" height="800px" viewBox="0 -37.6 412.142 412.142" xmlns="http://www.w3.org/2000/svg"><defs><style>.a{fill:#ffffff;}.b{fill:#c9e8f3;}.c{fill:#211715;}.d{fill:#d9d9d9;}.e{fill:#79c6e0;}.f{fill:#ad7b59;}.g{fill:#a0a0a0;}</style></defs><path class="a" d="M361.056,303.529c-38.128,0-292.286-.466-300.894-.466-15.22,0-39.539,1.4-48.881-8.953C2.573,284.46,2,264.637,2,253.286c0-14.938,4.943-35.03,17.8-45.432,7.041-5.7,28.583-20.557,35.245-29.609,4.329-5.884,12.509-16,15.325-19.915,7.124-9.49,18.9-24.576,32.22-40.1,10.464-12.2,26.227-22.892,43.02-22.892H360.953c14.593,0,27.538,9.712,31.539,20.3C397,127.56,409.4,189.15,409.4,209.47c0,11.155.586,33.75.586,47.561,0,18.32-7.648,35.459-22.358,41.186C384.3,299.511,372.981,303.529,361.056,303.529Z"/><path class="b" d="M376.805,128.747c1.771,7.9,7.524,35.673,7.524,52.735a8.633,8.633,0,0,1-8.485,8.473c-15.5-.032-22.383-.113-38.122-.144a8.468,8.468,0,0,1-8.451-8.469c0-15.186-.019-45.21-.025-59.735a8.468,8.468,0,0,1,8.474-8.469h22.145C368.966,113.138,374.615,118.984,376.805,128.747Z"/><path class="b" d="M101.64,190.142c-4.937,0-12.275.272-15.534-3.728-3.452-4.236-.641-13.391,2.511-17.26,4.937-6.061,17.093-20.951,20.417-24.942,5.759-6.913,12.919-14.957,19.908-22.6,4.635-5.069,13.375-8.473,20.242-8.473,7.851,0,19.882.262,31.927.395a8.42,8.42,0,0,1,8.329,8.387c.05,12.559.072,31.959-.072,36.156-.133,3.87-.35,15.236-.467,23.639a8.436,8.436,0,0,1-8.428,8.321C157.952,190.063,106.973,190.142,101.64,190.142Z"/><path class="c" d="M158.986,84.635l-14.935,0c0,.814.135,9.7.135,10.448,2.283,0,12.849-.05,14.876-.05C159.062,94.254,158.986,85.135,158.986,84.635Z"/><path class="c" d="M360.138,84.635l-14.935,0c0,.814.136,9.7.136,10.448,2.283,0,12.848-.05,14.875-.05C360.214,94.254,360.138,85.135,360.138,84.635Z"/><path class="c" d="M158.986,82.635l-14.935,0a2.029,2.029,0,0,0-2,2c.006,3.483.129,6.965.135,10.448a2.03,2.03,0,0,0,2,2c4.959,0,9.917-.049,14.876-.05a2.028,2.028,0,0,0,2-2c0-3.467-.071-6.934-.076-10.4,0-2.574-4-2.579-4,0,.005,3.466.073,6.933.076,10.4l2-2c-4.959,0-9.917.049-14.876.05l2,2c-.006-3.483-.129-6.965-.135-10.448l-2,2,14.935,0C161.56,86.635,161.564,82.635,158.986,82.635Z"/><path class="c" d="M360.138,82.635l-14.935,0a2.029,2.029,0,0,0-2,2c.006,3.483.129,6.965.136,10.448a2.028,2.028,0,0,0,2,2c4.958,0,9.917-.049,14.875-.05a2.028,2.028,0,0,0,2-2c0-3.467-.071-6.934-.076-10.4,0-2.574-4-2.579-4,0,0,3.466.073,6.933.076,10.4l2-2c-4.958,0-9.917.049-14.875.05l2,2c-.007-3.483-.13-6.965-.136-10.448l-2,2,14.935,0C362.712,86.635,362.716,82.635,360.138,82.635Z"/><path class="d" d="M130.614,2.422c0,8.078.065,74.21.065,82.852,18.834,0,224.7-.751,241.939-.751,0-12.666-1.148-71.277-1.148-82.523C353.378,2,142.205,2.422,130.614,2.422Z"/><path class="b" d="M315.185,121.611v59.871a8.468,8.468,0,0,1-8.485,8.473c-15.5-.032-78.577-.113-94.315-.144a8.467,8.467,0,0,1-8.451-8.469c0-15.186-.019-45.21-.025-59.735a8.466,8.466,0,0,1,8.473-8.469h94.33A8.473,8.473,0,0,1,315.185,121.611Z"/><path class="c" d="M299.443,115.138c2.336,0,4.672-.012,7.008,0a6.565,6.565,0,0,1,6.727,6.124c.242,4.7.007,9.476.007,14.185v6.064c0,2.574,4,2.578,4,0V126.334a52.7,52.7,0,0,0-.063-5.76,10.588,10.588,0,0,0-9.716-9.408c-2.631-.2-5.325-.028-7.963-.028-2.574,0-2.578,4,0,4Z"/><path class="a" d="M7.888,223.67c3.922,0,16.935.087,20.382.087,6.04,0,2.232,9.692.941,13.328-1.412,3.974-4.27,10.622-7.61,13.259-2.939,2.32-12.5,1.645-17.946,1.664"/><path class="c" d="M361.056,301.529q-11.574,0-23.149-.019-18.855-.022-37.708-.052-23.415-.035-46.83-.073l-51.157-.084-50.077-.085-43.608-.074-32.316-.055q-7.8-.012-15.6-.023c-8.377,0-16.766.283-25.125-.413-9.24-.768-19.975-2.539-25.122-11.167C4.948,280.4,4.284,268.715,4.05,258.4c-.239-10.582.849-20.989,4.665-30.942a46.051,46.051,0,0,1,8.607-14.5,65.074,65.074,0,0,1,9.433-7.938c8.158-6.126,16.483-12.168,23.941-19.152a77.792,77.792,0,0,0,8.517-9.86c3.317-4.338,6.724-8.606,10.06-12.929,6.821-8.84,13.529-17.749,20.561-26.428,8.533-10.532,16.881-21.942,28.155-29.727a55.562,55.562,0,0,1,17.224-8.2c6.439-1.7,12.989-1.393,19.588-1.393H358.328A40.26,40.26,0,0,1,370.793,98.9a34.18,34.18,0,0,1,14.7,9.346c4.761,5.173,6.358,11.5,8.018,18.112,4.441,17.676,7.852,35.672,10.7,53.668,1.274,8.062,2.463,16.174,3,24.323.6,9.052.325,18.211.476,27.28.1,5.856.2,11.712.258,17.568.058,5.643.251,11.326-.608,16.923-1.619,10.546-6.232,21.626-15.474,27.671a42.125,42.125,0,0,1-11.685,4.8,71.482,71.482,0,0,1-19.116,2.934c-2.573.019-2.578,4.019,0,4a75.44,75.44,0,0,0,19.909-3,47.56,47.56,0,0,0,12.463-5c9.419-5.915,14.89-16.427,17.157-27.053,2.411-11.305,1.352-23.291,1.164-34.768-.161-9.839.039-19.745-.44-29.572a238.775,238.775,0,0,0-2.8-24.273c-1.491-9.787-3.242-19.536-5.155-29.25-1.709-8.674-3.531-17.334-5.643-25.92-1.586-6.443-3.056-13.1-7.108-18.511a37.921,37.921,0,0,0-29.99-14.85c-6.379-.019-12.759,0-19.139,0H158.143c-6.7,0-13.56-.458-20.188.7a53.979,53.979,0,0,0-17.81,6.776c-12.041,7.046-20.618,17.748-29.351,28.37-7.75,9.427-15.393,18.979-22.637,28.8-3.106,4.212-6.412,8.278-9.623,12.41-2.808,3.614-5.4,7.419-8.632,10.675-7.285,7.341-15.8,13.471-24.05,19.661a98.519,98.519,0,0,0-9.786,7.772,46.041,46.041,0,0,0-9.525,13.884A76.523,76.523,0,0,0,0,254.6c.048,10.471.518,21.566,4.325,31.443,1.749,4.538,4.232,8.865,8.168,11.839,3.815,2.882,8.528,4.435,13.16,5.407,12.57,2.638,25.605,1.763,38.368,1.781q11.472.017,22.945.037l38.111.065,47.835.081,52.287.088q25.389.042,50.779.082,22.077.035,44.156.066,15.822.021,31.644.037,4.638,0,9.277,0C363.63,305.529,363.634,301.529,361.056,301.529Z"/><path class="c" d="M8.488,225.67c4.363,0,8.726.043,13.088.068,1.616.009,3.686-.127,5.08.042a1.015,1.015,0,0,1,.709.267,1.816,1.816,0,0,1,.348.334,4.358,4.358,0,0,1,.711,2.11c.423,3.255-.646,6.915-1.9,10.086a41.348,41.348,0,0,1-3.5,7.031c-1.006,1.575-2.222,3.209-3.8,3.7a26.1,26.1,0,0,1-7.388.772c-2.725.032-5.449-.075-8.174-.071-2.574,0-2.578,4,0,4,5.266-.007,10.836.607,16.005-.673,5.237-1.3,7.9-7.079,9.858-11.617,1.733-4.023,3.225-8.33,2.937-12.785a8.311,8.311,0,0,0-2.187-5.664c-1.6-1.5-3.622-1.508-5.674-1.516-5.368-.02-10.737-.081-16.106-.083-2.574,0-2.578,4,0,4Z"/><path class="c" d="M18,231.12a8.366,8.366,0,0,1-.136,2.031c.152-.567-.012.045-.034.177-.032.192-.066.383-.1.574q-.1.509-.226,1.013a21.247,21.247,0,0,1-.661,2.168c-.051.143-.105.285-.16.426-.037.1-.262.733-.085.223a9.34,9.34,0,0,1-.509,1.087,2,2,0,1,0,3.453,2.018A22.1,22.1,0,0,0,22,231.12a2,2,0,0,0-4,0Z"/><path class="c" d="M101.64,188.142a56.973,56.973,0,0,1-7.7-.268c-2.23-.3-5.012-.931-6.424-2.874-1.26-1.734-1.141-4.322-.8-6.318a20.06,20.06,0,0,1,2.527-6.935,40.668,40.668,0,0,1,3.545-4.564q2.338-2.868,4.68-5.734,4.706-5.762,9.423-11.514c3.128-3.809,6.289-7.59,9.522-11.312q3.627-4.178,7.326-8.294c2.409-2.688,4.744-5.517,7.328-8.039a27.24,27.24,0,0,1,15.685-7.02,70.782,70.782,0,0,1,8.15-.1c3.421.034,6.843.086,10.264.138q5.748.087,11.495.169c2.849.038,6.093-.441,8.448,1.518,1.969,1.637,2.324,3.818,2.333,6.234q.017,4.29.024,8.579c.018,9.143.125,18.3-.138,27.438-.156,5.424-.244,10.849-.335,16.274q-.039,2.352-.074,4.7a9.969,9.969,0,0,1-.521,3.9,6.522,6.522,0,0,1-5.243,3.881,59.15,59.15,0,0,1-5.956.035l-6.276.008-14.792.02q-25.275.036-50.549.07H101.64c-2.574,0-2.578,4,0,4q24.132,0,48.265-.065l28.978-.039c2.708,0,5.26-.258,7.54-1.878a10.554,10.554,0,0,0,4.4-7.424c.369-3.15.157-6.453.213-9.623q.082-4.695.183-9.388c.2-9.262.265-18.517.255-27.782q-.006-4.451-.018-8.9c-.009-2.8.355-5.921-.63-8.6a10.547,10.547,0,0,0-5.945-6.156,11.6,11.6,0,0,0-4.267-.761c-2.135-.034-4.27-.052-6.4-.083-7.314-.1-14.627-.247-21.942-.3a41.353,41.353,0,0,0-8.935.652,34.488,34.488,0,0,0-9.066,3.33,27.46,27.46,0,0,0-7.386,5.772q-4.049,4.434-8.041,8.917c-4.207,4.73-8.361,9.508-12.392,14.39q-9.336,11.307-18.57,22.7c-3.344,4.1-5.634,9.472-5.339,14.862a9.564,9.564,0,0,0,3.221,7.115,15.334,15.334,0,0,0,7.988,2.963,61.846,61.846,0,0,0,7.89.293C104.214,192.14,104.218,188.14,101.64,188.142Z"/><path class="c" d="M374.876,129.279c3.321,14.826,6.152,29.979,7.188,45.151.133,1.943.227,3.89.256,5.838a7.53,7.53,0,0,1-1.438,5.2,6.6,6.6,0,0,1-5.038,2.484c-2.731.052-5.47-.013-8.2-.024-9.485-.035-18.97-.1-28.454-.117-2.167,0-4.118-.142-5.8-1.678a6.568,6.568,0,0,1-2.122-4.794c-.062-3.635,0-7.278,0-10.914q0-13.385-.011-26.769l-.006-12.746q0-2.7,0-5.393a31.585,31.585,0,0,1,.068-4.923,6.567,6.567,0,0,1,6.558-5.459c1.764-.013,3.529,0,5.293,0h15.814a17.093,17.093,0,0,1,6.792,1.1,14.563,14.563,0,0,1,7.193,7.323,26.531,26.531,0,0,1,1.91,5.721c.577,2.508,4.434,1.446,3.857-1.064a25.066,25.066,0,0,0-5.779-11.731,17.324,17.324,0,0,0-10.807-5.216,48.936,48.936,0,0,0-5.511-.13H339.477c-2.593,0-5.1.162-7.368,1.63a10.7,10.7,0,0,0-4.249,5.316,17.22,17.22,0,0,0-.612,6.067q0,6.03,0,12.058l.012,28.561q0,6.4,0,12.8a33.334,33.334,0,0,0,.184,5.68,10.31,10.31,0,0,0,3.353,5.935c4.161,3.579,9.932,2.634,15.027,2.652q7.215.025,14.429.066,3.791.019,7.581.033c2.828.011,5.715.186,8.537.005a10.718,10.718,0,0,0,9.811-8.908,32.411,32.411,0,0,0,0-6.428c-.114-2.23-.29-4.457-.5-6.68-.462-4.783-1.1-9.549-1.82-14.3-1.227-8.068-2.716-16.1-4.412-24.08q-.354-1.665-.725-3.327C378.171,125.705,374.314,126.767,374.876,129.279Z"/><path class="c" d="M83.379,262.032c-22.079,0-37.34,17.1-37.34,37.11,0,23.164,14.444,37.806,37.341,37.806,23.43,0,37.341-14.642,37.341-37.806C120.721,279,105.379,262.032,83.379,262.032Z"/><path class="a" d="M83.38,287.061a12.149,12.149,0,0,0-12.39,12.313c0,7.686,4.792,12.545,12.39,12.545,7.774,0,12.39-4.859,12.39-12.545A12.138,12.138,0,0,0,83.38,287.061Z"/><path class="c" d="M329.245,262.032c-22.078,0-37.339,17.1-37.339,37.11,0,23.164,14.443,37.806,37.34,37.806,23.431,0,37.341-14.642,37.341-37.806C366.587,279,351.246,262.032,329.245,262.032Z"/><path class="a" d="M329.246,287.061a12.149,12.149,0,0,0-12.39,12.313c0,7.686,4.793,12.545,12.39,12.545,7.775,0,12.391-4.859,12.391-12.545A12.139,12.139,0,0,0,329.246,287.061Z"/><path class="c" d="M212.591,201.14c-1.918.039-4.143-.268-5.69,1.1a4.3,4.3,0,0,0-1.389,3.2c-.039,1.291,0,2.589,0,3.881v11.839c0,2.094.544,4.16,2.8,4.921a7.577,7.577,0,0,0,2.69.183,9.75,9.75,0,0,0,3.026-.3,4.191,4.191,0,0,0,2.721-3.877c.129-3.211,0-6.454,0-9.667v-6.139c0-.339.015-.683,0-1.022a4.214,4.214,0,0,0-4.158-4.119c-2.573-.124-2.567,3.877,0,4,.384.018.158,5.649.158,6.148v9.894a2.727,2.727,0,0,1,0,.888c-.207.392-1.295.183-1.747.2-.434.013-1.292.29-1.49-.134a3.064,3.064,0,0,1,0-.97V206.239c0-.188-.1-.735,0-.905.031-.053.022-.082.074-.132.146-.139,1.09-.022,1.309-.027l1.7-.035C215.161,205.087,215.17,201.087,212.591,201.14Z"/><path class="c" d="M180.68,210.979c-.04-1.918.267-4.142-1.1-5.689a4.3,4.3,0,0,0-3.2-1.389c-1.291-.039-2.589,0-3.88,0h-11.84c-2.093,0-4.16.544-4.921,2.8a7.606,7.606,0,0,0-.183,2.691,9.72,9.72,0,0,0,.3,3.026,4.188,4.188,0,0,0,3.877,2.72c3.211.13,6.453,0,9.666,0h6.139c.34,0,.683.016,1.022,0a4.216,4.216,0,0,0,4.12-4.158c.123-2.573-3.877-2.567-4,0-.019.384-5.649.158-6.149.158h-9.894a2.694,2.694,0,0,1-.887,0c-.392-.206-.184-1.294-.2-1.746-.013-.435-.29-1.293.135-1.49a3.057,3.057,0,0,1,.969,0H175.58c.188,0,.736-.1.906,0,.052.031.081.021.131.074.14.146.023,1.09.027,1.308l.036,1.7C176.732,213.55,180.732,213.559,180.68,210.979Z"/><path class="c" d="M128.614,2.422q0,14.566.022,29.133.018,20.486.035,40.971,0,6.374.008,12.748a2.029,2.029,0,0,0,2,2q5.279,0,10.556-.02,9.551-.024,19.1-.055l25.582-.08,29.974-.1,32.412-.108,32.488-.109,30.605-.1,26.635-.086q10.321-.032,20.644-.062,6.195-.016,12.389-.029h1.552a2.03,2.03,0,0,0,2-2c0-10.1-.228-20.211-.389-30.314q-.309-19.445-.617-38.889c-.063-4.439-.141-8.88-.142-13.32a2.029,2.029,0,0,0-2-2q-5.24,0-10.48.011-9.631.014-19.263.031l-26,.045L285.368.143,252.615.2,219.783.265,189.19.322,162.88.37,142.966.4q-5.6.01-11.2.017h-1.153c-2.574,0-2.578,4,0,4q4.38,0,8.759-.012,8.961-.014,17.92-.03l25.029-.046,29.752-.055L244.6,4.218l32.974-.061,31.1-.057,27.192-.048,21.171-.035q6.416-.009,12.83-.016h1.6l-2-2c0,9.766.232,19.535.389,29.3q.314,19.586.616,39.172c.066,4.683.142,9.368.143,14.052l2-2q-5.067,0-10.135.02-9.387.024-18.773.055l-25.344.08-29.826.1-32.356.108-32.522.109-30.731.1-26.85.086q-10.476.032-20.953.062-6.393.016-12.786.029h-1.663l2,2q0-14.767-.022-29.536-.018-20.428-.035-40.857,0-6.23-.008-12.459C132.614-.152,128.614-.156,128.614,2.422Z"/><path class="c" d="M360.621,126.926q.359.451.712.907l-.313-.405a37.022,37.022,0,0,1,2.426,3.486,2.084,2.084,0,0,0,1.195.92,2.05,2.05,0,0,0,1.542-.2,2.017,2.017,0,0,0,.919-1.195,2.071,2.071,0,0,0-.2-1.541,45.527,45.527,0,0,0-3.451-4.8,2,2,0,0,0-1.414-.586,2.034,2.034,0,0,0-1.414.586,2.012,2.012,0,0,0-.586,1.414l.071.532a2,2,0,0,0,.515.883Z"/><path class="c" d="M350.58,125.266c3.35,4.671,6.26,9.634,9.414,14.435a2.047,2.047,0,0,0,2.737.718,2.021,2.021,0,0,0,.717-2.737c-3.154-4.8-6.064-9.764-9.414-14.435a2.058,2.058,0,0,0-2.737-.718,2.016,2.016,0,0,0-.717,2.737Z"/><path class="c" d="M111.3,176.6c2,2.785,3.732,5.744,5.612,8.606a2,2,0,1,0,3.454-2.019c-1.88-2.862-3.615-5.821-5.613-8.606a2.045,2.045,0,0,0-2.736-.717,2.022,2.022,0,0,0-.717,2.736Z"/><path class="d" d="M90.037,167.8a12.608,12.608,0,0,1,2.374-6.864c1.473-1.984,5.467-3.77,7.954-3.77h3.323a3.569,3.569,0,0,1,3.537,3.631c0,5.707-.1,12.085-.1,13.527,0,2.125.1,8.819.1,13.509a3.569,3.569,0,0,1-3.537,3.631h-3.323c-2.487,0-6.481-1.787-7.954-3.77a12.614,12.614,0,0,1-2.374-6.865C89.844,178.609,89.844,170.027,90.037,167.8Z"/><path class="c" d="M92.037,167.8c.309-3.252,1.5-5.994,4.487-7.526a12.856,12.856,0,0,1,6.337-1.108c.807,0,1.615-.064,2.108.72a3.183,3.183,0,0,1,.256,1.793q0,1.554-.014,3.107c-.019,3.04-.07,6.08-.087,9.12-.014,2.446.037,4.892.061,7.337q.025,2.583.038,5.166c0,1.125.21,2.7-1.222,3.02a11.127,11.127,0,0,1-2.345.035,10.862,10.862,0,0,1-2.6-.176c-2.984-.721-5.434-2.4-6.413-5.393-.854-2.614-.732-5.469-.75-8.187-.016-2.627-.071-5.287.141-7.908.208-2.566-3.794-2.553-4,0-.22,2.722-.16,5.485-.138,8.213.023,3.029-.046,6.224.948,9.124a12.106,12.106,0,0,0,8.146,7.718,17.841,17.841,0,0,0,7.308.556,5.521,5.521,0,0,0,4.51-3.477c.706-1.773.412-3.923.4-5.795-.024-3.292-.093-6.584-.088-9.875.006-3.454.076-6.908.095-10.362.011-2.079.289-4.332-.884-6.171a5.651,5.651,0,0,0-4.669-2.565,17.835,17.835,0,0,0-9,1.573c-4.39,2.179-6.186,6.375-6.632,11.061a2.015,2.015,0,0,0,2,2A2.043,2.043,0,0,0,92.037,167.8Z"/><path class="c" d="M279.414,284.483q-13.086.022-26.172.015-17.98,0-35.963-.011-18.693-.011-37.387-.025-15.45-.012-30.9-.026-8.016-.006-16.033-.013h-.544c-2.574,0-2.578,4,0,4q6.811,0,13.625.011l29.507.025q18.507.015,37.013.025,18.3.011,36.6.014,13.914,0,27.828-.011l2.424,0c2.574,0,2.579-4,0-4Z"/><path class="a" d="M257.421,174.377c-18.371,0-20.073-11.5-20.073-11.5.47-.16,7.07-2.6,7.24-2.66,2.45-.89,2.35-2.46,2.66-4.23a37.655,37.655,0,0,0,.519-4.241,22.084,22.084,0,0,1-7.958-6.261,26.172,26.172,0,0,1-4.988-9.736l-.983-.151a6.49,6.49,0,0,1-3.016-1.359,9.777,9.777,0,0,1-2.529-3.32,15.385,15.385,0,0,1-1.569-8.158,5.148,5.148,0,0,1,.537-2.066,3.634,3.634,0,0,1,2.612-1.736,3.846,3.846,0,0,1,3.078.9s-3.679-20.74,25.655-20.74,25.971,20.74,25.971,20.74a3.847,3.847,0,0,1,3.078-.9,3.634,3.634,0,0,1,2.612,1.736,5.132,5.132,0,0,1,.537,2.066,15.385,15.385,0,0,1-1.569,8.158,9.777,9.777,0,0,1-2.529,3.32,6.485,6.485,0,0,1-3.016,1.359l-.516.08c-.247.926-.526,1.706-.662,2.121-.91,2.469-6.154,11.237-12.655,13.946a38.423,38.423,0,0,0,.631,4.246c.309,1.763.212,3.338,2.662,4.222.162.059,7.381,2.931,7.629,3.033C280.779,163.243,275.791,174.377,257.421,174.377Z"/><path class="c" d="M237.88,164.8c1.83-.63,3.639-1.333,5.456-2,.652-.24,1.311-.469,1.958-.723a5.467,5.467,0,0,0,3.641-4.07,46.168,46.168,0,0,0,.833-6.272,2.011,2.011,0,0,0-2-2,2.047,2.047,0,0,0-2,2c-.024.382-.053.763-.09,1.144-.023.237-.049.475-.077.712-.011.093-.024.186-.034.279-.023.217.037-.234-.018.141-.12.818-.257,1.635-.386,2.452-.044.278-.093.556-.164.829a1.992,1.992,0,0,0-.141.445c0-.014.193-.375.086-.212a2.652,2.652,0,0,0-.14.257c-.138.284.292-.272-.017.028a1.75,1.75,0,0,0-.184.181c-.131.175.147-.109.14-.1-.072.123-.4.249-.518.315-.359.2.289-.089-.176.081-1.651.6-3.3,1.216-4.948,1.823-.761.28-1.519.57-2.285.834a2,2,0,1,0,1.064,3.857Z"/><path class="c" d="M253.855,141.238a11.066,11.066,0,0,0,5.326,1.247A8.823,8.823,0,0,0,264.7,140.8a2,2,0,0,0,.586-1.415,2,2,0,0,0-2-2,2.352,2.352,0,0,0-1.415.586c.7-.543.04-.054-.176.06-.17.089-.6.224.056-.006-.142.05-.28.108-.424.154-.39.125-.792.168-1.185.27.189-.049.394-.047.075-.015-.116.011-.233.021-.349.029-.281.018-.562.025-.843.023q-.378,0-.755-.027c-.115-.008-.23-.017-.346-.029-.065-.006-.131-.013-.2-.022-.159-.019-.087-.009.218.03a3.185,3.185,0,0,0-.568-.106c-.181-.041-.361-.087-.54-.14-.155-.047-.306-.1-.459-.155-.427-.146.449.212.061.029-.19-.089-.377-.183-.563-.281a2,2,0,0,0-2.019,3.454Z"/><path class="c" d="M257.841,129.11a23.2,23.2,0,0,1,.549,2.51l-.071-.531a1.54,1.54,0,0,1,.009.346l.072-.532a.828.828,0,0,1-.039.156l.2-.478a.615.615,0,0,1-.055.1l.313-.405a.571.571,0,0,1-.082.081l.405-.313a1.577,1.577,0,0,1-.2.105l.478-.2a1.453,1.453,0,0,1-.336.1l.532-.071a1.328,1.328,0,0,1-.315,0l.532.072c-.118-.017-.235-.046-.353-.062a1.515,1.515,0,0,0-.8-.035,1.492,1.492,0,0,0-.744.237,2,2,0,0,0-.717,2.736l.313.405a1.992,1.992,0,0,0,.882.515c.333.044.657.127,1,.142a3.3,3.3,0,0,0,1.549-.38,2.392,2.392,0,0,0,1.278-1.557,3.588,3.588,0,0,0-.012-1.6c-.136-.809-.323-1.61-.531-2.4a2.065,2.065,0,0,0-.92-1.195,2.038,2.038,0,0,0-1.541-.2,2.017,2.017,0,0,0-1.195.919,2.108,2.108,0,0,0-.2,1.541Z"/><path class="c" d="M245.255,121.811c-.419,1.362-.146,4.5,2.435,4.763,3.411-.02,3.593-3.81,2.444-5.591C249.194,119.524,246.43,118.918,245.255,121.811Z"/><path class="c" d="M272.572,121.811c.42,1.362.147,4.5-2.434,4.763-3.412-.021-3.593-3.81-2.445-5.591C268.633,119.524,271.4,118.918,272.572,121.811Z"/><path class="c" d="M267.871,151.956c.147,1.872.55,3.719.845,5.57A5.382,5.382,0,0,0,271.8,161.8c1.963.886,4.017,1.6,6.018,2.4.81.322,1.622.639,2.429.969a2.006,2.006,0,0,0,2.461-1.4,2.062,2.062,0,0,0-1.4-2.46c-1.713-.7-3.439-1.371-5.159-2.055-.776-.308-1.552-.62-2.33-.924l-.14-.054c-.383-.146-.093-.04-.021,0-.1-.049-.195-.095-.29-.148s-.172-.1-.258-.158c-.308-.185.145.18.021.017a1.841,1.841,0,0,0-.183-.181c-.073-.07-.265-.192-.039-.034.168.117.075.116.02.006-.032-.065-.076-.14-.114-.2-.167-.274.066.11.06.16a1.155,1.155,0,0,0-.076-.22,5.1,5.1,0,0,1-.132-.514c-.185-.874-.293-1.769-.448-2.649-.088-.494-.175-.988-.251-1.484-.015-.1-.027-.195-.043-.291-.043-.263.046.424.007.044-.022-.222-.047-.443-.064-.666a2,2,0,0,0-4,0Z"/><path class="e" d="M305.725,189.238a24.044,24.044,0,0,0-1.068-6.729,34.421,34.421,0,0,0-2.491-5.714c-1.953-3.23-5.082-5.556-8.239-7.624-2.681-1.757-8.03-3.842-10.676-5.128a36.78,36.78,0,0,0-4.694-2.093l-.049-.049a79.794,79.794,0,0,1-5.9-6.114c-3.834,1.352-8.874,4.521-12.208,5.945h-2.639c-2.876-1.949-9.114-5.767-12.949-7.12-1.317,1.484-3.616,3.763-5.659,5.633-2.333,1.081-5.557,2.521-6.6,3.2a62.874,62.874,0,0,0-10.794,5.805c-3.157,2.068-6.286,4.394-8.239,7.624a34.421,34.421,0,0,0-2.491,5.714,24.044,24.044,0,0,0-1.068,6.729"/><path class="c" d="M307.725,189.238a31.307,31.307,0,0,0-2.429-10.589,22.291,22.291,0,0,0-7.687-9.354,46.5,46.5,0,0,0-9.22-5.124c-3.108-1.375-6.132-2.913-9.3-4.15l.882.515a71.522,71.522,0,0,1-5.952-6.163,1.931,1.931,0,0,0-1.945-.515c-4.44,1.61-8.372,4.269-12.686,6.147l1.009-.273h-2.639l1.009.273a63.081,63.081,0,0,0-13.426-7.321,1.955,1.955,0,0,0-1.946.514c-1.157,1.29-2.383,2.518-3.629,3.721a11.3,11.3,0,0,1-1.949,1.748c-.758.442-1.631.749-2.427,1.119-2.892,1.343-5.8,2.717-8.632,4.18-6.429,3.318-13.328,7.631-16.267,14.528a31.511,31.511,0,0,0-2.53,10.828c-.153,2.571,3.847,2.562,4,0a26.512,26.512,0,0,1,1.865-8.492,18.154,18.154,0,0,1,6.434-8.118c5.231-3.855,11.109-6.661,16.974-9.391.863-.4,1.756-.764,2.6-1.2a10.641,10.641,0,0,0,2.289-1.922c1.41-1.346,2.8-2.721,4.1-4.172l-1.946.514a45.949,45.949,0,0,1,7.488,3.79q1.839,1.082,3.633,2.237a5.1,5.1,0,0,0,2.771,1.164c.733.02,1.5.048,2.227,0,1.379-.091,2.915-1.159,4.12-1.787a72.479,72.479,0,0,1,8.62-4.23l-1.946-.514a34.913,34.913,0,0,0,3.1,3.366c1.041,1.029,2.18,2.539,3.491,3.211,1.391.712,2.912,1.159,4.3,1.893,1.117.591,2.291,1.077,3.448,1.586,5.873,2.583,12.525,5.68,15.546,11.719a25.854,25.854,0,0,1,2.644,10.262c.152,2.558,4.153,2.575,4,0Z"/><path class="a" d="M308.665,147.057a2.293,2.293,0,0,0-2.276,1.525,2.3,2.3,0,0,0-1.971-1.68c-.767-.1-1.578.644-2.138,1.914-1.9,4.3-7.028,18.783-5.831,15.871l-1.111-1.746a30.025,30.025,0,0,1-1.583-2.854c-.653-1.39-2.008-1.736-3.948-1.366-1.642.313-1.934,2.019-2.017,2.864a47.515,47.515,0,0,0,.607,9.6,32.255,32.255,0,0,0,1.327,4.874,12.221,12.221,0,0,0,4.653,5.856,16.492,16.492,0,0,0,17.013-1.905,28.144,28.144,0,0,0,5.147-6.708,59.441,59.441,0,0,0,3.962-10.143c.788-2.656-.024-4.745-1.612-5.489a3.4,3.4,0,0,0-2.345.221s-.181.117-.5.325a42.817,42.817,0,0,0,.608-5.459c.052-1.358-.688-3.531-2.082-3.879-1.109-.277-2.121.089-3.362,1.1a2.364,2.364,0,0,0-1.949-2.92C309.059,147.056,308.86,147.052,308.665,147.057Z"/><path class="c" d="M317.393,161.532a48.347,48.347,0,0,0,.982-5.528,13.475,13.475,0,0,0,.01-5.271,5.212,5.212,0,0,0-3.078-3.719c-2.059-.687-3.93.309-5.512,1.554l3.343,1.946c.359-2.372-.761-4.99-3.372-5.392a4.669,4.669,0,0,0-5.1,2.451l3.655.478a4.525,4.525,0,0,0-3.367-3.077,4,4,0,0,0-4.1,2.243,39.282,39.282,0,0,0-2.515,6.123c-1.381,3.645-2.885,7.319-3.968,11.067-.716,2.477,3.143,3.535,3.857,1.063.853-2.952,2.024-5.843,3.091-8.722.681-1.841,1.372-3.678,2.1-5.5q.209-.522.422-1.04c.217-.522-.163.359.05-.118.086-.191.165-.383.261-.571.105-.2.234-.385.352-.578.317-.52.187-.058.06-.09q-.77-.03-.213.079a.083.083,0,0,1-.076-.043c-.023-.129.166.181.185.227a2.045,2.045,0,0,0,1.663,1.433,1.988,1.988,0,0,0,1.993-.955c.039-.077.468-.728.243-.485-.079.086.312-.061.037-.035a4.564,4.564,0,0,1,.536-.016c.088,0,.3.015.3.012s-.081.029-.085.025a.59.59,0,0,1,.135.358,2.019,2.019,0,0,0,3.342,1.946,4.2,4.2,0,0,1,1.13-.607c-.1.041.5.032.207-.03-.176-.037.166.146.1.049a3.375,3.375,0,0,1,.584,2.111,36.006,36.006,0,0,1-1.11,7.548c-.615,2.5,3.241,3.566,3.857,1.064Z"/><path class="c" d="M295.27,184.428c5.517,1.9,12.82,1.187,17.343-2.828a27.062,27.062,0,0,0,6.1-8.162,57.207,57.207,0,0,0,2.32-5.53,24.343,24.343,0,0,0,1.744-6.154c.342-4.076-3.215-7.665-7.24-5.591-2.289,1.18-.268,4.633,2.019,3.454a.61.61,0,0,1,.813.107,2.071,2.071,0,0,1,.438,1.469c.008,1.944-1.042,4.063-1.709,5.864a29.842,29.842,0,0,1-5.409,9.7c-.572.645-1.174,1.258-1.762,1.887-.087.092-.473.38-.021.038-.123.093-.249.185-.378.269a14.81,14.81,0,0,1-13.191,1.616c-2.439-.839-3.487,3.023-1.063,3.857Z"/><path class="c" d="M296.348,180.7c-4.976-2.37-6.047-8.591-6.443-13.534-.118-1.474-.16-2.952-.141-4.43.008-.622-.063-1.8.337-2.05.245-.156,1.458-.235,1.8.163a14.063,14.063,0,0,1,1.08,2.046c.205.356.415.709.635,1.056,1.37,2.171,4.833.166,3.453-2.019-.791-1.254-1.3-2.863-2.336-3.932a5.254,5.254,0,0,0-4.565-1.339c-4.391.534-4.485,4.641-4.385,8.171.2,6.9,1.537,15.982,8.55,19.322,2.312,1.1,4.344-2.347,2.019-3.454Z"/><path class="c" d="M307.4,167.967c-.063-.007-.125-.015-.188-.024l.532.072c-2.374-.334-4.613-1.238-6.932-1.8a2,2,0,0,0-1.063,3.857,66.622,66.622,0,0,0,7.651,1.9,1.991,1.991,0,0,0,1.414-.586,2,2,0,0,0,0-2.828,2.331,2.331,0,0,0-1.414-.586Z"/><path class="c" d="M281.651,132.731a14.29,14.29,0,0,1-.835,3.839c-.064.194-.481,1.238-.18.587-.126.272-.248.545-.382.813a32.983,32.983,0,0,1-2.844,4.57c-2.412,3.308-5.824,6.9-9.907,7.857-2.5.588-1.444,4.446,1.064,3.857,5.146-1.207,9.131-5.406,12.158-9.5,2.607-3.53,4.744-7.533,4.926-12.018.1-2.574-3.9-2.569-4,0Z"/><path class="f" d="M288.636,102.879c-.1-.567-.2-1.092-.293-1.565-2.675-13.118-15.888-23.53-29.743-22.77a26.979,26.979,0,0,0-7.938.767v-.005c-.593-6-8.317-7.707-14.724-5.114a23.117,23.117,0,0,0-4.694,2.46,10.336,10.336,0,0,0-4.084,5.243c-1.147,3.57-.394,10.329,3.235,10.612,0,0,.921-.157,2.3-.415a26.621,26.621,0,0,0-3.843,9.222,37.289,37.289,0,0,0,.021,12.416l1.326,5.2a3.815,3.815,0,0,1,2.747.931c5.476-3.8,14.765-10.4,19.574-14.534-.4,2.455-1.8,6.631-.03,6.2,7.393-1.712,14.479-5.165,18.764-10.551a51.86,51.86,0,0,0,3.492,9.354c1.551,2.657,6.047,8.635,9.826,9.529a3.847,3.847,0,0,1,3.078-.9,3.7,3.7,0,0,1,.48.105C290.06,114.6,289.412,107.4,288.636,102.879Z"/><path class="c" d="M251.194,81.234a38.992,38.992,0,0,1,7.947-.713,24.61,24.61,0,0,1,5.871.488,28.423,28.423,0,0,1,10.934,4.912,27.8,27.8,0,0,1,7.794,8.772,28.7,28.7,0,0,1,3.227,10.379c.594,4.348.954,9.263-.742,13.413a2.013,2.013,0,0,0,1.4,2.461,2.05,2.05,0,0,0,2.46-1.4c1.7-4.162,1.5-9.081,1.009-13.465a35.881,35.881,0,0,0-3.166-12.021A32.258,32.258,0,0,0,267.46,77.478a29.383,29.383,0,0,0-7.6-.972,42.511,42.511,0,0,0-9.732.871c-2.5.6-1.443,4.454,1.063,3.857Z"/><path class="c" d="M230.791,113.31a30.8,30.8,0,0,1-.369-8.408,26.606,26.606,0,0,1,1.912-8.361c2.219-5.442,6.6-9.107,11.726-11.734,2.291-1.174.27-4.626-2.019-3.453-5.992,3.069-10.864,7.523-13.444,13.827a33.454,33.454,0,0,0-1.663,19.193c.556,2.512,4.413,1.449,3.857-1.064Z"/><path class="c" d="M269.44,101.892c1.2,4.092,2.55,8.217,5.073,11.7,2.345,3.236,5.474,7.15,9.532,8.195,2.5.643,3.559-3.214,1.064-3.857a4.357,4.357,0,0,1-.846-.294,10.282,10.282,0,0,1-1.058-.622,14.211,14.211,0,0,1-1.969-1.652,29.421,29.421,0,0,1-3.529-4.152c-2.2-3.113-3.346-6.751-4.41-10.38-.723-2.465-4.584-1.416-3.857,1.064Z"/><path class="c" d="M269.919,99.466a27.441,27.441,0,0,1-11.341,8.07c-1.132.455-2.287.858-3.454,1.214q-.88.269-1.771.5a8.04,8.04,0,0,0-.992.25l-.4.094,1.662.955c.036-.015-.1.225,0-.154a5.119,5.119,0,0,0,.04-.619c.045-.361.13-.722.2-1.077.195-.949.424-1.891.588-2.846a2.019,2.019,0,0,0-3.343-1.946,236.994,236.994,0,0,1-19.169,14.221c-2.1,1.458-.1,4.926,2.019,3.454a247.006,247.006,0,0,0,19.978-14.846l-3.342-1.946c-.365,2.133-1.473,4.739-.8,6.895,1.02,3.274,5.4,1.268,7.557.546,5.825-1.952,11.5-5.08,15.394-9.939a2.06,2.06,0,0,0,0-2.828,2.013,2.013,0,0,0-2.828,0Z"/><path class="c" d="M285.991,121.271a1.79,1.79,0,0,1,2.486.329,4.1,4.1,0,0,1,.378,2.055,12.611,12.611,0,0,1-.173,2.6c-.562,3.081-2.093,6.8-5.523,7.415a2.018,2.018,0,0,0-1.4,2.461,2.045,2.045,0,0,0,2.46,1.4c5.527-.991,8.169-7.215,8.585-12.225.219-2.632-.043-5.564-2.312-7.258a5.879,5.879,0,0,0-7.332.4,2.016,2.016,0,0,0,0,2.829,2.043,2.043,0,0,0,2.828,0Z"/><path class="c" d="M234.365,118.442a5.882,5.882,0,0,0-7.332-.4c-2.271,1.687-2.53,4.631-2.312,7.258.416,5.01,3.058,11.234,8.585,12.225a2.058,2.058,0,0,0,2.461-1.4,2.018,2.018,0,0,0-1.4-2.46c-3.431-.616-4.961-4.335-5.524-7.416a12.533,12.533,0,0,1-.175-2.447,4.843,4.843,0,0,1,.317-2.1,1.771,1.771,0,0,1,2.549-.431,2.055,2.055,0,0,0,2.828,0,2.016,2.016,0,0,0,0-2.829Z"/><path class="c" d="M232.064,132.586a30.2,30.2,0,0,0,6.448,14.449,21.634,21.634,0,0,0,14.132,8,2.014,2.014,0,0,0,2-2,2.046,2.046,0,0,0-2-2c-4.692-.507-8.642-3.559-11.539-7.114a26.645,26.645,0,0,1-5.184-12.4,2.018,2.018,0,0,0-2.46-1.4,2.047,2.047,0,0,0-1.4,2.461Z"/><path class="c" d="M230.4,90.507c.162.019-.321-.181-.3-.165a2.507,2.507,0,0,1-.752-1.074,8.5,8.5,0,0,1-.64-2.768,8.655,8.655,0,0,1,1.685-6.4,15.419,15.419,0,0,1,6.542-4.161,12.942,12.942,0,0,1,7.337-.671c2.075.487,4.123,1.75,4.4,4.034a2.062,2.062,0,0,0,2,2,2.012,2.012,0,0,0,2-2c-.905-7.615-9.371-9.43-15.709-7.579a20.125,20.125,0,0,0-9.285,5.425,12.506,12.506,0,0,0-2.955,9.489c.292,3.524,1.71,7.406,5.682,7.866a2.011,2.011,0,0,0,2-2,2.048,2.048,0,0,0-2-2Z"/><path class="g" d="M267.875,155.67c-2.271-4.778-5.636-6.442-11.483-6.22-9.778.371-12.948,14.083-4.907,19.246l.528-.009c.008,5.276-.047,11.684-.114,17.423l10.2.63c.158-4.036.36-12.463.481-18.219l.75-.012C268.343,166.483,269.579,159.257,267.875,155.67Z"/><path class="c" d="M252.018,166.684l-.53.01,1.009.273a8.129,8.129,0,0,1-3.574-6.821,9.338,9.338,0,0,1,.775-3.919,14.256,14.256,0,0,1,1.018-1.758c.343-.5-.135.153.091-.125.1-.123.2-.244.308-.362a10.224,10.224,0,0,1,.955-.93c.467-.4-.3.2.2-.157.1-.074.21-.147.318-.217a9.817,9.817,0,0,1,1.014-.574c.565-.278-.345.115.249-.111.188-.071.379-.136.571-.195a9.082,9.082,0,0,1,1.207-.285,18.481,18.481,0,0,1,2.468-.069,11.34,11.34,0,0,1,2.8.377,7.99,7.99,0,0,1,5.643,6.339c-.068-.405.025.256.026.275q.034.42.036.842a11.384,11.384,0,0,1-.067,1.305c-.078.7.074-.349-.055.351-.054.3-.117.591-.192.882a10.945,10.945,0,0,1-.415,1.3,6.483,6.483,0,0,1-3.551,3.674l1.01-.273q-5.655.076-11.31.17c-2.572.039-2.579,4.039,0,4l10.224-.155a5.34,5.34,0,0,0,2.311-.38,9.568,9.568,0,0,0,3.672-3.119,13.184,13.184,0,0,0,2.358-8.283,12.246,12.246,0,0,0-3.637-7.951,12.481,12.481,0,0,0-8.312-3.328,12.9,12.9,0,0,0-8.383,1.973,12.651,12.651,0,0,0-4.653,6.38,13.2,13.2,0,0,0,.025,8.456,12.362,12.362,0,0,0,2.4,4.079c1.046,1.18,2.361,2.359,4,2.328,2.571-.049,2.579-4.049,0-4Z"/><path class="c" d="M264.1,186.192c.231-5.887.357-11.779.49-17.668.058-2.575-3.942-2.574-4,0-.133,5.889-.259,11.781-.49,17.668-.1,2.574,3.9,2.569,4,0Z"/><path class="c" d="M250.018,168.684c.01,5.81-.05,11.62-.12,17.43-.031,2.575,3.969,2.576,4,0,.07-5.81.13-11.62.12-17.43,0-2.574-4-2.578-4,0Z"/><path class="a" d="M244.754,188.82c-.007-2.354,3.01-8.274,5.205-8.912a25.859,25.859,0,0,1,6.605-.537,15.923,15.923,0,0,1,6.254,1.3c3.639,1.745,3.024,4.592,2.71,7.887Z"/><path class="c" d="M246.754,188.82c.012-.546-.056.066.02-.31q.061-.3.139-.591a12.248,12.248,0,0,1,.531-1.549,17.647,17.647,0,0,1,1.629-2.973,7.181,7.181,0,0,1,.856-1.068c.059-.06.642-.55.331-.332a2.829,2.829,0,0,1,.43-.255c-.525.244.37-.048.5-.076.291-.06.582-.107.876-.143.775-.092,1.561-.124,2.34-.144,2.667-.069,6.265-.162,8.46,1.641a2.428,2.428,0,0,1,.893,1.935,24.283,24.283,0,0,1-.235,3.6,2.014,2.014,0,0,0,2,2,2.045,2.045,0,0,0,2-2c.227-2.319.584-4.787-.651-6.908-1.5-2.567-4.689-3.611-7.46-4.023a28.2,28.2,0,0,0-8.987.124c-2.376.428-3.848,2.089-5.092,4.056a14.614,14.614,0,0,0-2.584,7.013c-.059,2.575,3.941,2.574,4,0Z"/><path class="c" d="M311.776,186.279c-2.084,1.715-4.658,1.464-7.17,1.459l-6.314-.011-16.84-.025L241,187.644l-17.416-.026-6.661-.011a31.425,31.425,0,0,1-5.609-.111c-3.557-.673-5.278-3.752-5.279-7.132q0-4.99,0-9.982,0-12-.01-24,0-11.086-.01-22.172a17.513,17.513,0,0,1,.217-4.48,6.446,6.446,0,0,1,2.8-3.807c2.149-1.333,4.767-.995,7.185-.995h2.507c2.574,0,2.578-4,0-4-2.042,0-4.085-.03-6.126,0a10.629,10.629,0,0,0-9.366,5.566c-1.654,3.19-1.217,6.913-1.215,10.391q0,5.6,0,11.2.006,12.8.011,25.594,0,5.809,0,11.62c0,3.518-.468,7.343,1.146,10.588a10.628,10.628,0,0,0,9.557,5.719c1.852.014,3.7.007,5.555.01l16.349.025,42.023.06,18.5.027c4.285.007,8.627.22,12.907.013a10.955,10.955,0,0,0,6.535-2.628c1.989-1.636-.855-4.452-2.829-2.828Z"/></svg>