<?xml version="1.0" encoding="utf-8"?>
<!-- Uploaded to: SVG Repo, www.svgrepo.com, Generator: SVG Repo Mixer Tools -->
<svg width="800px" height="800px" viewBox="-68.73 0 303.041 303.041" xmlns="http://www.w3.org/2000/svg"><defs><style>.a{fill:#ffffff;}.b{fill:#89705d;}.c{fill:#211715;}</style></defs><path class="a" d="M82.824,139.44c-47.518,0-80.363,36.8-80.363,79.87,0,49.853,31.085,81.367,80.366,81.367,50.427,0,80.366-31.514,80.366-81.367C163.193,175.95,130.175,139.44,82.824,139.44Zm0,139.056c-35.722,0-58.254-22.843-58.254-58.98,0-31.217,23.808-57.895,58.252-57.895,34.323,0,58.256,26.465,58.256,57.895C141.081,255.653,119.38,278.5,82.827,278.5Z"/><path class="b" d="M102.61,2.318c0-14.345.5,125.814.5,156.77,0,3.842-4,7.352-7.352,8.267a56.834,56.834,0,0,1-12.667,1.124c-5.213-.051-10.971-.144-14.454-1.056-3.527-.923-6.083-5.711-6.083-8.806,0-28.443.6-146.442.6-155.944"/><path class="c" d="M65.389,20.9c0-6.077.157-12.153.159-18.23,0-3.088-4.8-3.093-4.8,0,0,6.077-.158,12.153-.159,18.23,0,3.089,4.8,3.094,4.8,0Z"/><path class="c" d="M100.65,122.443q0,10.161.031,20.323.011,5.52.019,11.038c0,2.691.586,5.95-1.162,8.208-2.678,3.457-7.14,3.668-11.155,3.922-3.048.193-6.1.157-9.151.089a64.8,64.8,0,0,1-7.8-.486c-1.962-.284-3.442-.707-4.7-2.337a8.479,8.479,0,0,1-1.783-4.77c-.041-3.336.013-6.675.025-10.011.03-8.659.081-17.318.082-25.976,0-3.089-4.8-3.094-4.8,0,0,8.12-.048,16.24-.077,24.36q-.02,5.619-.03,11.24c0,4.389,2.429,9.3,6.552,11.2,2.385,1.1,5.282,1.217,7.865,1.387,3,.2,6.011.241,9.015.248a68.722,68.722,0,0,0,8.965-.541,17.488,17.488,0,0,0,6.68-1.875,13.045,13.045,0,0,0,5.347-5.539,12.236,12.236,0,0,0,.931-5.437q0-5.186-.015-10.371-.023-12.338-.039-24.676c0-3.089-4.8-3.094-4.8,0Z"/><path class="c" d="M100.21,2.318q0,9.051.038,18.1c.009,3.088,4.809,3.094,4.8,0q-.03-9.051-.038-18.1c0-3.088-4.8-3.093-4.8,0Z"/><path class="a" d="M107.52,112.121c.016,3.144.026,5.9.03,8.155a1.985,1.985,0,0,1-1.983,1.987c-8.026.029-37.415.152-45.5.18a1.979,1.979,0,0,1-1.988-1.984c.011-21.074-.082-80.727-.084-98.768a.719.719,0,0,1,.714-.724c4.893-.072,33.6-.5,46.177-.547a1.982,1.982,0,0,1,1.99,1.983c.038,12.476.4,61.479.578,88.164"/><path class="c" d="M105.175,112.121q.015,3.137.026,6.273l0,1.154a2.093,2.093,0,0,0,0,.548c.151.431-.173.051.055.028.093-.009.2-.338.294-.261-.084-.069-.467,0-.585,0l-5.542.022-15.9.064-16.315.065-5.87.023a4.445,4.445,0,0,0-1.012,0c-.307.081-.227-.2.079.126.242.258.052.408.122.024a15.779,15.779,0,0,0,0-2.68q0-14.913-.019-29.824-.018-17.88-.039-35.762-.016-14.01-.026-28.02,0-.555,0-1.109c0-.161.008-.325,0-.486-.028-.58.222-.434-.121.082l-.861.861c-.507.345-.809.067-.343.107a4.081,4.081,0,0,0,.428-.008l.856-.017q1.36-.028,2.72-.06,3.66-.082,7.318-.158c6.26-.127,12.52-.229,18.781-.26,3.714-.018,7.428-.017,11.141-.026l2.666-.007c.354,0,1.55.2,1.829,0,.18-.129-.663-.173-.332-.417a3.017,3.017,0,0,0,0,.783q0,.91.008,1.821c.089,18.059.253,36.119.392,54.178q.126,16.469.242,32.936c.021,3.087,4.821,3.094,4.8,0q-.112-16.821-.248-33.642-.137-17.779-.269-35.56-.049-6.771-.092-13.542-.015-2.467-.027-4.936c-.011-2.372-.065-4.83-2.56-5.995-1.679-.785-4.076-.42-5.884-.415l-6.72.016q-8.964.019-17.927.163c-5.43.092-10.859.225-16.289.335A4.665,4.665,0,0,0,56.8,19.3c-1.159.984-1.153,2.283-1.153,3.665l0,4.927q.01,14.552.029,29.1.02,17.174.038,34.347.012,13.826.015,27.652a7.161,7.161,0,0,0,.548,3.595,4.593,4.593,0,0,0,4.121,2.257c1.7.027,3.4-.013,5.1-.019l15.012-.06,15.949-.064,6.29-.025c2.176-.009,4.571.282,6.164-1.529,1.285-1.46,1.084-3.344,1.079-5.151q-.009-2.937-.025-5.873c-.015-3.088-4.815-3.094-4.8,0Z"/><path class="c" d="M61.96,139.438A80.55,80.55,0,0,0,19.5,165.494,83.272,83.272,0,0,0,.483,210.846,96.526,96.526,0,0,0,7.608,258.2,71.9,71.9,0,0,0,34.5,290.086c12.865,8.295,28.115,12.154,43.3,12.835,15.731.707,31.878-1.651,46.15-8.519a70.053,70.053,0,0,0,30.024-27.671c7.773-13.28,11.133-28.714,11.57-43.985a85.421,85.421,0,0,0-12.469-47.835A80.452,80.452,0,0,0,115.65,143.32a81.287,81.287,0,0,0-11.907-3.873c-3-.731-4.28,3.9-1.276,4.629a76.208,76.208,0,0,1,39.955,24.365A77.542,77.542,0,0,1,160.389,211a94.429,94.429,0,0,1-6.257,44.686,66.162,66.162,0,0,1-24.16,29.767c-11.889,7.907-25.96,11.708-40.179,12.569-14.888.9-30.405-.961-43.968-7.207A66.882,66.882,0,0,1,16.531,265c-7.609-12.44-11.07-26.985-11.595-41.519-.581-16.095,3.079-31.986,11.578-45.753a75.114,75.114,0,0,1,35.065-29.9,81.2,81.2,0,0,1,11.657-3.768c3-.73,1.729-5.36-1.276-4.628Z"/><path class="c" d="M108.7,169.89a54.373,54.373,0,0,1,23.571,23.169c5.359,10.174,7.04,21.545,6.168,32.926a59.484,59.484,0,0,1-8.39,27.088,46.62,46.62,0,0,1-19.128,17.107c-8.9,4.371-19.184,5.991-29.142,5.865-9.881-.125-19.879-2.131-28.548-6.834a47.476,47.476,0,0,1-18.668-18.239c-4.9-8.568-7.16-18.465-7.53-28.336a58.2,58.2,0,0,1,7.454-31.525,53.65,53.65,0,0,1,30.72-24.523c2.939-.92,1.684-5.555-1.276-4.629a58.841,58.841,0,0,0-28.645,19.5,61.332,61.332,0,0,0-12.844,32.3,70.255,70.255,0,0,0,4.636,32.7,53.806,53.806,0,0,0,17.909,23.2c8.37,6.139,18.437,9.431,28.672,10.65a74.8,74.8,0,0,0,32.569-3.057,52.745,52.745,0,0,0,23.825-16.052,58.625,58.625,0,0,0,12.159-27.128c2.1-11.741,1.771-24.075-2.264-35.378a59.61,59.61,0,0,0-21.432-28.5,57.159,57.159,0,0,0-7.394-4.463c-2.749-1.393-5.181,2.746-2.422,4.145Z"/><path class="c" d="M90.8,130.508c-5.2,0-10.4.122-15.6.124a2.4,2.4,0,0,0,0,4.8c5.2,0,10.4-.122,15.6-.124a2.4,2.4,0,1,0,0-4.8Z"/></svg>