<?xml version="1.0" encoding="utf-8"?>
<!-- Uploaded to: SVG Repo, www.svgrepo.com, Generator: SVG Repo Mixer Tools -->
<svg width="800px" height="800px" viewBox="0 -66.92 378.979 378.979" xmlns="http://www.w3.org/2000/svg"><defs><style>.a{fill:#ffffff;}.b{fill:#fecb87;}.c{fill:#211715;}.d{fill:#c6c6c6;}.e{fill:#74c66d;}</style></defs><path class="a" d="M2,243.121H376.979V2.07H2V243.121"/><path class="b" d="M136.379,88.555H75.261c.006,36.384.006,69.209.006,109.1h61.112V88.556"/><rect class="a" x="251.771" y="136.41" width="13.229" height="14.445"/><path class="c" d="M251.771,138.41H265l-2-2v14.445l2-2H251.771l2,2V136.41a2,2,0,0,0-4,0v14.445a2.028,2.028,0,0,0,2,2H265a2.029,2.029,0,0,0,2-2V136.41a2.029,2.029,0,0,0-2-2H251.771a2,2,0,0,0,0,4Z"/><path class="d" d="M233.139,104.631h50.493a2.939,2.939,0,0,1,2.94,2.939v14.074a17.549,17.549,0,0,1-17.549,17.549H233.139a2.939,2.939,0,0,1-2.94-2.939V107.57A2.939,2.939,0,0,1,233.139,104.631Z"/><path class="c" d="M276.156,137.193H236.583a24.951,24.951,0,0,1-3.437,0c-1.422-.2-.947-2.562-.947-3.6v-8.842c0-5.6-.034-11.194,0-16.79.007-1.162.719-1.334,1.7-1.334h48.833c1.054,0,1.833.1,1.84,1.383.028,5.8,0,11.6,0,17.394v1.658c0,2.574,4,2.579,4,0v-16.68c0-.9.028-1.81,0-2.712a5.063,5.063,0,0,0-3.734-4.894,15.448,15.448,0,0,0-3.729-.149H235.433a10.424,10.424,0,0,0-4.295.444c-2.923,1.311-2.939,4.1-2.939,6.784v8.966c0,5.716-.076,11.437,0,17.152a5.117,5.117,0,0,0,5.356,5.216c1.754.016,3.509,0,5.264,0h37.337c2.574,0,2.578-4,0-4Z"/><path class="b" d="M203.31,96.456v.95h-9.86V80.576h9.86v15.88Z"/><path class="a" d="M183.59,96.456V80.576h9.86v16.83h-9.86Z"/><path class="b" d="M183.59,96.456v.95h-9.86V80.576h9.86v15.88Z"/><path class="c" d="M175.725,95.907V80.577c0-2.574-4-2.578-4,0v15.33c0,2.574,4,2.578,4,0Z"/><path class="c" d="M203.313,78.577H173.725c-2.573,0-2.578,4,0,4h29.588c2.574,0,2.578-4,0-4Z"/><path class="c" d="M185.588,96.461V80.871c0-2.574-4-2.578-4,0v15.59c0,2.574,4,2.578,4,0Z"/><path class="c" d="M195.45,96.461V80.871c0-2.574-4-2.578-4,0v15.59c0,2.574,4,2.578,4,0Z"/><path class="c" d="M205.313,96.461V80.871c0-2.574-4-2.578-4,0v15.59c0,2.574,4,2.578,4,0Z"/><path class="c" d="M160.936,99.405H216.1c2.573,0,2.578-4,0-4H160.936c-2.574,0-2.578,4,0,4Z"/><path class="c" d="M208.936,97.405v6.167a2,2,0,1,0,4,0V97.405a2,2,0,0,0-4,0Z"/><path class="c" d="M164.1,97.405v6.167a2,2,0,0,0,4,0V97.405a2,2,0,0,0-4,0Z"/><path class="b" d="M303.622,243.115c22.383,0,45.758-.009,73.357-.018-13.478-8.323-52.16-32.271-73.368-45.443-24.612,0-103.821,0-114.121,0H75.358c-20.968,13.027-59.942,37.156-73.4,45.465H189.49C234,243.121,267.523,243.121,303.622,243.115Z"/><path class="c" d="M73.267,50.968V197.657c0,2.574,4,2.578,4,0V50.968c0-2.574-4-2.578-4,0Z"/><path class="c" d="M229.934,199.654q30.72,0,61.439,0h12.339c2.574,0,2.578-4,0-4l-55.713,0H229.934c-2.574,0-2.578,4,0,4Z"/><path class="c" d="M75.267,199.657H213.6c2.574,0,2.578-4,0-4H75.267c-2.573,0-2.578,4,0,4Z"/><path class="c" d="M75.267,52.968H303.712c2.574,0,2.578-4,0-4H75.267c-2.573,0-2.578,4,0,4Z"/><path class="c" d="M2,245.121H376.979a2.029,2.029,0,0,0,2-2V2.07a2.029,2.029,0,0,0-2-2H2a2.029,2.029,0,0,0-2,2V243.121c0,2.573,4,2.578,4,0V2.07l-2,2H376.979l-2-2V243.121l2-2H2c-2.574,0-2.578,4,0,4Z"/><path class="c" d="M.955,3.8q12.606,8.455,25.262,16.839Q42.54,31.492,58.862,42.346q7.812,5.2,15.618,10.411c2.147,1.434,4.151-2.029,2.019-3.454Q61.628,39.367,46.727,29.477,31.03,19.04,15.336,8.6,9.15,4.477,2.974.343C.83-1.095-1.175,2.369.955,3.8Z"/><path class="c" d="M3.009,244.824q12.377-7.642,24.742-15.3Q44.077,219.414,60.4,209.3q7.989-4.953,15.974-9.912c2.182-1.355.176-4.817-2.019-3.454q-15.024,9.332-30.06,18.642-15.58,9.653-31.167,19.3-6.067,3.753-12.135,7.5c-2.187,1.35-.18,4.812,2.018,3.454Z"/><path class="c" d="M376.006.343q-12.663,8.493-25.374,16.913-16.478,10.959-32.955,21.917-7.88,5.244-15.752,10.5c-2.13,1.423-.13,4.889,2.019,3.454q14.94-9.983,29.913-19.92,15.85-10.541,31.7-21.084,6.24-4.156,12.47-8.326c2.127-1.427.127-4.893-2.019-3.454Z"/><path class="c" d="M377.989,241.37q-12.378-7.642-24.743-15.3Q336.917,215.957,320.6,205.84q-7.99-4.954-15.976-9.913c-2.193-1.362-4.2,2.1-2.019,3.454q15.026,9.332,30.062,18.643,15.582,9.654,31.17,19.3,6.068,3.753,12.136,7.5c2.2,1.357,4.207-2.1,2.019-3.454Z"/><path class="c" d="M134.379,88.556v106.16c0,2.574,4,2.578,4,0V88.556c0-2.574-4-2.578-4,0Z"/><path class="c" d="M103.823,88.556v106.16c0,2.574,4,2.578,4,0V88.556c0-2.574-4-2.578-4,0Z"/><path class="c" d="M116.42,143.658v-4.044a2.065,2.065,0,0,0-.585-1.414,2,2,0,0,0-3.415,1.414v4.044a2.068,2.068,0,0,0,.586,1.414,2,2,0,0,0,3.414-1.414Z"/><path class="c" d="M99.379,143.658q0-2.022,0-4.044a2.065,2.065,0,0,0-.585-1.414,2,2,0,0,0-3.415,1.414q0,2.022,0,4.044a2.067,2.067,0,0,0,.585,1.414,2,2,0,0,0,3.415-1.414Z"/><path class="a" d="M155.635,29.988a9.448,9.448,0,0,1-3.746-5.107c-.042-.174-.076-.352-.1-.532a5.244,5.244,0,0,1,5.29-5.818H221.9a5.244,5.244,0,0,1,5.29,5.818c-.025.18-.059.358-.1.532-.612,2.559-2.8,4.617-4.886,5.866-9.608,5.746-20.893,7.481-32.715,7.481-11.519,0-23.107-1.735-32.716-7.481C156.394,30.52,156.011,30.266,155.635,29.988Z"/><path class="c" d="M156.645,28.261c-2.213-1.688-4.631-5.763-.989-7.422a4.944,4.944,0,0,1,2.161-.308h59.736c1.442,0,2.905-.07,4.347,0a3.467,3.467,0,0,1,3.11,2c.619,1.423-.115,3.007-1.018,4.126a14,14,0,0,1-4.454,3.308,43.35,43.35,0,0,1-5.861,2.631c-8.225,2.979-17.045,3.745-25.738,3.624-8.669-.121-17.611-1.237-25.588-4.822a33.089,33.089,0,0,1-5.706-3.135,2.017,2.017,0,0,0-2.737.717,2.045,2.045,0,0,0,.718,2.737,42.76,42.76,0,0,0,13.049,5.824,71.545,71.545,0,0,0,14.075,2.4c9.468.74,19.351.348,28.561-2.1a50.482,50.482,0,0,0,12.538-5.144c3.549-2.082,7.015-5.774,6.274-10.219a7.411,7.411,0,0,0-7.248-5.941c-.54-.014-1.082,0-1.622,0H157.878a9.181,9.181,0,0,0-3.314.448,7.265,7.265,0,0,0-4.044,9.988,12.661,12.661,0,0,0,4.106,4.748A2.012,2.012,0,0,0,157.362,31,2.05,2.05,0,0,0,156.645,28.261Z"/><path class="a" d="M299.453,53.4c-8.832,0-40.333,0-49.111,0a2.245,2.245,0,0,0-2.249,2.25c0,3.646,0,10.914,0,16.1a3.994,3.994,0,0,0,3.994,4c9.985,0,35.682,0,45.637,0a3.989,3.989,0,0,0,3.99-3.992V55.661A2.258,2.258,0,0,0,299.453,53.4Z"/><path class="c" d="M299.453,51.4l-26.483,0H252.541c-2.291,0-4.732-.087-5.967,2.292-.651,1.255-.481,2.744-.481,4.112q0,2.265,0,4.529c0,3.227-.232,6.55.013,9.768a6.117,6.117,0,0,0,6.273,5.655c2.016.02,4.032,0,6.048,0q16.342,0,32.685,0c2.039,0,4.078.009,6.116,0,3.208-.015,6.038-1.965,6.426-5.311a40.73,40.73,0,0,0,.058-4.663V57.977a9.907,9.907,0,0,0-.382-4.039,4.375,4.375,0,0,0-3.877-2.535c-2.568-.189-2.556,3.812,0,4,.478.035.259,1.4.259,1.939v13.34c0,1.006.1,2.024-.8,2.69a4.315,4.315,0,0,1-2.631.386H290.4q-14.906,0-29.809,0h-6.155c-1.556,0-3.935.4-4.331-1.655a23.347,23.347,0,0,1-.014-4.139q0-2.419,0-4.838V57.33c0-.417-.192-1.437.023-1.8s2.745-.132,3.395-.132h18.824l27.118,0C302.027,55.4,302.031,51.4,299.453,51.4Z"/><path class="c" d="M254.863,70.733h40.076c2.574,0,2.578-4,0-4H254.863c-2.574,0-2.578,4,0,4Z"/><path class="c" d="M75.466,90.555h60.913c2.573,0,2.578-4,0-4H75.466c-2.573,0-2.578,4,0,4Z"/><path class="c" d="M301.712,50.969v70.943c0,2.574,4,2.578,4,0V50.969c0-2.574-4-2.578-4,0Z"/><path class="a" d="M214.087,157.527h7.728v47.7a2.452,2.452,0,0,1-2.452,2.452h-2.825a2.451,2.451,0,0,1-2.451-2.452Z"/><path class="a" d="M310.706,157.527h7.728v47.7a2.451,2.451,0,0,1-2.451,2.452h-2.825a2.452,2.452,0,0,1-2.452-2.452Z"/><path class="c" d="M214.087,159.527h7.728l-2-2v46.9c0,.537.14,1.076-.48,1.25a5.878,5.878,0,0,1-1.384,0,5.63,5.63,0,0,1-1.385,0c-.352-.1-.416-.208-.479-.548a12.118,12.118,0,0,1,0-2.078V178.516c0-6.872.162-13.765,0-20.635,0-.118,0-.236,0-.354,0-2.573-4-2.578-4,0v44.934c0,.846-.016,1.695,0,2.541a4.573,4.573,0,0,0,4.479,4.676c2.748.12,6.053.068,7.037-3.117a8.385,8.385,0,0,0,.212-2.522V179.882c0-7.318.182-14.661,0-21.977,0-.126,0-.252,0-.378a2.029,2.029,0,0,0-2-2h-7.728C211.513,155.527,211.509,159.527,214.087,159.527Z"/><path class="c" d="M310.706,159.527h7.728l-2-2v46.878c0,.541.14,1.11-.5,1.273a6.193,6.193,0,0,1-1.361,0,6.132,6.132,0,0,1-1.361,0c-.37-.094-.439-.223-.5-.572a12.3,12.3,0,0,1,0-2.076V178.506c0-6.869.162-13.759,0-20.625,0-.118,0-.236,0-.354,0-2.573-4-2.578-4,0v44.911c0,.847-.016,1.7,0,2.541a4.6,4.6,0,0,0,4.5,4.7c2.748.119,6.029.046,7.012-3.133a8.4,8.4,0,0,0,.213-2.529V179.871c0-7.314.182-14.654,0-21.966,0-.126,0-.252,0-.378a2.029,2.029,0,0,0-2-2h-7.728C308.132,155.527,308.128,159.527,310.706,159.527Z"/><path class="c" d="M301.712,166.4v29.833c0,2.574,4,2.578,4,0V166.4c0-2.574-4-2.578-4,0Z"/><path class="c" d="M210.281,195.65q0-16.239-.012-32.478,0-2.622,0-5.244c0-2.574-4-2.578-4,0q0,16.237.013,32.477,0,2.622,0,5.245c0,2.574,4,2.578,4,0Z"/><rect class="a" x="208.281" y="150.855" width="110.153" height="8.672"/><path class="c" d="M208.281,152.855h105.65a42.5,42.5,0,0,0,4.313,0c.062-.006.128,0,.19,0l-2-2v8.672l2-2H212.785a42.79,42.79,0,0,0-4.313,0,1.738,1.738,0,0,1-.191,0l2,2v-8.672c0-2.573-4-2.578-4,0v8.672a2.029,2.029,0,0,0,2,2h96.577c4.449,0,8.938.174,13.386,0,.063,0,.127,0,.19,0a2.029,2.029,0,0,0,2-2v-8.672a2.029,2.029,0,0,0-2-2H221.858c-4.45,0-8.939-.173-13.386,0-.063,0-.127,0-.191,0C205.708,148.855,205.7,152.855,208.281,152.855Z"/><path class="a" d="M174.519,175.067H157.033v8.153H192.12v-8.153H174.634"/><path class="a" d="M159.634,183.283c.474,6.044,1.269,14.528,1.984,21.965h25.917c.716-7.437,1.51-15.921,1.984-21.965"/><path class="c" d="M174.519,173.067H157.033a2.03,2.03,0,0,0-2,2v8.153a2.029,2.029,0,0,0,2,2H192.12a2.029,2.029,0,0,0,2-2v-8.153a2.029,2.029,0,0,0-2-2H174.634c-2.574,0-2.578,4,0,4H192.12l-2-2v8.153l2-2H157.033l2,2v-8.153l-2,2h17.486c2.574,0,2.578-4,0-4Z"/><path class="c" d="M157.634,183.283c.275,3.489.583,6.974.9,10.459q.254,2.776.516,5.552c.17,1.8,0,4.163.839,5.8,1.468,2.855,5.453,2.154,8.109,2.154h16.378a6.365,6.365,0,0,0,3.3-.513c1.952-1.107,2.015-3.134,2.2-5.125q.309-3.245.609-6.491c.363-3.943.716-7.888,1.027-11.836.2-2.566-3.8-2.553-4,0-.251,3.185-.53,6.368-.819,9.549q-.229,2.535-.467,5.068-.108,1.161-.218,2.323a13.2,13.2,0,0,1-.279,2.892c-.082.231.089.088-.194.133a6.956,6.956,0,0,1-1.041,0H165.473a6.444,6.444,0,0,1-2.023,0c-.034-.017-.014.032-.049-.261-.127-1.072-.205-2.153-.306-3.228q-.263-2.779-.518-5.56c-.333-3.637-.656-7.275-.943-10.916-.2-2.549-4.2-2.57-4,0Z"/><path class="c" d="M175.989,175.067V154.659c0-2.574-4-2.578-4,0v20.408c0,2.574,4,2.578,4,0Z"/><path class="c" d="M167.877,140.333l3.562,13.928A2,2,0,0,0,175.3,153.2l-3.562-13.928a2,2,0,1,0-3.857,1.063Z"/><path class="c" d="M176.684,156.609q.441-.624.907-1.23l-.312.4a35.537,35.537,0,0,1,3.29-3.689,2,2,0,0,0-2.828-2.829,38.214,38.214,0,0,0-4.511,5.325,2.021,2.021,0,0,0-.2,1.542,2.047,2.047,0,0,0,.919,1.195,2.018,2.018,0,0,0,1.541.2,2.261,2.261,0,0,0,1.2-.919Z"/><path class="c" d="M167.628,160.55q.318.4.629.8l-.313-.405q.953,1.233,1.852,2.5.443.624.87,1.256a10.032,10.032,0,0,1,.849,1.3l-.2-1.541-.013.072,1.4-1.4-.032.01,1.542.2-.03-.019.717.717-.013-.028-.313,2.424.019-.017a2.015,2.015,0,0,0,0-2.829,2.046,2.046,0,0,0-2.828,0l-.019.018a1.89,1.89,0,0,0-.55,1.148,2.137,2.137,0,0,0,.237,1.275,2.034,2.034,0,0,0,2.333.957,1.983,1.983,0,0,0,1.4-1.4,2.314,2.314,0,0,0-.207-1.651c-.071-.127-.154-.248-.234-.37q-.264-.4-.533-.8-.555-.82-1.131-1.627c-.834-1.167-1.7-2.309-2.6-3.432a2,2,0,0,0-1.414-.586,2.037,2.037,0,0,0-1.415.586,2.013,2.013,0,0,0-.585,1.414,2.319,2.319,0,0,0,.585,1.414Z"/><path class="e" d="M160.144,144.957a13.762,13.762,0,0,1,3.494-6.223c2.129-2.194,3.417-2.872,5.307-3.068a5.4,5.4,0,0,1,3.653.7c1.274.92,1.382,2.457,1.2,3.9-.253,2.066-1.032,3.118-2.944,4.728C168.43,147.035,162.925,148.262,160.144,144.957Z"/><path class="e" d="M157.4,162.781a13.766,13.766,0,0,1,3.494-6.224c2.129-2.193,3.418-2.872,5.307-3.068a5.406,5.406,0,0,1,3.653.7c1.274.92,1.383,2.456,1.206,3.9-.254,2.065-1.033,3.118-2.945,4.728C165.682,164.859,160.177,166.085,157.4,162.781Z"/><path class="e" d="M191.678,155.306a13.757,13.757,0,0,0-3.494-6.223c-2.129-2.194-3.418-2.872-5.307-3.069a5.406,5.406,0,0,0-3.653.7c-1.274.92-1.382,2.457-1.206,3.9.254,2.066,1.033,3.118,2.945,4.728C183.392,157.384,188.9,158.611,191.678,155.306Z"/><path class="c" d="M162.072,145.489a11.6,11.6,0,0,1,1.516-3.5,12.99,12.99,0,0,1,2.268-2.63c.24-.224.485-.439.737-.649.315-.263.129-.1.058-.047.123-.088.246-.175.373-.257.214-.139.438-.251.657-.379.308-.182.035-.027-.044,0,.144-.059.291-.111.439-.157.25-.079.5-.126.756-.186.095-.022.386-.048-.052,0,.135-.014.27-.03.405-.04a9.585,9.585,0,0,1,1.137,0c.053,0,.393.062.09.006a5.592,5.592,0,0,1,.569.134,3.366,3.366,0,0,1,.346.119c-.367-.156-.014,0,.059.062.249.21-.4-.3.117.085.046.035.24.289.066.044a2.557,2.557,0,0,1,.192.328c-.156-.31,0,.048.03.141s.1.5.05.129a4.782,4.782,0,0,1,.029.586c0,.265-.02.528-.044.792-.038.413-.023.139-.007.052-.027.152-.055.3-.09.452a6.81,6.81,0,0,1-.223.742c.131-.368.051-.108,0-.025-.08.144-.153.291-.24.431,0-.006-.3.445-.132.213s-.185.219-.176.208c-.169.192-.347.375-.53.553-.26.253-.531.5-.806.73-.094.081-.193.158-.286.24.388-.343.047-.044-.047.02a10.5,10.5,0,0,1-1.195.667c-.328.164-.033.017.035-.01-.127.05-.254.1-.383.145q-.433.156-.879.271c-.276.072-.554.122-.833.181-.376.079-.057.012.023,0-.171.019-.342.036-.513.047-.285.018-.572.023-.857.013-.143,0-.284-.017-.427-.026-.085-.007-.169-.015-.254-.026q.335.045.112.008c-.276-.109-.614-.132-.9-.226-.106-.035-.212-.074-.317-.114.422.161-.077-.048-.135-.079-.12-.064-.771-.5-.451-.25a5.5,5.5,0,0,1-.76-.743,2.019,2.019,0,0,0-2.828,0,2.04,2.04,0,0,0,0,2.829c2.112,2.428,5.428,2.955,8.456,2.4a11.7,11.7,0,0,0,7.252-4.624c1.85-2.522,2.2-7.083-.426-9.2-2.521-2.035-6.671-1.638-9.23.146a16.84,16.84,0,0,0-6.567,9.328C157.527,146.91,161.385,147.97,162.072,145.489Z"/><path class="c" d="M159.324,163.313a11.587,11.587,0,0,1,1.516-3.5,13,13,0,0,1,2.268-2.63q.36-.336.737-.65c.315-.263.13-.1.058-.047.123-.088.246-.175.373-.257.214-.138.439-.25.657-.379.308-.182.035-.027-.044,0,.144-.058.291-.111.439-.157.25-.078.5-.126.756-.185.095-.022.386-.049-.052,0,.135-.015.27-.03.405-.041a9.377,9.377,0,0,1,1.137,0c.053,0,.393.061.09.006a5.333,5.333,0,0,1,.569.133,3.366,3.366,0,0,1,.346.119c-.367-.156-.014,0,.059.062.25.21-.4-.3.117.086.046.034.24.288.066.044a2.384,2.384,0,0,1,.192.328c-.156-.311,0,.047.031.141s.1.5.049.128a4.788,4.788,0,0,1,.029.587c0,.264-.02.528-.044.791-.038.414-.022.139-.007.053-.027.151-.055.3-.09.452a6.793,6.793,0,0,1-.223.741c.131-.368.051-.108,0-.024-.081.143-.154.29-.241.43,0-.006-.3.446-.132.213s-.185.219-.176.209c-.169.192-.347.375-.53.553-.26.253-.53.494-.806.729-.094.081-.193.158-.286.24.388-.343.047-.043-.047.02a10.66,10.66,0,0,1-1.195.668c-.328.164-.033.016.035-.011-.127.05-.254.1-.383.146-.289.1-.582.194-.879.271-.276.072-.554.122-.833.18-.376.079-.057.012.023,0-.171.02-.342.036-.513.047a8.451,8.451,0,0,1-.857.014c-.143,0-.284-.018-.426-.026-.085-.007-.17-.016-.255-.026q.335.045.112.007c-.276-.109-.614-.131-.9-.226q-.161-.052-.318-.114c.422.162-.077-.048-.135-.079-.12-.064-.771-.5-.451-.249a5.618,5.618,0,0,1-.76-.743,2.017,2.017,0,0,0-2.828,0,2.039,2.039,0,0,0,0,2.828c2.112,2.428,5.429,2.955,8.456,2.406a11.706,11.706,0,0,0,7.252-4.625c1.85-2.522,2.2-7.083-.426-9.2-2.521-2.035-6.671-1.638-9.229.146a16.84,16.84,0,0,0-6.568,9.328C154.779,164.734,158.637,165.794,159.324,163.313Z"/><path class="c" d="M193.607,154.774a16.814,16.814,0,0,0-5.47-8.482c-2.565-2.138-6.187-3.123-9.346-1.632-3.376,1.593-3.415,6.239-1.858,9.14a11.286,11.286,0,0,0,6.792,5.117c3.233.9,7.06.456,9.367-2.2a2.049,2.049,0,0,0,0-2.828,2.017,2.017,0,0,0-2.828,0,7.778,7.778,0,0,1-.626.632c-.065.059-.3.2,0,0-.095.063-.188.128-.285.187s-.835.4-.43.248a6.874,6.874,0,0,1-.8.253c-.109.026-.222.044-.331.072-.509.129.262,0-.056.016-.256.01-.51.044-.767.047q-.344,0-.686-.017c-.142-.01-.286-.035-.428-.038s-.114-.012.107.015c-.085-.013-.169-.027-.254-.043a12.917,12.917,0,0,1-1.471-.382c-.12-.04-.782-.324-.359-.123-.236-.113-.474-.221-.7-.347s-.431-.248-.637-.386c-.078-.053-.153-.114-.233-.165.37.237.168.141.081.059-.508-.481-1.052-.909-1.517-1.437-.078-.089-.157-.18-.229-.273.239.31.014.006-.034-.079-.123-.216-.251-.423-.356-.648.189.405-.072-.269-.105-.4-.039-.145-.064-.293-.1-.439-.1-.409,0,.24-.04-.238-.023-.263-.044-.526-.044-.791,0-.132.009-.261.013-.393.017-.589-.06.194.021-.137a3.647,3.647,0,0,1,.128-.457c-.039.1-.157.264.037-.036.215-.332.083-.124.029-.062.071-.081.471-.361.186-.186,0,0,.467-.259.208-.134s.275-.092.267-.089c.112-.034.756-.162.446-.121a6.273,6.273,0,0,1,1.113-.03c.16.008.318.025.477.036.53.037-.388-.1.113.02.228.053.456.095.682.163.156.047.713.332.325.1.214.125.441.225.653.356.126.078.246.164.371.243.338.217-.151-.147.208.154a12.738,12.738,0,0,1,4.521,6.784C190.436,158.315,194.3,157.263,193.607,154.774Z"/><path class="a" d="M279.615,167.441c-7.642,0-14.833.045-22.358.045a3.849,3.849,0,0,0-2.686,6.607l.055.053c2.086,2.024,4.31,3.9,6.583,5.706a11.062,11.062,0,0,0,6.895,2.394h36.1c4.931,0,8.843-3.363,10.786-7.9,1.9-4.444,6.557-26.444,7.194-29.728,1.251-6.444-2.2-10.672-8-10.672H295.065c-4.261,0-9.278,2.478-10.05,6.668-1.3,7.07-3.359,18.448-4.612,26.561"/><path class="c" d="M279.615,165.441q-7.056,0-14.113.031-3.633.011-7.266.014a6.823,6.823,0,0,0-4.884,1.489,5.916,5.916,0,0,0-.3,8.42,47.81,47.81,0,0,0,4.553,4.134,22.108,22.108,0,0,0,5.568,3.713,15.673,15.673,0,0,0,6.169,1h28.681c2.286,0,4.615.129,6.9-.024a13.23,13.23,0,0,0,9.186-4.7c3.181-3.763,4.165-8.664,5.318-13.324,1.3-5.246,2.472-10.525,3.6-15.81.958-4.479,2.512-9.454.058-13.731a9.67,9.67,0,0,0-7.447-4.612,52.546,52.546,0,0,0-6.085-.094h-6.89c-3.919,0-8.25-.537-12.03.72-3.2,1.066-6.157,3.218-7.3,6.5a33.066,33.066,0,0,0-.971,4.891q-.5,2.747-.99,5.494-1.042,5.841-2.025,11.695-.449,2.7-.869,5.4a2.063,2.063,0,0,0,1.4,2.46,2.015,2.015,0,0,0,2.46-1.4c1.066-6.874,2.281-13.724,3.519-20.569q.427-2.37.863-4.739a7.129,7.129,0,0,1,1.212-3.423c1.725-2.153,4.734-3.017,7.385-3.03,4.059-.019,8.117,0,12.176,0,2.077,0,4.154,0,6.231,0a8.386,8.386,0,0,1,3.585.607c4.052,1.875,3.167,6.567,2.427,10.107q-1.392,6.661-2.928,13.293c-.978,4.213-1.9,8.491-3.275,12.6a12.447,12.447,0,0,1-3.7,5.6c-2.683,2.272-5.771,2.091-9.088,2.091H274.78c-3.821,0-8.121.665-11.531-1.42a32.836,32.836,0,0,1-4.546-3.613q-1.1-.981-2.168-2a4.224,4.224,0,0,1-.986-1.1,1.914,1.914,0,0,1,.538-2.226,1.852,1.852,0,0,1,1.015-.388,30.014,30.014,0,0,1,3.327-.008q6.4-.011,12.8-.034,3.195-.007,6.389-.009c2.573,0,2.578-4,0-4Z"/><path class="c" d="M264.256,207.152h15.716c2.573,0,2.578-4,0-4H264.256c-2.573,0-2.578,4,0,4Z"/><path class="c" d="M264.256,205.823a4.359,4.359,0,0,0-4.446,4.418,4.288,4.288,0,0,0,4.446,4.5,4.243,4.243,0,0,0,4.447-4.5A4.356,4.356,0,0,0,264.256,205.823Z"/><path class="c" d="M278.434,182.731v19.377c0,2.574,4,2.578,4,0V182.731c0-2.574-4-2.578-4,0Z"/><path class="c" d="M278.4,201.832c0,2.34-.042,4.68-.043,7.02a2,2,0,0,0,4,0c0-2.34.043-4.68.043-7.02a2,2,0,0,0-4,0Z"/><path class="c" d="M296.612,203.152H280.9c-2.574,0-2.578,4,0,4h15.715c2.574,0,2.578-4,0-4Z"/><path class="c" d="M296.612,205.823a4.359,4.359,0,0,1,4.446,4.418,4.288,4.288,0,0,1-4.446,4.5,4.243,4.243,0,0,1-4.446-4.5A4.355,4.355,0,0,1,296.612,205.823Z"/><path class="c" d="M280.378,209.636a4.36,4.36,0,0,1,4.446,4.419,4.287,4.287,0,0,1-4.446,4.5,4.243,4.243,0,0,1-4.447-4.5A4.356,4.356,0,0,1,280.378,209.636Z"/></svg>